<?xml version="1.0" encoding="utf-8" standalone="no"?>
<!DOCTYPE svg PUBLIC "-//W3C//DTD SVG 1.1//EN"
  "http://www.w3.org/Graphics/SVG/1.1/DTD/svg11.dtd">
<svg xmlns:xlink="http://www.w3.org/1999/xlink" width="361.703594pt" height="337.691484pt" viewBox="0 0 361.703594 337.691484" xmlns="http://www.w3.org/2000/svg" version="1.1">
 <metadata>
  <rdf:RDF xmlns:dc="http://purl.org/dc/elements/1.1/" xmlns:cc="http://creativecommons.org/ns#" xmlns:rdf="http://www.w3.org/1999/02/22-rdf-syntax-ns#">
   <cc:Work>
    <dc:type rdf:resource="http://purl.org/dc/dcmitype/StillImage"/>
    <dc:date>2024-04-06T22:14:53.456601</dc:date>
    <dc:format>image/svg+xml</dc:format>
    <dc:creator>
     <cc:Agent>
      <dc:title>Matplotlib v3.7.2, https://matplotlib.org/</dc:title>
     </cc:Agent>
    </dc:creator>
   </cc:Work>
  </rdf:RDF>
 </metadata>
 <defs>
  <style type="text/css">*{stroke-linejoin: round; stroke-linecap: butt}</style>
 </defs>
 <g id="figure_1">
  <g id="patch_1">
   <path d="M 0 337.691484 
L 361.703594 337.691484 
L 361.703594 0 
L 0 0 
z
" style="fill: #ffffff"/>
  </g>
  <g id="axes_1">
   <g id="patch_2">
    <path d="M 66.468594 289.052578 
L 345.468594 289.052578 
L 345.468594 11.852578 
L 66.468594 11.852578 
z
" style="fill: #ffffff"/>
   </g>
   <g id="matplotlib.axis_1">
    <g id="xtick_1">
     <g id="line2d_1">
      <defs>
       <path id="m58ed85ced0" d="M 0 0 
L 0 4.8 
" style="stroke: #262626; stroke-width: 0.65"/>
      </defs>
      <g>
       <use xlink:href="#m58ed85ced0" x="66.468594" y="289.052578" style="fill: #262626; stroke: #262626; stroke-width: 0.65"/>
      </g>
     </g>
     <g id="text_1">
      <!-- 2.5 -->
      <g style="fill: #262626" transform="translate(57.433594 306.657734) scale(0.13 -0.13)">
       <defs>
        <path id="ArialMT-32" d="M 3222 541 
L 3222 0 
L 194 0 
Q 188 203 259 391 
Q 375 700 629 1000 
Q 884 1300 1366 1694 
Q 2113 2306 2375 2664 
Q 2638 3022 2638 3341 
Q 2638 3675 2398 3904 
Q 2159 4134 1775 4134 
Q 1369 4134 1125 3890 
Q 881 3647 878 3216 
L 300 3275 
Q 359 3922 746 4261 
Q 1134 4600 1788 4600 
Q 2447 4600 2831 4234 
Q 3216 3869 3216 3328 
Q 3216 3053 3103 2787 
Q 2991 2522 2730 2228 
Q 2469 1934 1863 1422 
Q 1356 997 1212 845 
Q 1069 694 975 541 
L 3222 541 
z
" transform="scale(0.015625)"/>
        <path id="ArialMT-2e" d="M 581 0 
L 581 641 
L 1222 641 
L 1222 0 
L 581 0 
z
" transform="scale(0.015625)"/>
        <path id="ArialMT-35" d="M 266 1200 
L 856 1250 
Q 922 819 1161 601 
Q 1400 384 1738 384 
Q 2144 384 2425 690 
Q 2706 997 2706 1503 
Q 2706 1984 2436 2262 
Q 2166 2541 1728 2541 
Q 1456 2541 1237 2417 
Q 1019 2294 894 2097 
L 366 2166 
L 809 4519 
L 3088 4519 
L 3088 3981 
L 1259 3981 
L 1013 2750 
Q 1425 3038 1878 3038 
Q 2478 3038 2890 2622 
Q 3303 2206 3303 1553 
Q 3303 931 2941 478 
Q 2500 -78 1738 -78 
Q 1113 -78 717 272 
Q 322 622 266 1200 
z
" transform="scale(0.015625)"/>
       </defs>
       <use xlink:href="#ArialMT-32"/>
       <use xlink:href="#ArialMT-2e" x="55.615234"/>
       <use xlink:href="#ArialMT-35" x="83.398438"/>
      </g>
     </g>
    </g>
    <g id="xtick_2">
     <g id="line2d_2">
      <g>
       <use xlink:href="#m58ed85ced0" x="122.268594" y="289.052578" style="fill: #262626; stroke: #262626; stroke-width: 0.65"/>
      </g>
     </g>
     <g id="text_2">
      <!-- 3.0 -->
      <g style="fill: #262626" transform="translate(113.233594 306.657734) scale(0.13 -0.13)">
       <defs>
        <path id="ArialMT-33" d="M 269 1209 
L 831 1284 
Q 928 806 1161 595 
Q 1394 384 1728 384 
Q 2125 384 2398 659 
Q 2672 934 2672 1341 
Q 2672 1728 2419 1979 
Q 2166 2231 1775 2231 
Q 1616 2231 1378 2169 
L 1441 2663 
Q 1497 2656 1531 2656 
Q 1891 2656 2178 2843 
Q 2466 3031 2466 3422 
Q 2466 3731 2256 3934 
Q 2047 4138 1716 4138 
Q 1388 4138 1169 3931 
Q 950 3725 888 3313 
L 325 3413 
Q 428 3978 793 4289 
Q 1159 4600 1703 4600 
Q 2078 4600 2393 4439 
Q 2709 4278 2876 4000 
Q 3044 3722 3044 3409 
Q 3044 3113 2884 2869 
Q 2725 2625 2413 2481 
Q 2819 2388 3044 2092 
Q 3269 1797 3269 1353 
Q 3269 753 2831 336 
Q 2394 -81 1725 -81 
Q 1122 -81 723 278 
Q 325 638 269 1209 
z
" transform="scale(0.015625)"/>
        <path id="ArialMT-30" d="M 266 2259 
Q 266 3072 433 3567 
Q 600 4063 929 4331 
Q 1259 4600 1759 4600 
Q 2128 4600 2406 4451 
Q 2684 4303 2865 4023 
Q 3047 3744 3150 3342 
Q 3253 2941 3253 2259 
Q 3253 1453 3087 958 
Q 2922 463 2592 192 
Q 2263 -78 1759 -78 
Q 1097 -78 719 397 
Q 266 969 266 2259 
z
M 844 2259 
Q 844 1131 1108 757 
Q 1372 384 1759 384 
Q 2147 384 2411 759 
Q 2675 1134 2675 2259 
Q 2675 3391 2411 3762 
Q 2147 4134 1753 4134 
Q 1366 4134 1134 3806 
Q 844 3388 844 2259 
z
" transform="scale(0.015625)"/>
       </defs>
       <use xlink:href="#ArialMT-33"/>
       <use xlink:href="#ArialMT-2e" x="55.615234"/>
       <use xlink:href="#ArialMT-30" x="83.398438"/>
      </g>
     </g>
    </g>
    <g id="xtick_3">
     <g id="line2d_3">
      <g>
       <use xlink:href="#m58ed85ced0" x="178.068594" y="289.052578" style="fill: #262626; stroke: #262626; stroke-width: 0.65"/>
      </g>
     </g>
     <g id="text_3">
      <!-- 3.5 -->
      <g style="fill: #262626" transform="translate(169.033594 306.657734) scale(0.13 -0.13)">
       <use xlink:href="#ArialMT-33"/>
       <use xlink:href="#ArialMT-2e" x="55.615234"/>
       <use xlink:href="#ArialMT-35" x="83.398438"/>
      </g>
     </g>
    </g>
    <g id="xtick_4">
     <g id="line2d_4">
      <g>
       <use xlink:href="#m58ed85ced0" x="233.868594" y="289.052578" style="fill: #262626; stroke: #262626; stroke-width: 0.65"/>
      </g>
     </g>
     <g id="text_4">
      <!-- 4.0 -->
      <g style="fill: #262626" transform="translate(224.833594 306.657734) scale(0.13 -0.13)">
       <defs>
        <path id="ArialMT-34" d="M 2069 0 
L 2069 1097 
L 81 1097 
L 81 1613 
L 2172 4581 
L 2631 4581 
L 2631 1613 
L 3250 1613 
L 3250 1097 
L 2631 1097 
L 2631 0 
L 2069 0 
z
M 2069 1613 
L 2069 3678 
L 634 1613 
L 2069 1613 
z
" transform="scale(0.015625)"/>
       </defs>
       <use xlink:href="#ArialMT-34"/>
       <use xlink:href="#ArialMT-2e" x="55.615234"/>
       <use xlink:href="#ArialMT-30" x="83.398438"/>
      </g>
     </g>
    </g>
    <g id="xtick_5">
     <g id="line2d_5">
      <g>
       <use xlink:href="#m58ed85ced0" x="289.668594" y="289.052578" style="fill: #262626; stroke: #262626; stroke-width: 0.65"/>
      </g>
     </g>
     <g id="text_5">
      <!-- 4.5 -->
      <g style="fill: #262626" transform="translate(280.633594 306.657734) scale(0.13 -0.13)">
       <use xlink:href="#ArialMT-34"/>
       <use xlink:href="#ArialMT-2e" x="55.615234"/>
       <use xlink:href="#ArialMT-35" x="83.398438"/>
      </g>
     </g>
    </g>
    <g id="xtick_6">
     <g id="line2d_6">
      <g>
       <use xlink:href="#m58ed85ced0" x="345.468594" y="289.052578" style="fill: #262626; stroke: #262626; stroke-width: 0.65"/>
      </g>
     </g>
     <g id="text_6">
      <!-- 5.0 -->
      <g style="fill: #262626" transform="translate(336.433594 306.657734) scale(0.13 -0.13)">
       <use xlink:href="#ArialMT-35"/>
       <use xlink:href="#ArialMT-2e" x="55.615234"/>
       <use xlink:href="#ArialMT-30" x="83.398438"/>
      </g>
     </g>
    </g>
    <g id="text_7">
     <!-- Interlayer distance ($\mathrm{\AA}$) -->
     <g style="fill: #262626" transform="translate(132.468594 327.191484) scale(0.15 -0.15)">
      <defs>
       <path id="ArialMT-49" d="M 597 0 
L 597 4581 
L 1203 4581 
L 1203 0 
L 597 0 
z
" transform="scale(0.015625)"/>
       <path id="ArialMT-6e" d="M 422 0 
L 422 3319 
L 928 3319 
L 928 2847 
Q 1294 3394 1984 3394 
Q 2284 3394 2536 3286 
Q 2788 3178 2913 3003 
Q 3038 2828 3088 2588 
Q 3119 2431 3119 2041 
L 3119 0 
L 2556 0 
L 2556 2019 
Q 2556 2363 2490 2533 
Q 2425 2703 2258 2804 
Q 2091 2906 1866 2906 
Q 1506 2906 1245 2678 
Q 984 2450 984 1813 
L 984 0 
L 422 0 
z
" transform="scale(0.015625)"/>
       <path id="ArialMT-74" d="M 1650 503 
L 1731 6 
Q 1494 -44 1306 -44 
Q 1000 -44 831 53 
Q 663 150 594 308 
Q 525 466 525 972 
L 525 2881 
L 113 2881 
L 113 3319 
L 525 3319 
L 525 4141 
L 1084 4478 
L 1084 3319 
L 1650 3319 
L 1650 2881 
L 1084 2881 
L 1084 941 
Q 1084 700 1114 631 
Q 1144 563 1211 522 
Q 1278 481 1403 481 
Q 1497 481 1650 503 
z
" transform="scale(0.015625)"/>
       <path id="ArialMT-65" d="M 2694 1069 
L 3275 997 
Q 3138 488 2766 206 
Q 2394 -75 1816 -75 
Q 1088 -75 661 373 
Q 234 822 234 1631 
Q 234 2469 665 2931 
Q 1097 3394 1784 3394 
Q 2450 3394 2872 2941 
Q 3294 2488 3294 1666 
Q 3294 1616 3291 1516 
L 816 1516 
Q 847 969 1125 678 
Q 1403 388 1819 388 
Q 2128 388 2347 550 
Q 2566 713 2694 1069 
z
M 847 1978 
L 2700 1978 
Q 2663 2397 2488 2606 
Q 2219 2931 1791 2931 
Q 1403 2931 1139 2672 
Q 875 2413 847 1978 
z
" transform="scale(0.015625)"/>
       <path id="ArialMT-72" d="M 416 0 
L 416 3319 
L 922 3319 
L 922 2816 
Q 1116 3169 1280 3281 
Q 1444 3394 1641 3394 
Q 1925 3394 2219 3213 
L 2025 2691 
Q 1819 2813 1613 2813 
Q 1428 2813 1281 2702 
Q 1134 2591 1072 2394 
Q 978 2094 978 1738 
L 978 0 
L 416 0 
z
" transform="scale(0.015625)"/>
       <path id="ArialMT-6c" d="M 409 0 
L 409 4581 
L 972 4581 
L 972 0 
L 409 0 
z
" transform="scale(0.015625)"/>
       <path id="ArialMT-61" d="M 2588 409 
Q 2275 144 1986 34 
Q 1697 -75 1366 -75 
Q 819 -75 525 192 
Q 231 459 231 875 
Q 231 1119 342 1320 
Q 453 1522 633 1644 
Q 813 1766 1038 1828 
Q 1203 1872 1538 1913 
Q 2219 1994 2541 2106 
Q 2544 2222 2544 2253 
Q 2544 2597 2384 2738 
Q 2169 2928 1744 2928 
Q 1347 2928 1158 2789 
Q 969 2650 878 2297 
L 328 2372 
Q 403 2725 575 2942 
Q 747 3159 1072 3276 
Q 1397 3394 1825 3394 
Q 2250 3394 2515 3294 
Q 2781 3194 2906 3042 
Q 3031 2891 3081 2659 
Q 3109 2516 3109 2141 
L 3109 1391 
Q 3109 606 3145 398 
Q 3181 191 3288 0 
L 2700 0 
Q 2613 175 2588 409 
z
M 2541 1666 
Q 2234 1541 1622 1453 
Q 1275 1403 1131 1340 
Q 988 1278 909 1158 
Q 831 1038 831 891 
Q 831 666 1001 516 
Q 1172 366 1500 366 
Q 1825 366 2078 508 
Q 2331 650 2450 897 
Q 2541 1088 2541 1459 
L 2541 1666 
z
" transform="scale(0.015625)"/>
       <path id="ArialMT-79" d="M 397 -1278 
L 334 -750 
Q 519 -800 656 -800 
Q 844 -800 956 -737 
Q 1069 -675 1141 -563 
Q 1194 -478 1313 -144 
Q 1328 -97 1363 -6 
L 103 3319 
L 709 3319 
L 1400 1397 
Q 1534 1031 1641 628 
Q 1738 1016 1872 1384 
L 2581 3319 
L 3144 3319 
L 1881 -56 
Q 1678 -603 1566 -809 
Q 1416 -1088 1222 -1217 
Q 1028 -1347 759 -1347 
Q 597 -1347 397 -1278 
z
" transform="scale(0.015625)"/>
       <path id="ArialMT-20" transform="scale(0.015625)"/>
       <path id="ArialMT-64" d="M 2575 0 
L 2575 419 
Q 2259 -75 1647 -75 
Q 1250 -75 917 144 
Q 584 363 401 755 
Q 219 1147 219 1656 
Q 219 2153 384 2558 
Q 550 2963 881 3178 
Q 1213 3394 1622 3394 
Q 1922 3394 2156 3267 
Q 2391 3141 2538 2938 
L 2538 4581 
L 3097 4581 
L 3097 0 
L 2575 0 
z
M 797 1656 
Q 797 1019 1065 703 
Q 1334 388 1700 388 
Q 2069 388 2326 689 
Q 2584 991 2584 1609 
Q 2584 2291 2321 2609 
Q 2059 2928 1675 2928 
Q 1300 2928 1048 2622 
Q 797 2316 797 1656 
z
" transform="scale(0.015625)"/>
       <path id="ArialMT-69" d="M 425 3934 
L 425 4581 
L 988 4581 
L 988 3934 
L 425 3934 
z
M 425 0 
L 425 3319 
L 988 3319 
L 988 0 
L 425 0 
z
" transform="scale(0.015625)"/>
       <path id="ArialMT-73" d="M 197 991 
L 753 1078 
Q 800 744 1014 566 
Q 1228 388 1613 388 
Q 2000 388 2187 545 
Q 2375 703 2375 916 
Q 2375 1106 2209 1216 
Q 2094 1291 1634 1406 
Q 1016 1563 777 1677 
Q 538 1791 414 1992 
Q 291 2194 291 2438 
Q 291 2659 392 2848 
Q 494 3038 669 3163 
Q 800 3259 1026 3326 
Q 1253 3394 1513 3394 
Q 1903 3394 2198 3281 
Q 2494 3169 2634 2976 
Q 2775 2784 2828 2463 
L 2278 2388 
Q 2241 2644 2061 2787 
Q 1881 2931 1553 2931 
Q 1166 2931 1000 2803 
Q 834 2675 834 2503 
Q 834 2394 903 2306 
Q 972 2216 1119 2156 
Q 1203 2125 1616 2013 
Q 2213 1853 2448 1751 
Q 2684 1650 2818 1456 
Q 2953 1263 2953 975 
Q 2953 694 2789 445 
Q 2625 197 2315 61 
Q 2006 -75 1616 -75 
Q 969 -75 630 194 
Q 291 463 197 991 
z
" transform="scale(0.015625)"/>
       <path id="ArialMT-63" d="M 2588 1216 
L 3141 1144 
Q 3050 572 2676 248 
Q 2303 -75 1759 -75 
Q 1078 -75 664 370 
Q 250 816 250 1647 
Q 250 2184 428 2587 
Q 606 2991 970 3192 
Q 1334 3394 1763 3394 
Q 2303 3394 2647 3120 
Q 2991 2847 3088 2344 
L 2541 2259 
Q 2463 2594 2264 2762 
Q 2066 2931 1784 2931 
Q 1359 2931 1093 2626 
Q 828 2322 828 1663 
Q 828 994 1084 691 
Q 1341 388 1753 388 
Q 2084 388 2306 591 
Q 2528 794 2588 1216 
z
" transform="scale(0.015625)"/>
       <path id="ArialMT-28" d="M 1497 -1347 
Q 1031 -759 709 28 
Q 388 816 388 1659 
Q 388 2403 628 3084 
Q 909 3875 1497 4659 
L 1900 4659 
Q 1522 4009 1400 3731 
Q 1209 3300 1100 2831 
Q 966 2247 966 1656 
Q 966 153 1900 -1347 
L 1497 -1347 
z
" transform="scale(0.015625)"/>
       <path id="DejaVuSans-c5" d="M 2663 5081 
Q 2663 5278 2523 5417 
Q 2384 5556 2188 5556 
Q 1988 5556 1852 5420 
Q 1716 5284 1716 5081 
Q 1716 4884 1853 4746 
Q 1991 4609 2188 4609 
Q 2384 4609 2523 4746 
Q 2663 4884 2663 5081 
z
M 2188 4044 
L 1338 1722 
L 3041 1722 
L 2188 4044 
z
M 1716 4366 
Q 1525 4494 1428 4673 
Q 1331 4853 1331 5081 
Q 1331 5441 1579 5691 
Q 1828 5941 2188 5941 
Q 2544 5941 2795 5689 
Q 3047 5438 3047 5081 
Q 3047 4863 2948 4678 
Q 2850 4494 2663 4366 
L 4325 0 
L 3669 0 
L 3244 1197 
L 1141 1197 
L 716 0 
L 50 0 
L 1716 4366 
z
" transform="scale(0.015625)"/>
       <path id="ArialMT-29" d="M 791 -1347 
L 388 -1347 
Q 1322 153 1322 1656 
Q 1322 2244 1188 2822 
Q 1081 3291 891 3722 
Q 769 4003 388 4659 
L 791 4659 
Q 1378 3875 1659 3084 
Q 1900 2403 1900 1659 
Q 1900 816 1576 28 
Q 1253 -759 791 -1347 
z
" transform="scale(0.015625)"/>
      </defs>
      <use xlink:href="#ArialMT-49" transform="translate(0 0.171875)"/>
      <use xlink:href="#ArialMT-6e" transform="translate(27.783203 0.171875)"/>
      <use xlink:href="#ArialMT-74" transform="translate(83.398438 0.171875)"/>
      <use xlink:href="#ArialMT-65" transform="translate(111.181641 0.171875)"/>
      <use xlink:href="#ArialMT-72" transform="translate(166.796875 0.171875)"/>
      <use xlink:href="#ArialMT-6c" transform="translate(200.097656 0.171875)"/>
      <use xlink:href="#ArialMT-61" transform="translate(222.314453 0.171875)"/>
      <use xlink:href="#ArialMT-79" transform="translate(277.929688 0.171875)"/>
      <use xlink:href="#ArialMT-65" transform="translate(327.929688 0.171875)"/>
      <use xlink:href="#ArialMT-72" transform="translate(383.544922 0.171875)"/>
      <use xlink:href="#ArialMT-20" transform="translate(416.845703 0.171875)"/>
      <use xlink:href="#ArialMT-64" transform="translate(444.628906 0.171875)"/>
      <use xlink:href="#ArialMT-69" transform="translate(500.244141 0.171875)"/>
      <use xlink:href="#ArialMT-73" transform="translate(522.460938 0.171875)"/>
      <use xlink:href="#ArialMT-74" transform="translate(572.460938 0.171875)"/>
      <use xlink:href="#ArialMT-61" transform="translate(600.244141 0.171875)"/>
      <use xlink:href="#ArialMT-6e" transform="translate(655.859375 0.171875)"/>
      <use xlink:href="#ArialMT-63" transform="translate(711.474609 0.171875)"/>
      <use xlink:href="#ArialMT-65" transform="translate(761.474609 0.171875)"/>
      <use xlink:href="#ArialMT-20" transform="translate(817.089844 0.171875)"/>
      <use xlink:href="#ArialMT-28" transform="translate(844.873047 0.171875)"/>
      <use xlink:href="#DejaVuSans-c5" transform="translate(878.173828 0.171875)"/>
      <use xlink:href="#ArialMT-29" transform="translate(946.582031 0.171875)"/>
     </g>
    </g>
   </g>
   <g id="matplotlib.axis_2">
    <g id="ytick_1">
     <g id="line2d_7">
      <defs>
       <path id="m7ce9cb1a1f" d="M 0 0 
L -4.8 0 
" style="stroke: #262626; stroke-width: 0.65"/>
      </defs>
      <g>
       <use xlink:href="#m7ce9cb1a1f" x="66.468594" y="289.052578" style="fill: #262626; stroke: #262626; stroke-width: 0.65"/>
      </g>
     </g>
     <g id="text_8">
      <!-- −30.0 -->
      <g style="fill: #262626" transform="translate(25.276562 293.705156) scale(0.13 -0.13)">
       <defs>
        <path id="ArialMT-2212" d="M 3381 1997 
L 356 1997 
L 356 2522 
L 3381 2522 
L 3381 1997 
z
" transform="scale(0.015625)"/>
       </defs>
       <use xlink:href="#ArialMT-2212"/>
       <use xlink:href="#ArialMT-33" x="58.398438"/>
       <use xlink:href="#ArialMT-30" x="114.013672"/>
       <use xlink:href="#ArialMT-2e" x="169.628906"/>
       <use xlink:href="#ArialMT-30" x="197.412109"/>
      </g>
     </g>
    </g>
    <g id="ytick_2">
     <g id="line2d_8">
      <g>
       <use xlink:href="#m7ce9cb1a1f" x="66.468594" y="254.402578" style="fill: #262626; stroke: #262626; stroke-width: 0.65"/>
      </g>
     </g>
     <g id="text_9">
      <!-- −27.5 -->
      <g style="fill: #262626" transform="translate(25.276562 259.055156) scale(0.13 -0.13)">
       <defs>
        <path id="ArialMT-37" d="M 303 3981 
L 303 4522 
L 3269 4522 
L 3269 4084 
Q 2831 3619 2401 2847 
Q 1972 2075 1738 1259 
Q 1569 684 1522 0 
L 944 0 
Q 953 541 1156 1306 
Q 1359 2072 1739 2783 
Q 2119 3494 2547 3981 
L 303 3981 
z
" transform="scale(0.015625)"/>
       </defs>
       <use xlink:href="#ArialMT-2212"/>
       <use xlink:href="#ArialMT-32" x="58.398438"/>
       <use xlink:href="#ArialMT-37" x="114.013672"/>
       <use xlink:href="#ArialMT-2e" x="169.628906"/>
       <use xlink:href="#ArialMT-35" x="197.412109"/>
      </g>
     </g>
    </g>
    <g id="ytick_3">
     <g id="line2d_9">
      <g>
       <use xlink:href="#m7ce9cb1a1f" x="66.468594" y="219.752578" style="fill: #262626; stroke: #262626; stroke-width: 0.65"/>
      </g>
     </g>
     <g id="text_10">
      <!-- −25.0 -->
      <g style="fill: #262626" transform="translate(25.276562 224.405156) scale(0.13 -0.13)">
       <use xlink:href="#ArialMT-2212"/>
       <use xlink:href="#ArialMT-32" x="58.398438"/>
       <use xlink:href="#ArialMT-35" x="114.013672"/>
       <use xlink:href="#ArialMT-2e" x="169.628906"/>
       <use xlink:href="#ArialMT-30" x="197.412109"/>
      </g>
     </g>
    </g>
    <g id="ytick_4">
     <g id="line2d_10">
      <g>
       <use xlink:href="#m7ce9cb1a1f" x="66.468594" y="185.102578" style="fill: #262626; stroke: #262626; stroke-width: 0.65"/>
      </g>
     </g>
     <g id="text_11">
      <!-- −22.5 -->
      <g style="fill: #262626" transform="translate(25.276562 189.755156) scale(0.13 -0.13)">
       <use xlink:href="#ArialMT-2212"/>
       <use xlink:href="#ArialMT-32" x="58.398438"/>
       <use xlink:href="#ArialMT-32" x="114.013672"/>
       <use xlink:href="#ArialMT-2e" x="169.628906"/>
       <use xlink:href="#ArialMT-35" x="197.412109"/>
      </g>
     </g>
    </g>
    <g id="ytick_5">
     <g id="line2d_11">
      <g>
       <use xlink:href="#m7ce9cb1a1f" x="66.468594" y="150.452578" style="fill: #262626; stroke: #262626; stroke-width: 0.65"/>
      </g>
     </g>
     <g id="text_12">
      <!-- −20.0 -->
      <g style="fill: #262626" transform="translate(25.276562 155.105156) scale(0.13 -0.13)">
       <use xlink:href="#ArialMT-2212"/>
       <use xlink:href="#ArialMT-32" x="58.398438"/>
       <use xlink:href="#ArialMT-30" x="114.013672"/>
       <use xlink:href="#ArialMT-2e" x="169.628906"/>
       <use xlink:href="#ArialMT-30" x="197.412109"/>
      </g>
     </g>
    </g>
    <g id="ytick_6">
     <g id="line2d_12">
      <g>
       <use xlink:href="#m7ce9cb1a1f" x="66.468594" y="115.802578" style="fill: #262626; stroke: #262626; stroke-width: 0.65"/>
      </g>
     </g>
     <g id="text_13">
      <!-- −17.5 -->
      <g style="fill: #262626" transform="translate(25.276562 120.455156) scale(0.13 -0.13)">
       <defs>
        <path id="ArialMT-31" d="M 2384 0 
L 1822 0 
L 1822 3584 
Q 1619 3391 1289 3197 
Q 959 3003 697 2906 
L 697 3450 
Q 1169 3672 1522 3987 
Q 1875 4303 2022 4600 
L 2384 4600 
L 2384 0 
z
" transform="scale(0.015625)"/>
       </defs>
       <use xlink:href="#ArialMT-2212"/>
       <use xlink:href="#ArialMT-31" x="58.398438"/>
       <use xlink:href="#ArialMT-37" x="114.013672"/>
       <use xlink:href="#ArialMT-2e" x="169.628906"/>
       <use xlink:href="#ArialMT-35" x="197.412109"/>
      </g>
     </g>
    </g>
    <g id="ytick_7">
     <g id="line2d_13">
      <g>
       <use xlink:href="#m7ce9cb1a1f" x="66.468594" y="81.152578" style="fill: #262626; stroke: #262626; stroke-width: 0.65"/>
      </g>
     </g>
     <g id="text_14">
      <!-- −15.0 -->
      <g style="fill: #262626" transform="translate(25.276562 85.805156) scale(0.13 -0.13)">
       <use xlink:href="#ArialMT-2212"/>
       <use xlink:href="#ArialMT-31" x="58.398438"/>
       <use xlink:href="#ArialMT-35" x="114.013672"/>
       <use xlink:href="#ArialMT-2e" x="169.628906"/>
       <use xlink:href="#ArialMT-30" x="197.412109"/>
      </g>
     </g>
    </g>
    <g id="ytick_8">
     <g id="line2d_14">
      <g>
       <use xlink:href="#m7ce9cb1a1f" x="66.468594" y="46.502578" style="fill: #262626; stroke: #262626; stroke-width: 0.65"/>
      </g>
     </g>
     <g id="text_15">
      <!-- −12.5 -->
      <g style="fill: #262626" transform="translate(25.276562 51.155156) scale(0.13 -0.13)">
       <use xlink:href="#ArialMT-2212"/>
       <use xlink:href="#ArialMT-31" x="58.398438"/>
       <use xlink:href="#ArialMT-32" x="114.013672"/>
       <use xlink:href="#ArialMT-2e" x="169.628906"/>
       <use xlink:href="#ArialMT-35" x="197.412109"/>
      </g>
     </g>
    </g>
    <g id="ytick_9">
     <g id="line2d_15">
      <g>
       <use xlink:href="#m7ce9cb1a1f" x="66.468594" y="11.852578" style="fill: #262626; stroke: #262626; stroke-width: 0.65"/>
      </g>
     </g>
     <g id="text_16">
      <!-- −10.0 -->
      <g style="fill: #262626" transform="translate(25.276562 16.505156) scale(0.13 -0.13)">
       <use xlink:href="#ArialMT-2212"/>
       <use xlink:href="#ArialMT-31" x="58.398438"/>
       <use xlink:href="#ArialMT-30" x="114.013672"/>
       <use xlink:href="#ArialMT-2e" x="169.628906"/>
       <use xlink:href="#ArialMT-30" x="197.412109"/>
      </g>
     </g>
    </g>
    <g id="text_17">
     <!-- Energy (meV/atom) -->
     <g style="fill: #262626" transform="translate(18.119531 215.469375) rotate(-90) scale(0.15 -0.15)">
      <defs>
       <path id="ArialMT-45" d="M 506 0 
L 506 4581 
L 3819 4581 
L 3819 4041 
L 1113 4041 
L 1113 2638 
L 3647 2638 
L 3647 2100 
L 1113 2100 
L 1113 541 
L 3925 541 
L 3925 0 
L 506 0 
z
" transform="scale(0.015625)"/>
       <path id="ArialMT-67" d="M 319 -275 
L 866 -356 
Q 900 -609 1056 -725 
Q 1266 -881 1628 -881 
Q 2019 -881 2231 -725 
Q 2444 -569 2519 -288 
Q 2563 -116 2559 434 
Q 2191 0 1641 0 
Q 956 0 581 494 
Q 206 988 206 1678 
Q 206 2153 378 2554 
Q 550 2956 876 3175 
Q 1203 3394 1644 3394 
Q 2231 3394 2613 2919 
L 2613 3319 
L 3131 3319 
L 3131 450 
Q 3131 -325 2973 -648 
Q 2816 -972 2473 -1159 
Q 2131 -1347 1631 -1347 
Q 1038 -1347 672 -1080 
Q 306 -813 319 -275 
z
M 784 1719 
Q 784 1066 1043 766 
Q 1303 466 1694 466 
Q 2081 466 2343 764 
Q 2606 1063 2606 1700 
Q 2606 2309 2336 2618 
Q 2066 2928 1684 2928 
Q 1309 2928 1046 2623 
Q 784 2319 784 1719 
z
" transform="scale(0.015625)"/>
       <path id="ArialMT-6d" d="M 422 0 
L 422 3319 
L 925 3319 
L 925 2853 
Q 1081 3097 1340 3245 
Q 1600 3394 1931 3394 
Q 2300 3394 2536 3241 
Q 2772 3088 2869 2813 
Q 3263 3394 3894 3394 
Q 4388 3394 4653 3120 
Q 4919 2847 4919 2278 
L 4919 0 
L 4359 0 
L 4359 2091 
Q 4359 2428 4304 2576 
Q 4250 2725 4106 2815 
Q 3963 2906 3769 2906 
Q 3419 2906 3187 2673 
Q 2956 2441 2956 1928 
L 2956 0 
L 2394 0 
L 2394 2156 
Q 2394 2531 2256 2718 
Q 2119 2906 1806 2906 
Q 1569 2906 1367 2781 
Q 1166 2656 1075 2415 
Q 984 2175 984 1722 
L 984 0 
L 422 0 
z
" transform="scale(0.015625)"/>
       <path id="ArialMT-56" d="M 1803 0 
L 28 4581 
L 684 4581 
L 1875 1253 
Q 2019 853 2116 503 
Q 2222 878 2363 1253 
L 3600 4581 
L 4219 4581 
L 2425 0 
L 1803 0 
z
" transform="scale(0.015625)"/>
       <path id="ArialMT-2f" d="M 0 -78 
L 1328 4659 
L 1778 4659 
L 453 -78 
L 0 -78 
z
" transform="scale(0.015625)"/>
       <path id="ArialMT-6f" d="M 213 1659 
Q 213 2581 725 3025 
Q 1153 3394 1769 3394 
Q 2453 3394 2887 2945 
Q 3322 2497 3322 1706 
Q 3322 1066 3130 698 
Q 2938 331 2570 128 
Q 2203 -75 1769 -75 
Q 1072 -75 642 372 
Q 213 819 213 1659 
z
M 791 1659 
Q 791 1022 1069 705 
Q 1347 388 1769 388 
Q 2188 388 2466 706 
Q 2744 1025 2744 1678 
Q 2744 2294 2464 2611 
Q 2184 2928 1769 2928 
Q 1347 2928 1069 2612 
Q 791 2297 791 1659 
z
" transform="scale(0.015625)"/>
      </defs>
      <use xlink:href="#ArialMT-45"/>
      <use xlink:href="#ArialMT-6e" x="66.699219"/>
      <use xlink:href="#ArialMT-65" x="122.314453"/>
      <use xlink:href="#ArialMT-72" x="177.929688"/>
      <use xlink:href="#ArialMT-67" x="211.230469"/>
      <use xlink:href="#ArialMT-79" x="266.845703"/>
      <use xlink:href="#ArialMT-20" x="316.845703"/>
      <use xlink:href="#ArialMT-28" x="344.628906"/>
      <use xlink:href="#ArialMT-6d" x="377.929688"/>
      <use xlink:href="#ArialMT-65" x="461.230469"/>
      <use xlink:href="#ArialMT-56" x="516.845703"/>
      <use xlink:href="#ArialMT-2f" x="583.544922"/>
      <use xlink:href="#ArialMT-61" x="611.328125"/>
      <use xlink:href="#ArialMT-74" x="666.943359"/>
      <use xlink:href="#ArialMT-6f" x="694.726562"/>
      <use xlink:href="#ArialMT-6d" x="750.341797"/>
      <use xlink:href="#ArialMT-29" x="833.642578"/>
     </g>
    </g>
   </g>
   <g id="line2d_16">
    <defs>
     <path id="mfb045bca15" d="M 0 -3.5 
L -3.5 3.5 
L 3.5 3.5 
z
" style="stroke: #8172b3; stroke-opacity: 0.5; stroke-linejoin: miter"/>
    </defs>
    <g clip-path="url(#pdd32a7c9a0)">
     <use xlink:href="#mfb045bca15" x="126.623335" y="-1" style="fill: #8172b3; fill-opacity: 0.5; stroke: #8172b3; stroke-opacity: 0.5; stroke-linejoin: miter"/>
     <use xlink:href="#mfb045bca15" x="133.428594" y="58.837978" style="fill: #8172b3; fill-opacity: 0.5; stroke: #8172b3; stroke-opacity: 0.5; stroke-linejoin: miter"/>
     <use xlink:href="#mfb045bca15" x="144.588594" y="121.069378" style="fill: #8172b3; fill-opacity: 0.5; stroke: #8172b3; stroke-opacity: 0.5; stroke-linejoin: miter"/>
     <use xlink:href="#mfb045bca15" x="155.748594" y="157.243978" style="fill: #8172b3; fill-opacity: 0.5; stroke: #8172b3; stroke-opacity: 0.5; stroke-linejoin: miter"/>
     <use xlink:href="#mfb045bca15" x="166.908594" y="174.568978" style="fill: #8172b3; fill-opacity: 0.5; stroke: #8172b3; stroke-opacity: 0.5; stroke-linejoin: miter"/>
     <use xlink:href="#mfb045bca15" x="178.068594" y="178.726978" style="fill: #8172b3; fill-opacity: 0.5; stroke: #8172b3; stroke-opacity: 0.5; stroke-linejoin: miter"/>
     <use xlink:href="#mfb045bca15" x="189.228594" y="174.014578" style="fill: #8172b3; fill-opacity: 0.5; stroke: #8172b3; stroke-opacity: 0.5; stroke-linejoin: miter"/>
     <use xlink:href="#mfb045bca15" x="200.388594" y="163.480978" style="fill: #8172b3; fill-opacity: 0.5; stroke: #8172b3; stroke-opacity: 0.5; stroke-linejoin: miter"/>
     <use xlink:href="#mfb045bca15" x="211.548594" y="149.343778" style="fill: #8172b3; fill-opacity: 0.5; stroke: #8172b3; stroke-opacity: 0.5; stroke-linejoin: miter"/>
     <use xlink:href="#mfb045bca15" x="222.708594" y="133.127578" style="fill: #8172b3; fill-opacity: 0.5; stroke: #8172b3; stroke-opacity: 0.5; stroke-linejoin: miter"/>
     <use xlink:href="#mfb045bca15" x="233.868594" y="115.802578" style="fill: #8172b3; fill-opacity: 0.5; stroke: #8172b3; stroke-opacity: 0.5; stroke-linejoin: miter"/>
     <use xlink:href="#mfb045bca15" x="245.028594" y="98.338978" style="fill: #8172b3; fill-opacity: 0.5; stroke: #8172b3; stroke-opacity: 0.5; stroke-linejoin: miter"/>
     <use xlink:href="#mfb045bca15" x="256.188594" y="81.152578" style="fill: #8172b3; fill-opacity: 0.5; stroke: #8172b3; stroke-opacity: 0.5; stroke-linejoin: miter"/>
     <use xlink:href="#mfb045bca15" x="267.348594" y="64.797778" style="fill: #8172b3; fill-opacity: 0.5; stroke: #8172b3; stroke-opacity: 0.5; stroke-linejoin: miter"/>
     <use xlink:href="#mfb045bca15" x="278.508594" y="49.413178" style="fill: #8172b3; fill-opacity: 0.5; stroke: #8172b3; stroke-opacity: 0.5; stroke-linejoin: miter"/>
     <use xlink:href="#mfb045bca15" x="289.668594" y="35.275978" style="fill: #8172b3; fill-opacity: 0.5; stroke: #8172b3; stroke-opacity: 0.5; stroke-linejoin: miter"/>
     <use xlink:href="#mfb045bca15" x="300.828594" y="21.970378" style="fill: #8172b3; fill-opacity: 0.5; stroke: #8172b3; stroke-opacity: 0.5; stroke-linejoin: miter"/>
     <use xlink:href="#mfb045bca15" x="311.988594" y="9.634978" style="fill: #8172b3; fill-opacity: 0.5; stroke: #8172b3; stroke-opacity: 0.5; stroke-linejoin: miter"/>
     <use xlink:href="#mfb045bca15" x="322.305737" y="-1" style="fill: #8172b3; fill-opacity: 0.5; stroke: #8172b3; stroke-opacity: 0.5; stroke-linejoin: miter"/>
    </g>
   </g>
   <g id="line2d_17">
    <path d="M 127.124295 -1 
L 133.428594 54.13881 
L 144.588594 114.945963 
L 155.748594 149.098458 
L 166.908594 167.233569 
L 178.068594 174.06719 
L 189.228594 170.49651 
L 200.388594 159.074262 
L 211.548594 143.821464 
L 222.708594 126.883004 
L 233.868594 109.719312 
L 245.028594 92.825717 
L 256.188594 76.340364 
L 267.348594 60.847686 
L 278.508594 46.684637 
L 289.668594 33.9386 
L 300.828594 22.465527 
L 311.988594 11.70761 
L 323.148594 1.307369 
L 325.665863 -1 
" clip-path="url(#pdd32a7c9a0)" style="fill: none; stroke: #8172b3; stroke-opacity: 0.8; stroke-width: 2; stroke-linecap: round"/>
   </g>
   <g id="line2d_18">
    <defs>
     <path id="m36ac852b71" d="M 0 4.949747 
L 4.949747 0 
L 0 -4.949747 
L -4.949747 0 
z
" style="stroke: #55a868; stroke-opacity: 0.5; stroke-linejoin: miter"/>
    </defs>
    <g clip-path="url(#pdd32a7c9a0)">
     <use xlink:href="#m36ac852b71" x="132.264405" y="-1" style="fill: #55a868; fill-opacity: 0.5; stroke: #55a868; stroke-opacity: 0.5; stroke-linejoin: miter"/>
     <use xlink:href="#m36ac852b71" x="133.428594" y="11.159578" style="fill: #55a868; fill-opacity: 0.5; stroke: #55a868; stroke-opacity: 0.5; stroke-linejoin: miter"/>
     <use xlink:href="#m36ac852b71" x="144.588594" y="87.112378" style="fill: #55a868; fill-opacity: 0.5; stroke: #55a868; stroke-opacity: 0.5; stroke-linejoin: miter"/>
     <use xlink:href="#m36ac852b71" x="155.748594" y="132.988978" style="fill: #55a868; fill-opacity: 0.5; stroke: #55a868; stroke-opacity: 0.5; stroke-linejoin: miter"/>
     <use xlink:href="#m36ac852b71" x="166.908594" y="157.521178" style="fill: #55a868; fill-opacity: 0.5; stroke: #55a868; stroke-opacity: 0.5; stroke-linejoin: miter"/>
     <use xlink:href="#m36ac852b71" x="178.068594" y="166.807378" style="fill: #55a868; fill-opacity: 0.5; stroke: #55a868; stroke-opacity: 0.5; stroke-linejoin: miter"/>
     <use xlink:href="#m36ac852b71" x="189.228594" y="165.837178" style="fill: #55a868; fill-opacity: 0.5; stroke: #55a868; stroke-opacity: 0.5; stroke-linejoin: miter"/>
     <use xlink:href="#m36ac852b71" x="200.388594" y="157.798378" style="fill: #55a868; fill-opacity: 0.5; stroke: #55a868; stroke-opacity: 0.5; stroke-linejoin: miter"/>
     <use xlink:href="#m36ac852b71" x="211.548594" y="145.462978" style="fill: #55a868; fill-opacity: 0.5; stroke: #55a868; stroke-opacity: 0.5; stroke-linejoin: miter"/>
     <use xlink:href="#m36ac852b71" x="222.708594" y="130.355578" style="fill: #55a868; fill-opacity: 0.5; stroke: #55a868; stroke-opacity: 0.5; stroke-linejoin: miter"/>
     <use xlink:href="#m36ac852b71" x="233.868594" y="114.000778" style="fill: #55a868; fill-opacity: 0.5; stroke: #55a868; stroke-opacity: 0.5; stroke-linejoin: miter"/>
     <use xlink:href="#m36ac852b71" x="245.028594" y="97.507378" style="fill: #55a868; fill-opacity: 0.5; stroke: #55a868; stroke-opacity: 0.5; stroke-linejoin: miter"/>
     <use xlink:href="#m36ac852b71" x="256.188594" y="81.152578" style="fill: #55a868; fill-opacity: 0.5; stroke: #55a868; stroke-opacity: 0.5; stroke-linejoin: miter"/>
     <use xlink:href="#m36ac852b71" x="267.348594" y="65.352178" style="fill: #55a868; fill-opacity: 0.5; stroke: #55a868; stroke-opacity: 0.5; stroke-linejoin: miter"/>
     <use xlink:href="#m36ac852b71" x="278.508594" y="50.383378" style="fill: #55a868; fill-opacity: 0.5; stroke: #55a868; stroke-opacity: 0.5; stroke-linejoin: miter"/>
     <use xlink:href="#m36ac852b71" x="289.668594" y="36.246178" style="fill: #55a868; fill-opacity: 0.5; stroke: #55a868; stroke-opacity: 0.5; stroke-linejoin: miter"/>
     <use xlink:href="#m36ac852b71" x="300.828594" y="23.079178" style="fill: #55a868; fill-opacity: 0.5; stroke: #55a868; stroke-opacity: 0.5; stroke-linejoin: miter"/>
     <use xlink:href="#m36ac852b71" x="311.988594" y="10.605178" style="fill: #55a868; fill-opacity: 0.5; stroke: #55a868; stroke-opacity: 0.5; stroke-linejoin: miter"/>
     <use xlink:href="#m36ac852b71" x="323.148594" y="-0.760022" style="fill: #55a868; fill-opacity: 0.5; stroke: #55a868; stroke-opacity: 0.5; stroke-linejoin: miter"/>
     <use xlink:href="#m36ac852b71" x="323.406233" y="-1" style="fill: #55a868; fill-opacity: 0.5; stroke: #55a868; stroke-opacity: 0.5; stroke-linejoin: miter"/>
    </g>
   </g>
   <g id="line2d_19">
    <path d="M 132.660775 -1 
L 133.428594 7.003646 
L 144.588594 84.149839 
L 155.748594 129.87892 
L 166.908594 154.124045 
L 178.068594 164.008527 
L 189.228594 163.27762 
L 200.388594 154.73343 
L 211.548594 141.575468 
L 222.708594 125.999323 
L 233.868594 109.601733 
L 245.028594 93.122448 
L 256.188594 76.806646 
L 267.348594 61.074812 
L 278.508594 46.264892 
L 289.668594 32.612131 
L 300.828594 20.207251 
L 311.988594 8.782148 
L 322.265495 -1 
" clip-path="url(#pdd32a7c9a0)" style="fill: none; stroke: #55a868; stroke-opacity: 0.8; stroke-width: 2; stroke-linecap: round"/>
   </g>
   <g id="line2d_20">
    <defs>
     <path id="m2f217d4f1b" d="M 0 3.5 
C 0.928211 3.5 1.81853 3.131218 2.474874 2.474874 
C 3.131218 1.81853 3.5 0.928211 3.5 0 
C 3.5 -0.928211 3.131218 -1.81853 2.474874 -2.474874 
C 1.81853 -3.131218 0.928211 -3.5 0 -3.5 
C -0.928211 -3.5 -1.81853 -3.131218 -2.474874 -2.474874 
C -3.131218 -1.81853 -3.5 -0.928211 -3.5 0 
C -3.5 0.928211 -3.131218 1.81853 -2.474874 2.474874 
C -1.81853 3.131218 -0.928211 3.5 0 3.5 
z
" style="stroke: #bf4045; stroke-opacity: 0.5"/>
    </defs>
    <g clip-path="url(#pdd32a7c9a0)">
     <use xlink:href="#m2f217d4f1b" x="105.59209" y="-1" style="fill: #bf4045; fill-opacity: 0.5; stroke: #bf4045; stroke-opacity: 0.5"/>
     <use xlink:href="#m2f217d4f1b" x="111.108594" y="62.441578" style="fill: #bf4045; fill-opacity: 0.5; stroke: #bf4045; stroke-opacity: 0.5"/>
     <use xlink:href="#m2f217d4f1b" x="122.268594" y="145.324378" style="fill: #bf4045; fill-opacity: 0.5; stroke: #bf4045; stroke-opacity: 0.5"/>
     <use xlink:href="#m2f217d4f1b" x="133.428594" y="195.081778" style="fill: #bf4045; fill-opacity: 0.5; stroke: #bf4045; stroke-opacity: 0.5"/>
     <use xlink:href="#m2f217d4f1b" x="144.588594" y="221.277178" style="fill: #bf4045; fill-opacity: 0.5; stroke: #bf4045; stroke-opacity: 0.5"/>
     <use xlink:href="#m2f217d4f1b" x="155.748594" y="230.286178" style="fill: #bf4045; fill-opacity: 0.5; stroke: #bf4045; stroke-opacity: 0.5"/>
     <use xlink:href="#m2f217d4f1b" x="166.908594" y="227.791378" style="fill: #bf4045; fill-opacity: 0.5; stroke: #bf4045; stroke-opacity: 0.5"/>
     <use xlink:href="#m2f217d4f1b" x="178.068594" y="217.257778" style="fill: #bf4045; fill-opacity: 0.5; stroke: #bf4045; stroke-opacity: 0.5"/>
     <use xlink:href="#m2f217d4f1b" x="189.228594" y="201.873178" style="fill: #bf4045; fill-opacity: 0.5; stroke: #bf4045; stroke-opacity: 0.5"/>
     <use xlink:href="#m2f217d4f1b" x="200.388594" y="183.439378" style="fill: #bf4045; fill-opacity: 0.5; stroke: #bf4045; stroke-opacity: 0.5"/>
     <use xlink:href="#m2f217d4f1b" x="211.548594" y="163.480978" style="fill: #bf4045; fill-opacity: 0.5; stroke: #bf4045; stroke-opacity: 0.5"/>
     <use xlink:href="#m2f217d4f1b" x="222.708594" y="143.106778" style="fill: #bf4045; fill-opacity: 0.5; stroke: #bf4045; stroke-opacity: 0.5"/>
     <use xlink:href="#m2f217d4f1b" x="233.868594" y="123.009778" style="fill: #bf4045; fill-opacity: 0.5; stroke: #bf4045; stroke-opacity: 0.5"/>
     <use xlink:href="#m2f217d4f1b" x="245.028594" y="103.744378" style="fill: #bf4045; fill-opacity: 0.5; stroke: #bf4045; stroke-opacity: 0.5"/>
     <use xlink:href="#m2f217d4f1b" x="256.188594" y="85.171978" style="fill: #bf4045; fill-opacity: 0.5; stroke: #bf4045; stroke-opacity: 0.5"/>
     <use xlink:href="#m2f217d4f1b" x="267.348594" y="67.846978" style="fill: #bf4045; fill-opacity: 0.5; stroke: #bf4045; stroke-opacity: 0.5"/>
     <use xlink:href="#m2f217d4f1b" x="278.508594" y="51.907978" style="fill: #bf4045; fill-opacity: 0.5; stroke: #bf4045; stroke-opacity: 0.5"/>
     <use xlink:href="#m2f217d4f1b" x="289.668594" y="37.077778" style="fill: #bf4045; fill-opacity: 0.5; stroke: #bf4045; stroke-opacity: 0.5"/>
     <use xlink:href="#m2f217d4f1b" x="300.828594" y="23.217778" style="fill: #bf4045; fill-opacity: 0.5; stroke: #bf4045; stroke-opacity: 0.5"/>
     <use xlink:href="#m2f217d4f1b" x="311.988594" y="10.466578" style="fill: #bf4045; fill-opacity: 0.5; stroke: #bf4045; stroke-opacity: 0.5"/>
     <use xlink:href="#m2f217d4f1b" x="322.850746" y="-1" style="fill: #bf4045; fill-opacity: 0.5; stroke: #bf4045; stroke-opacity: 0.5"/>
    </g>
   </g>
   <g id="line2d_21">
    <path d="M 106.083585 -1 
L 111.108594 57.194565 
L 122.268594 139.744311 
L 133.428594 187.498329 
L 144.588594 211.949585 
L 155.748594 222.021171 
L 166.908594 222.698195 
L 178.068594 214.709513 
L 189.228594 199.182818 
L 200.388594 181.05463 
L 211.548594 164.228355 
L 222.708594 145.686419 
L 233.868594 125.789739 
L 245.028594 105.453425 
L 256.188594 85.427771 
L 267.348594 66.077086 
L 278.508594 47.761215 
L 289.668594 30.802278 
L 300.828594 15.442416 
L 311.988594 1.845702 
L 314.667993 -1 
" clip-path="url(#pdd32a7c9a0)" style="fill: none; stroke: #bf4045; stroke-opacity: 0.8; stroke-width: 2; stroke-linecap: round"/>
   </g>
   <g id="patch_3">
    <path d="M 66.468594 289.052578 
L 66.468594 11.852578 
" style="fill: none; stroke: #262626; stroke-width: 0.65; stroke-linejoin: miter; stroke-linecap: square"/>
   </g>
   <g id="patch_4">
    <path d="M 345.468594 289.052578 
L 345.468594 11.852578 
" style="fill: none; stroke: #262626; stroke-width: 0.65; stroke-linejoin: miter; stroke-linecap: square"/>
   </g>
   <g id="patch_5">
    <path d="M 66.468594 289.052578 
L 345.468594 289.052578 
" style="fill: none; stroke: #262626; stroke-width: 0.65; stroke-linejoin: miter; stroke-linecap: square"/>
   </g>
   <g id="patch_6">
    <path d="M 66.468594 11.852578 
L 345.468594 11.852578 
" style="fill: none; stroke: #262626; stroke-width: 0.65; stroke-linejoin: miter; stroke-linecap: square"/>
   </g>
  </g>
 </g>
 <defs>
  <clipPath id="pdd32a7c9a0">
   <rect x="66.468594" y="11.852578" width="279" height="277.2"/>
  </clipPath>
 </defs>
</svg>
