<?xml version="1.0" encoding="utf-8" standalone="no"?>
<!DOCTYPE svg PUBLIC "-//W3C//DTD SVG 1.1//EN"
  "http://www.w3.org/Graphics/SVG/1.1/DTD/svg11.dtd">
<svg xmlns:xlink="http://www.w3.org/1999/xlink" width="639.006094pt" height="335.957187pt" viewBox="0 0 639.006094 335.957187" xmlns="http://www.w3.org/2000/svg" version="1.1">
 <metadata>
  <rdf:RDF xmlns:dc="http://purl.org/dc/elements/1.1/" xmlns:cc="http://creativecommons.org/ns#" xmlns:rdf="http://www.w3.org/1999/02/22-rdf-syntax-ns#">
   <cc:Work>
    <dc:type rdf:resource="http://purl.org/dc/dcmitype/StillImage"/>
    <dc:date>2024-07-20T14:44:24.052208</dc:date>
    <dc:format>image/svg+xml</dc:format>
    <dc:creator>
     <cc:Agent>
      <dc:title>Matplotlib v3.7.2, https://matplotlib.org/</dc:title>
     </cc:Agent>
    </dc:creator>
   </cc:Work>
  </rdf:RDF>
 </metadata>
 <defs>
  <style type="text/css">*{stroke-linejoin: round; stroke-linecap: butt}</style>
 </defs>
 <g id="figure_1">
  <g id="patch_1">
   <path d="M 0 335.957187 
L 639.006094 335.957187 
L 639.006094 0 
L 0 0 
z
" style="fill: #ffffff"/>
  </g>
  <g id="axes_1">
   <g id="patch_2">
    <path d="M 68.80125 276.995625 
L 626.80125 276.995625 
L 626.80125 27.515625 
L 68.80125 27.515625 
z
" style="fill: #ffffff"/>
   </g>
   <g id="matplotlib.axis_1">
    <g id="xtick_1">
     <g id="line2d_1">
      <defs>
       <path id="m62fb33eda6" d="M 0 0 
L 0 4.8 
" style="stroke: #262626; stroke-width: 0.8"/>
      </defs>
      <g>
       <use xlink:href="#m62fb33eda6" x="68.80125" y="276.995625" style="fill: #262626; stroke: #262626; stroke-width: 0.8"/>
      </g>
     </g>
     <g id="text_1">
      <!-- 2 -->
      <g style="fill: #262626" transform="translate(63.796406 298.179688) scale(0.18 -0.18)">
       <defs>
        <path id="ArialMT-32" d="M 3222 541 
L 3222 0 
L 194 0 
Q 188 203 259 391 
Q 375 700 629 1000 
Q 884 1300 1366 1694 
Q 2113 2306 2375 2664 
Q 2638 3022 2638 3341 
Q 2638 3675 2398 3904 
Q 2159 4134 1775 4134 
Q 1369 4134 1125 3890 
Q 881 3647 878 3216 
L 300 3275 
Q 359 3922 746 4261 
Q 1134 4600 1788 4600 
Q 2447 4600 2831 4234 
Q 3216 3869 3216 3328 
Q 3216 3053 3103 2787 
Q 2991 2522 2730 2228 
Q 2469 1934 1863 1422 
Q 1356 997 1212 845 
Q 1069 694 975 541 
L 3222 541 
z
" transform="scale(0.015625)"/>
       </defs>
       <use xlink:href="#ArialMT-32"/>
      </g>
     </g>
    </g>
    <g id="xtick_2">
     <g id="line2d_2">
      <g>
       <use xlink:href="#m62fb33eda6" x="148.515536" y="276.995625" style="fill: #262626; stroke: #262626; stroke-width: 0.8"/>
      </g>
     </g>
     <g id="text_2">
      <!-- 3 -->
      <g style="fill: #262626" transform="translate(143.510692 298.179688) scale(0.18 -0.18)">
       <defs>
        <path id="ArialMT-33" d="M 269 1209 
L 831 1284 
Q 928 806 1161 595 
Q 1394 384 1728 384 
Q 2125 384 2398 659 
Q 2672 934 2672 1341 
Q 2672 1728 2419 1979 
Q 2166 2231 1775 2231 
Q 1616 2231 1378 2169 
L 1441 2663 
Q 1497 2656 1531 2656 
Q 1891 2656 2178 2843 
Q 2466 3031 2466 3422 
Q 2466 3731 2256 3934 
Q 2047 4138 1716 4138 
Q 1388 4138 1169 3931 
Q 950 3725 888 3313 
L 325 3413 
Q 428 3978 793 4289 
Q 1159 4600 1703 4600 
Q 2078 4600 2393 4439 
Q 2709 4278 2876 4000 
Q 3044 3722 3044 3409 
Q 3044 3113 2884 2869 
Q 2725 2625 2413 2481 
Q 2819 2388 3044 2092 
Q 3269 1797 3269 1353 
Q 3269 753 2831 336 
Q 2394 -81 1725 -81 
Q 1122 -81 723 278 
Q 325 638 269 1209 
z
" transform="scale(0.015625)"/>
       </defs>
       <use xlink:href="#ArialMT-33"/>
      </g>
     </g>
    </g>
    <g id="xtick_3">
     <g id="line2d_3">
      <g>
       <use xlink:href="#m62fb33eda6" x="228.229821" y="276.995625" style="fill: #262626; stroke: #262626; stroke-width: 0.8"/>
      </g>
     </g>
     <g id="text_3">
      <!-- 4 -->
      <g style="fill: #262626" transform="translate(223.224978 298.179688) scale(0.18 -0.18)">
       <defs>
        <path id="ArialMT-34" d="M 2069 0 
L 2069 1097 
L 81 1097 
L 81 1613 
L 2172 4581 
L 2631 4581 
L 2631 1613 
L 3250 1613 
L 3250 1097 
L 2631 1097 
L 2631 0 
L 2069 0 
z
M 2069 1613 
L 2069 3678 
L 634 1613 
L 2069 1613 
z
" transform="scale(0.015625)"/>
       </defs>
       <use xlink:href="#ArialMT-34"/>
      </g>
     </g>
    </g>
    <g id="xtick_4">
     <g id="line2d_4">
      <g>
       <use xlink:href="#m62fb33eda6" x="307.944107" y="276.995625" style="fill: #262626; stroke: #262626; stroke-width: 0.8"/>
      </g>
     </g>
     <g id="text_4">
      <!-- 5 -->
      <g style="fill: #262626" transform="translate(302.939263 298.179688) scale(0.18 -0.18)">
       <defs>
        <path id="ArialMT-35" d="M 266 1200 
L 856 1250 
Q 922 819 1161 601 
Q 1400 384 1738 384 
Q 2144 384 2425 690 
Q 2706 997 2706 1503 
Q 2706 1984 2436 2262 
Q 2166 2541 1728 2541 
Q 1456 2541 1237 2417 
Q 1019 2294 894 2097 
L 366 2166 
L 809 4519 
L 3088 4519 
L 3088 3981 
L 1259 3981 
L 1013 2750 
Q 1425 3038 1878 3038 
Q 2478 3038 2890 2622 
Q 3303 2206 3303 1553 
Q 3303 931 2941 478 
Q 2500 -78 1738 -78 
Q 1113 -78 717 272 
Q 322 622 266 1200 
z
" transform="scale(0.015625)"/>
       </defs>
       <use xlink:href="#ArialMT-35"/>
      </g>
     </g>
    </g>
    <g id="xtick_5">
     <g id="line2d_5">
      <g>
       <use xlink:href="#m62fb33eda6" x="387.658393" y="276.995625" style="fill: #262626; stroke: #262626; stroke-width: 0.8"/>
      </g>
     </g>
     <g id="text_5">
      <!-- 6 -->
      <g style="fill: #262626" transform="translate(382.653549 298.179688) scale(0.18 -0.18)">
       <defs>
        <path id="ArialMT-36" d="M 3184 3459 
L 2625 3416 
Q 2550 3747 2413 3897 
Q 2184 4138 1850 4138 
Q 1581 4138 1378 3988 
Q 1113 3794 959 3422 
Q 806 3050 800 2363 
Q 1003 2672 1297 2822 
Q 1591 2972 1913 2972 
Q 2475 2972 2870 2558 
Q 3266 2144 3266 1488 
Q 3266 1056 3080 686 
Q 2894 316 2569 119 
Q 2244 -78 1831 -78 
Q 1128 -78 684 439 
Q 241 956 241 2144 
Q 241 3472 731 4075 
Q 1159 4600 1884 4600 
Q 2425 4600 2770 4297 
Q 3116 3994 3184 3459 
z
M 888 1484 
Q 888 1194 1011 928 
Q 1134 663 1356 523 
Q 1578 384 1822 384 
Q 2178 384 2434 671 
Q 2691 959 2691 1453 
Q 2691 1928 2437 2201 
Q 2184 2475 1800 2475 
Q 1419 2475 1153 2201 
Q 888 1928 888 1484 
z
" transform="scale(0.015625)"/>
       </defs>
       <use xlink:href="#ArialMT-36"/>
      </g>
     </g>
    </g>
    <g id="xtick_6">
     <g id="line2d_6">
      <g>
       <use xlink:href="#m62fb33eda6" x="467.372679" y="276.995625" style="fill: #262626; stroke: #262626; stroke-width: 0.8"/>
      </g>
     </g>
     <g id="text_6">
      <!-- 7 -->
      <g style="fill: #262626" transform="translate(462.367835 298.179688) scale(0.18 -0.18)">
       <defs>
        <path id="ArialMT-37" d="M 303 3981 
L 303 4522 
L 3269 4522 
L 3269 4084 
Q 2831 3619 2401 2847 
Q 1972 2075 1738 1259 
Q 1569 684 1522 0 
L 944 0 
Q 953 541 1156 1306 
Q 1359 2072 1739 2783 
Q 2119 3494 2547 3981 
L 303 3981 
z
" transform="scale(0.015625)"/>
       </defs>
       <use xlink:href="#ArialMT-37"/>
      </g>
     </g>
    </g>
    <g id="xtick_7">
     <g id="line2d_7">
      <g>
       <use xlink:href="#m62fb33eda6" x="547.086964" y="276.995625" style="fill: #262626; stroke: #262626; stroke-width: 0.8"/>
      </g>
     </g>
     <g id="text_7">
      <!-- 8 -->
      <g style="fill: #262626" transform="translate(542.082121 298.179688) scale(0.18 -0.18)">
       <defs>
        <path id="ArialMT-38" d="M 1131 2484 
Q 781 2613 612 2850 
Q 444 3088 444 3419 
Q 444 3919 803 4259 
Q 1163 4600 1759 4600 
Q 2359 4600 2725 4251 
Q 3091 3903 3091 3403 
Q 3091 3084 2923 2848 
Q 2756 2613 2416 2484 
Q 2838 2347 3058 2040 
Q 3278 1734 3278 1309 
Q 3278 722 2862 322 
Q 2447 -78 1769 -78 
Q 1091 -78 675 323 
Q 259 725 259 1325 
Q 259 1772 486 2073 
Q 713 2375 1131 2484 
z
M 1019 3438 
Q 1019 3113 1228 2906 
Q 1438 2700 1772 2700 
Q 2097 2700 2305 2904 
Q 2513 3109 2513 3406 
Q 2513 3716 2298 3927 
Q 2084 4138 1766 4138 
Q 1444 4138 1231 3931 
Q 1019 3725 1019 3438 
z
M 838 1322 
Q 838 1081 952 856 
Q 1066 631 1291 507 
Q 1516 384 1775 384 
Q 2178 384 2440 643 
Q 2703 903 2703 1303 
Q 2703 1709 2433 1975 
Q 2163 2241 1756 2241 
Q 1359 2241 1098 1978 
Q 838 1716 838 1322 
z
" transform="scale(0.015625)"/>
       </defs>
       <use xlink:href="#ArialMT-38"/>
      </g>
     </g>
    </g>
    <g id="xtick_8">
     <g id="line2d_8">
      <g>
       <use xlink:href="#m62fb33eda6" x="626.80125" y="276.995625" style="fill: #262626; stroke: #262626; stroke-width: 0.8"/>
      </g>
     </g>
     <g id="text_8">
      <!-- 9 -->
      <g style="fill: #262626" transform="translate(621.796406 298.179688) scale(0.18 -0.18)">
       <defs>
        <path id="ArialMT-39" d="M 350 1059 
L 891 1109 
Q 959 728 1153 556 
Q 1347 384 1650 384 
Q 1909 384 2104 503 
Q 2300 622 2425 820 
Q 2550 1019 2634 1356 
Q 2719 1694 2719 2044 
Q 2719 2081 2716 2156 
Q 2547 1888 2255 1720 
Q 1963 1553 1622 1553 
Q 1053 1553 659 1965 
Q 266 2378 266 3053 
Q 266 3750 677 4175 
Q 1088 4600 1706 4600 
Q 2153 4600 2523 4359 
Q 2894 4119 3086 3673 
Q 3278 3228 3278 2384 
Q 3278 1506 3087 986 
Q 2897 466 2520 194 
Q 2144 -78 1638 -78 
Q 1100 -78 759 220 
Q 419 519 350 1059 
z
M 2653 3081 
Q 2653 3566 2395 3850 
Q 2138 4134 1775 4134 
Q 1400 4134 1122 3828 
Q 844 3522 844 3034 
Q 844 2597 1108 2323 
Q 1372 2050 1759 2050 
Q 2150 2050 2401 2323 
Q 2653 2597 2653 3081 
z
" transform="scale(0.015625)"/>
       </defs>
       <use xlink:href="#ArialMT-39"/>
      </g>
     </g>
    </g>
    <g id="text_9">
     <!-- Interlayer distance ($\mathrm{\AA}$) -->
     <g style="fill: #262626" transform="translate(249.80125 324.357187) scale(0.2 -0.2)">
      <defs>
       <path id="ArialMT-49" d="M 597 0 
L 597 4581 
L 1203 4581 
L 1203 0 
L 597 0 
z
" transform="scale(0.015625)"/>
       <path id="ArialMT-6e" d="M 422 0 
L 422 3319 
L 928 3319 
L 928 2847 
Q 1294 3394 1984 3394 
Q 2284 3394 2536 3286 
Q 2788 3178 2913 3003 
Q 3038 2828 3088 2588 
Q 3119 2431 3119 2041 
L 3119 0 
L 2556 0 
L 2556 2019 
Q 2556 2363 2490 2533 
Q 2425 2703 2258 2804 
Q 2091 2906 1866 2906 
Q 1506 2906 1245 2678 
Q 984 2450 984 1813 
L 984 0 
L 422 0 
z
" transform="scale(0.015625)"/>
       <path id="ArialMT-74" d="M 1650 503 
L 1731 6 
Q 1494 -44 1306 -44 
Q 1000 -44 831 53 
Q 663 150 594 308 
Q 525 466 525 972 
L 525 2881 
L 113 2881 
L 113 3319 
L 525 3319 
L 525 4141 
L 1084 4478 
L 1084 3319 
L 1650 3319 
L 1650 2881 
L 1084 2881 
L 1084 941 
Q 1084 700 1114 631 
Q 1144 563 1211 522 
Q 1278 481 1403 481 
Q 1497 481 1650 503 
z
" transform="scale(0.015625)"/>
       <path id="ArialMT-65" d="M 2694 1069 
L 3275 997 
Q 3138 488 2766 206 
Q 2394 -75 1816 -75 
Q 1088 -75 661 373 
Q 234 822 234 1631 
Q 234 2469 665 2931 
Q 1097 3394 1784 3394 
Q 2450 3394 2872 2941 
Q 3294 2488 3294 1666 
Q 3294 1616 3291 1516 
L 816 1516 
Q 847 969 1125 678 
Q 1403 388 1819 388 
Q 2128 388 2347 550 
Q 2566 713 2694 1069 
z
M 847 1978 
L 2700 1978 
Q 2663 2397 2488 2606 
Q 2219 2931 1791 2931 
Q 1403 2931 1139 2672 
Q 875 2413 847 1978 
z
" transform="scale(0.015625)"/>
       <path id="ArialMT-72" d="M 416 0 
L 416 3319 
L 922 3319 
L 922 2816 
Q 1116 3169 1280 3281 
Q 1444 3394 1641 3394 
Q 1925 3394 2219 3213 
L 2025 2691 
Q 1819 2813 1613 2813 
Q 1428 2813 1281 2702 
Q 1134 2591 1072 2394 
Q 978 2094 978 1738 
L 978 0 
L 416 0 
z
" transform="scale(0.015625)"/>
       <path id="ArialMT-6c" d="M 409 0 
L 409 4581 
L 972 4581 
L 972 0 
L 409 0 
z
" transform="scale(0.015625)"/>
       <path id="ArialMT-61" d="M 2588 409 
Q 2275 144 1986 34 
Q 1697 -75 1366 -75 
Q 819 -75 525 192 
Q 231 459 231 875 
Q 231 1119 342 1320 
Q 453 1522 633 1644 
Q 813 1766 1038 1828 
Q 1203 1872 1538 1913 
Q 2219 1994 2541 2106 
Q 2544 2222 2544 2253 
Q 2544 2597 2384 2738 
Q 2169 2928 1744 2928 
Q 1347 2928 1158 2789 
Q 969 2650 878 2297 
L 328 2372 
Q 403 2725 575 2942 
Q 747 3159 1072 3276 
Q 1397 3394 1825 3394 
Q 2250 3394 2515 3294 
Q 2781 3194 2906 3042 
Q 3031 2891 3081 2659 
Q 3109 2516 3109 2141 
L 3109 1391 
Q 3109 606 3145 398 
Q 3181 191 3288 0 
L 2700 0 
Q 2613 175 2588 409 
z
M 2541 1666 
Q 2234 1541 1622 1453 
Q 1275 1403 1131 1340 
Q 988 1278 909 1158 
Q 831 1038 831 891 
Q 831 666 1001 516 
Q 1172 366 1500 366 
Q 1825 366 2078 508 
Q 2331 650 2450 897 
Q 2541 1088 2541 1459 
L 2541 1666 
z
" transform="scale(0.015625)"/>
       <path id="ArialMT-79" d="M 397 -1278 
L 334 -750 
Q 519 -800 656 -800 
Q 844 -800 956 -737 
Q 1069 -675 1141 -563 
Q 1194 -478 1313 -144 
Q 1328 -97 1363 -6 
L 103 3319 
L 709 3319 
L 1400 1397 
Q 1534 1031 1641 628 
Q 1738 1016 1872 1384 
L 2581 3319 
L 3144 3319 
L 1881 -56 
Q 1678 -603 1566 -809 
Q 1416 -1088 1222 -1217 
Q 1028 -1347 759 -1347 
Q 597 -1347 397 -1278 
z
" transform="scale(0.015625)"/>
       <path id="ArialMT-20" transform="scale(0.015625)"/>
       <path id="ArialMT-64" d="M 2575 0 
L 2575 419 
Q 2259 -75 1647 -75 
Q 1250 -75 917 144 
Q 584 363 401 755 
Q 219 1147 219 1656 
Q 219 2153 384 2558 
Q 550 2963 881 3178 
Q 1213 3394 1622 3394 
Q 1922 3394 2156 3267 
Q 2391 3141 2538 2938 
L 2538 4581 
L 3097 4581 
L 3097 0 
L 2575 0 
z
M 797 1656 
Q 797 1019 1065 703 
Q 1334 388 1700 388 
Q 2069 388 2326 689 
Q 2584 991 2584 1609 
Q 2584 2291 2321 2609 
Q 2059 2928 1675 2928 
Q 1300 2928 1048 2622 
Q 797 2316 797 1656 
z
" transform="scale(0.015625)"/>
       <path id="ArialMT-69" d="M 425 3934 
L 425 4581 
L 988 4581 
L 988 3934 
L 425 3934 
z
M 425 0 
L 425 3319 
L 988 3319 
L 988 0 
L 425 0 
z
" transform="scale(0.015625)"/>
       <path id="ArialMT-73" d="M 197 991 
L 753 1078 
Q 800 744 1014 566 
Q 1228 388 1613 388 
Q 2000 388 2187 545 
Q 2375 703 2375 916 
Q 2375 1106 2209 1216 
Q 2094 1291 1634 1406 
Q 1016 1563 777 1677 
Q 538 1791 414 1992 
Q 291 2194 291 2438 
Q 291 2659 392 2848 
Q 494 3038 669 3163 
Q 800 3259 1026 3326 
Q 1253 3394 1513 3394 
Q 1903 3394 2198 3281 
Q 2494 3169 2634 2976 
Q 2775 2784 2828 2463 
L 2278 2388 
Q 2241 2644 2061 2787 
Q 1881 2931 1553 2931 
Q 1166 2931 1000 2803 
Q 834 2675 834 2503 
Q 834 2394 903 2306 
Q 972 2216 1119 2156 
Q 1203 2125 1616 2013 
Q 2213 1853 2448 1751 
Q 2684 1650 2818 1456 
Q 2953 1263 2953 975 
Q 2953 694 2789 445 
Q 2625 197 2315 61 
Q 2006 -75 1616 -75 
Q 969 -75 630 194 
Q 291 463 197 991 
z
" transform="scale(0.015625)"/>
       <path id="ArialMT-63" d="M 2588 1216 
L 3141 1144 
Q 3050 572 2676 248 
Q 2303 -75 1759 -75 
Q 1078 -75 664 370 
Q 250 816 250 1647 
Q 250 2184 428 2587 
Q 606 2991 970 3192 
Q 1334 3394 1763 3394 
Q 2303 3394 2647 3120 
Q 2991 2847 3088 2344 
L 2541 2259 
Q 2463 2594 2264 2762 
Q 2066 2931 1784 2931 
Q 1359 2931 1093 2626 
Q 828 2322 828 1663 
Q 828 994 1084 691 
Q 1341 388 1753 388 
Q 2084 388 2306 591 
Q 2528 794 2588 1216 
z
" transform="scale(0.015625)"/>
       <path id="ArialMT-28" d="M 1497 -1347 
Q 1031 -759 709 28 
Q 388 816 388 1659 
Q 388 2403 628 3084 
Q 909 3875 1497 4659 
L 1900 4659 
Q 1522 4009 1400 3731 
Q 1209 3300 1100 2831 
Q 966 2247 966 1656 
Q 966 153 1900 -1347 
L 1497 -1347 
z
" transform="scale(0.015625)"/>
       <path id="DejaVuSans-c5" d="M 2663 5081 
Q 2663 5278 2523 5417 
Q 2384 5556 2188 5556 
Q 1988 5556 1852 5420 
Q 1716 5284 1716 5081 
Q 1716 4884 1853 4746 
Q 1991 4609 2188 4609 
Q 2384 4609 2523 4746 
Q 2663 4884 2663 5081 
z
M 2188 4044 
L 1338 1722 
L 3041 1722 
L 2188 4044 
z
M 1716 4366 
Q 1525 4494 1428 4673 
Q 1331 4853 1331 5081 
Q 1331 5441 1579 5691 
Q 1828 5941 2188 5941 
Q 2544 5941 2795 5689 
Q 3047 5438 3047 5081 
Q 3047 4863 2948 4678 
Q 2850 4494 2663 4366 
L 4325 0 
L 3669 0 
L 3244 1197 
L 1141 1197 
L 716 0 
L 50 0 
L 1716 4366 
z
" transform="scale(0.015625)"/>
       <path id="ArialMT-29" d="M 791 -1347 
L 388 -1347 
Q 1322 153 1322 1656 
Q 1322 2244 1188 2822 
Q 1081 3291 891 3722 
Q 769 4003 388 4659 
L 791 4659 
Q 1378 3875 1659 3084 
Q 1900 2403 1900 1659 
Q 1900 816 1576 28 
Q 1253 -759 791 -1347 
z
" transform="scale(0.015625)"/>
      </defs>
      <use xlink:href="#ArialMT-49" transform="translate(0 0.171875)"/>
      <use xlink:href="#ArialMT-6e" transform="translate(27.783203 0.171875)"/>
      <use xlink:href="#ArialMT-74" transform="translate(83.398438 0.171875)"/>
      <use xlink:href="#ArialMT-65" transform="translate(111.181641 0.171875)"/>
      <use xlink:href="#ArialMT-72" transform="translate(166.796875 0.171875)"/>
      <use xlink:href="#ArialMT-6c" transform="translate(200.097656 0.171875)"/>
      <use xlink:href="#ArialMT-61" transform="translate(222.314453 0.171875)"/>
      <use xlink:href="#ArialMT-79" transform="translate(277.929688 0.171875)"/>
      <use xlink:href="#ArialMT-65" transform="translate(327.929688 0.171875)"/>
      <use xlink:href="#ArialMT-72" transform="translate(383.544922 0.171875)"/>
      <use xlink:href="#ArialMT-20" transform="translate(416.845703 0.171875)"/>
      <use xlink:href="#ArialMT-64" transform="translate(444.628906 0.171875)"/>
      <use xlink:href="#ArialMT-69" transform="translate(500.244141 0.171875)"/>
      <use xlink:href="#ArialMT-73" transform="translate(522.460938 0.171875)"/>
      <use xlink:href="#ArialMT-74" transform="translate(572.460938 0.171875)"/>
      <use xlink:href="#ArialMT-61" transform="translate(600.244141 0.171875)"/>
      <use xlink:href="#ArialMT-6e" transform="translate(655.859375 0.171875)"/>
      <use xlink:href="#ArialMT-63" transform="translate(711.474609 0.171875)"/>
      <use xlink:href="#ArialMT-65" transform="translate(761.474609 0.171875)"/>
      <use xlink:href="#ArialMT-20" transform="translate(817.089844 0.171875)"/>
      <use xlink:href="#ArialMT-28" transform="translate(844.873047 0.171875)"/>
      <use xlink:href="#DejaVuSans-c5" transform="translate(878.173828 0.171875)"/>
      <use xlink:href="#ArialMT-29" transform="translate(946.582031 0.171875)"/>
     </g>
    </g>
   </g>
   <g id="matplotlib.axis_2">
    <g id="ytick_1">
     <g id="line2d_9">
      <defs>
       <path id="m10dda89911" d="M 0 0 
L -4.8 0 
" style="stroke: #262626; stroke-width: 0.8"/>
      </defs>
      <g>
       <use xlink:href="#m10dda89911" x="68.80125" y="254.315625" style="fill: #262626; stroke: #262626; stroke-width: 0.8"/>
      </g>
     </g>
     <g id="text_10">
      <!-- −20 -->
      <g style="fill: #262626" transform="translate(29.96875 260.757656) scale(0.18 -0.18)">
       <defs>
        <path id="ArialMT-2212" d="M 3381 1997 
L 356 1997 
L 356 2522 
L 3381 2522 
L 3381 1997 
z
" transform="scale(0.015625)"/>
        <path id="ArialMT-30" d="M 266 2259 
Q 266 3072 433 3567 
Q 600 4063 929 4331 
Q 1259 4600 1759 4600 
Q 2128 4600 2406 4451 
Q 2684 4303 2865 4023 
Q 3047 3744 3150 3342 
Q 3253 2941 3253 2259 
Q 3253 1453 3087 958 
Q 2922 463 2592 192 
Q 2263 -78 1759 -78 
Q 1097 -78 719 397 
Q 266 969 266 2259 
z
M 844 2259 
Q 844 1131 1108 757 
Q 1372 384 1759 384 
Q 2147 384 2411 759 
Q 2675 1134 2675 2259 
Q 2675 3391 2411 3762 
Q 2147 4134 1753 4134 
Q 1366 4134 1134 3806 
Q 844 3388 844 2259 
z
" transform="scale(0.015625)"/>
       </defs>
       <use xlink:href="#ArialMT-2212"/>
       <use xlink:href="#ArialMT-32" x="58.398438"/>
       <use xlink:href="#ArialMT-30" x="114.013672"/>
      </g>
     </g>
    </g>
    <g id="ytick_2">
     <g id="line2d_10">
      <g>
       <use xlink:href="#m10dda89911" x="68.80125" y="208.955625" style="fill: #262626; stroke: #262626; stroke-width: 0.8"/>
      </g>
     </g>
     <g id="text_11">
      <!-- 0 -->
      <g style="fill: #262626" transform="translate(50.491563 215.397656) scale(0.18 -0.18)">
       <use xlink:href="#ArialMT-30"/>
      </g>
     </g>
    </g>
    <g id="ytick_3">
     <g id="line2d_11">
      <g>
       <use xlink:href="#m10dda89911" x="68.80125" y="163.595625" style="fill: #262626; stroke: #262626; stroke-width: 0.8"/>
      </g>
     </g>
     <g id="text_12">
      <!-- 20 -->
      <g style="fill: #262626" transform="translate(40.481875 170.037656) scale(0.18 -0.18)">
       <use xlink:href="#ArialMT-32"/>
       <use xlink:href="#ArialMT-30" x="55.615234"/>
      </g>
     </g>
    </g>
    <g id="ytick_4">
     <g id="line2d_12">
      <g>
       <use xlink:href="#m10dda89911" x="68.80125" y="118.235625" style="fill: #262626; stroke: #262626; stroke-width: 0.8"/>
      </g>
     </g>
     <g id="text_13">
      <!-- 40 -->
      <g style="fill: #262626" transform="translate(40.481875 124.677656) scale(0.18 -0.18)">
       <use xlink:href="#ArialMT-34"/>
       <use xlink:href="#ArialMT-30" x="55.615234"/>
      </g>
     </g>
    </g>
    <g id="ytick_5">
     <g id="line2d_13">
      <g>
       <use xlink:href="#m10dda89911" x="68.80125" y="72.875625" style="fill: #262626; stroke: #262626; stroke-width: 0.8"/>
      </g>
     </g>
     <g id="text_14">
      <!-- 60 -->
      <g style="fill: #262626" transform="translate(40.481875 79.317656) scale(0.18 -0.18)">
       <use xlink:href="#ArialMT-36"/>
       <use xlink:href="#ArialMT-30" x="55.615234"/>
      </g>
     </g>
    </g>
    <g id="ytick_6">
     <g id="line2d_14">
      <g>
       <use xlink:href="#m10dda89911" x="68.80125" y="27.515625" style="fill: #262626; stroke: #262626; stroke-width: 0.8"/>
      </g>
     </g>
     <g id="text_15">
      <!-- 80 -->
      <g style="fill: #262626" transform="translate(40.481875 33.957656) scale(0.18 -0.18)">
       <use xlink:href="#ArialMT-38"/>
       <use xlink:href="#ArialMT-30" x="55.615234"/>
      </g>
     </g>
    </g>
    <g id="text_16">
     <!-- Energy (meV/atom) -->
     <g style="fill: #262626" transform="translate(21.759375 238.944687) rotate(-90) scale(0.2 -0.2)">
      <defs>
       <path id="ArialMT-45" d="M 506 0 
L 506 4581 
L 3819 4581 
L 3819 4041 
L 1113 4041 
L 1113 2638 
L 3647 2638 
L 3647 2100 
L 1113 2100 
L 1113 541 
L 3925 541 
L 3925 0 
L 506 0 
z
" transform="scale(0.015625)"/>
       <path id="ArialMT-67" d="M 319 -275 
L 866 -356 
Q 900 -609 1056 -725 
Q 1266 -881 1628 -881 
Q 2019 -881 2231 -725 
Q 2444 -569 2519 -288 
Q 2563 -116 2559 434 
Q 2191 0 1641 0 
Q 956 0 581 494 
Q 206 988 206 1678 
Q 206 2153 378 2554 
Q 550 2956 876 3175 
Q 1203 3394 1644 3394 
Q 2231 3394 2613 2919 
L 2613 3319 
L 3131 3319 
L 3131 450 
Q 3131 -325 2973 -648 
Q 2816 -972 2473 -1159 
Q 2131 -1347 1631 -1347 
Q 1038 -1347 672 -1080 
Q 306 -813 319 -275 
z
M 784 1719 
Q 784 1066 1043 766 
Q 1303 466 1694 466 
Q 2081 466 2343 764 
Q 2606 1063 2606 1700 
Q 2606 2309 2336 2618 
Q 2066 2928 1684 2928 
Q 1309 2928 1046 2623 
Q 784 2319 784 1719 
z
" transform="scale(0.015625)"/>
       <path id="ArialMT-6d" d="M 422 0 
L 422 3319 
L 925 3319 
L 925 2853 
Q 1081 3097 1340 3245 
Q 1600 3394 1931 3394 
Q 2300 3394 2536 3241 
Q 2772 3088 2869 2813 
Q 3263 3394 3894 3394 
Q 4388 3394 4653 3120 
Q 4919 2847 4919 2278 
L 4919 0 
L 4359 0 
L 4359 2091 
Q 4359 2428 4304 2576 
Q 4250 2725 4106 2815 
Q 3963 2906 3769 2906 
Q 3419 2906 3187 2673 
Q 2956 2441 2956 1928 
L 2956 0 
L 2394 0 
L 2394 2156 
Q 2394 2531 2256 2718 
Q 2119 2906 1806 2906 
Q 1569 2906 1367 2781 
Q 1166 2656 1075 2415 
Q 984 2175 984 1722 
L 984 0 
L 422 0 
z
" transform="scale(0.015625)"/>
       <path id="ArialMT-56" d="M 1803 0 
L 28 4581 
L 684 4581 
L 1875 1253 
Q 2019 853 2116 503 
Q 2222 878 2363 1253 
L 3600 4581 
L 4219 4581 
L 2425 0 
L 1803 0 
z
" transform="scale(0.015625)"/>
       <path id="ArialMT-2f" d="M 0 -78 
L 1328 4659 
L 1778 4659 
L 453 -78 
L 0 -78 
z
" transform="scale(0.015625)"/>
       <path id="ArialMT-6f" d="M 213 1659 
Q 213 2581 725 3025 
Q 1153 3394 1769 3394 
Q 2453 3394 2887 2945 
Q 3322 2497 3322 1706 
Q 3322 1066 3130 698 
Q 2938 331 2570 128 
Q 2203 -75 1769 -75 
Q 1072 -75 642 372 
Q 213 819 213 1659 
z
M 791 1659 
Q 791 1022 1069 705 
Q 1347 388 1769 388 
Q 2188 388 2466 706 
Q 2744 1025 2744 1678 
Q 2744 2294 2464 2611 
Q 2184 2928 1769 2928 
Q 1347 2928 1069 2612 
Q 791 2297 791 1659 
z
" transform="scale(0.015625)"/>
      </defs>
      <use xlink:href="#ArialMT-45"/>
      <use xlink:href="#ArialMT-6e" x="66.699219"/>
      <use xlink:href="#ArialMT-65" x="122.314453"/>
      <use xlink:href="#ArialMT-72" x="177.929688"/>
      <use xlink:href="#ArialMT-67" x="211.230469"/>
      <use xlink:href="#ArialMT-79" x="266.845703"/>
      <use xlink:href="#ArialMT-20" x="316.845703"/>
      <use xlink:href="#ArialMT-28" x="344.628906"/>
      <use xlink:href="#ArialMT-6d" x="377.929688"/>
      <use xlink:href="#ArialMT-65" x="461.230469"/>
      <use xlink:href="#ArialMT-56" x="516.845703"/>
      <use xlink:href="#ArialMT-2f" x="583.544922"/>
      <use xlink:href="#ArialMT-61" x="611.328125"/>
      <use xlink:href="#ArialMT-74" x="666.943359"/>
      <use xlink:href="#ArialMT-6f" x="694.726562"/>
      <use xlink:href="#ArialMT-6d" x="750.341797"/>
      <use xlink:href="#ArialMT-29" x="833.642578"/>
     </g>
    </g>
   </g>
   <g id="line2d_15">
    <defs>
     <path id="md246a366d4" d="M 0 4.949747 
L 4.949747 0 
L 0 -4.949747 
L -4.949747 0 
z
" style="stroke: #55a868; stroke-opacity: 0.5; stroke-linejoin: miter"/>
    </defs>
    <g clip-path="url(#p35e1efc86f)">
     <use xlink:href="#md246a366d4" x="115.279205" y="-1" style="fill: #55a868; fill-opacity: 0.5; stroke: #55a868; stroke-opacity: 0.5; stroke-linejoin: miter"/>
     <use xlink:href="#md246a366d4" x="116.629821" y="15.631305" style="fill: #55a868; fill-opacity: 0.5; stroke: #55a868; stroke-opacity: 0.5; stroke-linejoin: miter"/>
     <use xlink:href="#md246a366d4" x="124.60125" y="89.817585" style="fill: #55a868; fill-opacity: 0.5; stroke: #55a868; stroke-opacity: 0.5; stroke-linejoin: miter"/>
     <use xlink:href="#md246a366d4" x="132.572679" y="144.703185" style="fill: #55a868; fill-opacity: 0.5; stroke: #55a868; stroke-opacity: 0.5; stroke-linejoin: miter"/>
     <use xlink:href="#md246a366d4" x="140.544107" y="184.438545" style="fill: #55a868; fill-opacity: 0.5; stroke: #55a868; stroke-opacity: 0.5; stroke-linejoin: miter"/>
     <use xlink:href="#md246a366d4" x="148.515536" y="212.448345" style="fill: #55a868; fill-opacity: 0.5; stroke: #55a868; stroke-opacity: 0.5; stroke-linejoin: miter"/>
     <use xlink:href="#md246a366d4" x="156.486964" y="231.522225" style="fill: #55a868; fill-opacity: 0.5; stroke: #55a868; stroke-opacity: 0.5; stroke-linejoin: miter"/>
     <use xlink:href="#md246a366d4" x="164.458393" y="243.950865" style="fill: #55a868; fill-opacity: 0.5; stroke: #55a868; stroke-opacity: 0.5; stroke-linejoin: miter"/>
     <use xlink:href="#md246a366d4" x="172.429821" y="251.457945" style="fill: #55a868; fill-opacity: 0.5; stroke: #55a868; stroke-opacity: 0.5; stroke-linejoin: miter"/>
     <use xlink:href="#md246a366d4" x="180.40125" y="255.472305" style="fill: #55a868; fill-opacity: 0.5; stroke: #55a868; stroke-opacity: 0.5; stroke-linejoin: miter"/>
     <use xlink:href="#md246a366d4" x="188.372679" y="256.991865" style="fill: #55a868; fill-opacity: 0.5; stroke: #55a868; stroke-opacity: 0.5; stroke-linejoin: miter"/>
     <use xlink:href="#md246a366d4" x="196.344107" y="256.833105" style="fill: #55a868; fill-opacity: 0.5; stroke: #55a868; stroke-opacity: 0.5; stroke-linejoin: miter"/>
     <use xlink:href="#md246a366d4" x="204.315536" y="255.517665" style="fill: #55a868; fill-opacity: 0.5; stroke: #55a868; stroke-opacity: 0.5; stroke-linejoin: miter"/>
     <use xlink:href="#md246a366d4" x="212.286964" y="253.499145" style="fill: #55a868; fill-opacity: 0.5; stroke: #55a868; stroke-opacity: 0.5; stroke-linejoin: miter"/>
     <use xlink:href="#md246a366d4" x="220.258393" y="251.027025" style="fill: #55a868; fill-opacity: 0.5; stroke: #55a868; stroke-opacity: 0.5; stroke-linejoin: miter"/>
     <use xlink:href="#md246a366d4" x="228.229821" y="248.350785" style="fill: #55a868; fill-opacity: 0.5; stroke: #55a868; stroke-opacity: 0.5; stroke-linejoin: miter"/>
     <use xlink:href="#md246a366d4" x="236.20125" y="245.651865" style="fill: #55a868; fill-opacity: 0.5; stroke: #55a868; stroke-opacity: 0.5; stroke-linejoin: miter"/>
     <use xlink:href="#md246a366d4" x="244.172679" y="242.975625" style="fill: #55a868; fill-opacity: 0.5; stroke: #55a868; stroke-opacity: 0.5; stroke-linejoin: miter"/>
     <use xlink:href="#md246a366d4" x="252.144107" y="240.390105" style="fill: #55a868; fill-opacity: 0.5; stroke: #55a868; stroke-opacity: 0.5; stroke-linejoin: miter"/>
     <use xlink:href="#md246a366d4" x="260.115536" y="237.940665" style="fill: #55a868; fill-opacity: 0.5; stroke: #55a868; stroke-opacity: 0.5; stroke-linejoin: miter"/>
     <use xlink:href="#md246a366d4" x="268.086964" y="235.627305" style="fill: #55a868; fill-opacity: 0.5; stroke: #55a868; stroke-opacity: 0.5; stroke-linejoin: miter"/>
     <use xlink:href="#md246a366d4" x="276.058393" y="233.472705" style="fill: #55a868; fill-opacity: 0.5; stroke: #55a868; stroke-opacity: 0.5; stroke-linejoin: miter"/>
     <use xlink:href="#md246a366d4" x="284.029821" y="231.431505" style="fill: #55a868; fill-opacity: 0.5; stroke: #55a868; stroke-opacity: 0.5; stroke-linejoin: miter"/>
     <use xlink:href="#md246a366d4" x="292.00125" y="229.571745" style="fill: #55a868; fill-opacity: 0.5; stroke: #55a868; stroke-opacity: 0.5; stroke-linejoin: miter"/>
     <use xlink:href="#md246a366d4" x="299.972679" y="227.870745" style="fill: #55a868; fill-opacity: 0.5; stroke: #55a868; stroke-opacity: 0.5; stroke-linejoin: miter"/>
     <use xlink:href="#md246a366d4" x="307.944107" y="226.328505" style="fill: #55a868; fill-opacity: 0.5; stroke: #55a868; stroke-opacity: 0.5; stroke-linejoin: miter"/>
     <use xlink:href="#md246a366d4" x="315.915536" y="224.899665" style="fill: #55a868; fill-opacity: 0.5; stroke: #55a868; stroke-opacity: 0.5; stroke-linejoin: miter"/>
     <use xlink:href="#md246a366d4" x="323.886964" y="223.584225" style="fill: #55a868; fill-opacity: 0.5; stroke: #55a868; stroke-opacity: 0.5; stroke-linejoin: miter"/>
     <use xlink:href="#md246a366d4" x="331.858393" y="222.427545" style="fill: #55a868; fill-opacity: 0.5; stroke: #55a868; stroke-opacity: 0.5; stroke-linejoin: miter"/>
     <use xlink:href="#md246a366d4" x="339.829821" y="221.361585" style="fill: #55a868; fill-opacity: 0.5; stroke: #55a868; stroke-opacity: 0.5; stroke-linejoin: miter"/>
     <use xlink:href="#md246a366d4" x="347.80125" y="220.386345" style="fill: #55a868; fill-opacity: 0.5; stroke: #55a868; stroke-opacity: 0.5; stroke-linejoin: miter"/>
     <use xlink:href="#md246a366d4" x="355.772679" y="219.456465" style="fill: #55a868; fill-opacity: 0.5; stroke: #55a868; stroke-opacity: 0.5; stroke-linejoin: miter"/>
     <use xlink:href="#md246a366d4" x="363.744107" y="218.617305" style="fill: #55a868; fill-opacity: 0.5; stroke: #55a868; stroke-opacity: 0.5; stroke-linejoin: miter"/>
     <use xlink:href="#md246a366d4" x="371.715536" y="217.846185" style="fill: #55a868; fill-opacity: 0.5; stroke: #55a868; stroke-opacity: 0.5; stroke-linejoin: miter"/>
     <use xlink:href="#md246a366d4" x="379.686964" y="217.120425" style="fill: #55a868; fill-opacity: 0.5; stroke: #55a868; stroke-opacity: 0.5; stroke-linejoin: miter"/>
     <use xlink:href="#md246a366d4" x="387.658393" y="216.485385" style="fill: #55a868; fill-opacity: 0.5; stroke: #55a868; stroke-opacity: 0.5; stroke-linejoin: miter"/>
     <use xlink:href="#md246a366d4" x="467.372679" y="212.675145" style="fill: #55a868; fill-opacity: 0.5; stroke: #55a868; stroke-opacity: 0.5; stroke-linejoin: miter"/>
     <use xlink:href="#md246a366d4" x="547.086964" y="210.860745" style="fill: #55a868; fill-opacity: 0.5; stroke: #55a868; stroke-opacity: 0.5; stroke-linejoin: miter"/>
     <use xlink:href="#md246a366d4" x="626.80125" y="209.794785" style="fill: #55a868; fill-opacity: 0.5; stroke: #55a868; stroke-opacity: 0.5; stroke-linejoin: miter"/>
     <use xlink:href="#md246a366d4" x="706.515536" y="209.386545" style="fill: #55a868; fill-opacity: 0.5; stroke: #55a868; stroke-opacity: 0.5; stroke-linejoin: miter"/>
     <use xlink:href="#md246a366d4" x="786.229821" y="208.955625" style="fill: #55a868; fill-opacity: 0.5; stroke: #55a868; stroke-opacity: 0.5; stroke-linejoin: miter"/>
     <use xlink:href="#md246a366d4" x="865.944107" y="208.887585" style="fill: #55a868; fill-opacity: 0.5; stroke: #55a868; stroke-opacity: 0.5; stroke-linejoin: miter"/>
     <use xlink:href="#md246a366d4" x="945.658393" y="208.751505" style="fill: #55a868; fill-opacity: 0.5; stroke: #55a868; stroke-opacity: 0.5; stroke-linejoin: miter"/>
     <use xlink:href="#md246a366d4" x="1025.372679" y="208.547385" style="fill: #55a868; fill-opacity: 0.5; stroke: #55a868; stroke-opacity: 0.5; stroke-linejoin: miter"/>
     <use xlink:href="#md246a366d4" x="1105.086964" y="208.570065" style="fill: #55a868; fill-opacity: 0.5; stroke: #55a868; stroke-opacity: 0.5; stroke-linejoin: miter"/>
    </g>
   </g>
   <g id="line2d_16">
    <path d="M 115.300735 -1 
L 116.629821 15.412189 
L 124.60125 89.715377 
L 132.572679 144.601583 
L 140.544107 184.11929 
L 148.515536 211.806268 
L 156.486964 230.842163 
L 164.458393 243.466086 
L 172.429821 250.949026 
L 180.40125 254.91641 
L 188.372679 256.533871 
L 196.344107 256.414268 
L 204.315536 255.016128 
L 212.286964 252.863007 
L 220.258393 250.314183 
L 228.229821 247.630941 
L 236.20125 244.934331 
L 244.172679 242.264472 
L 252.144107 239.690172 
L 260.115536 237.266731 
L 268.086964 235.032643 
L 276.058393 233.002753 
L 284.029821 231.133191 
L 292.00125 229.394926 
L 299.972679 227.765605 
L 307.944107 226.225784 
L 315.915536 224.747021 
L 323.886964 223.316915 
L 331.858393 221.953234 
L 339.829821 220.686721 
L 347.80125 219.554929 
L 355.772679 218.591206 
L 363.744107 217.800751 
L 371.715536 217.174338 
L 379.686964 216.687381 
L 387.658393 216.300285 
L 467.372679 211.556244 
L 547.086964 208.955625 
L 626.80125 208.955625 
L 640.006094 208.955625 
" clip-path="url(#p35e1efc86f)" style="fill: none; stroke: #55a868; stroke-opacity: 0.8; stroke-width: 2; stroke-linecap: round"/>
   </g>
   <g id="line2d_17">
    <defs>
     <path id="mcd502cf9fd" d="M 0 -3.5 
L -3.5 3.5 
L 3.5 3.5 
z
" style="stroke: #8172b3; stroke-opacity: 0.5; stroke-linejoin: miter"/>
    </defs>
    <g clip-path="url(#p35e1efc86f)">
     <use xlink:href="#mcd502cf9fd" x="112.183072" y="-1" style="fill: #8172b3; fill-opacity: 0.5; stroke: #8172b3; stroke-opacity: 0.5; stroke-linejoin: miter"/>
     <use xlink:href="#mcd502cf9fd" x="116.629821" y="49.379145" style="fill: #8172b3; fill-opacity: 0.5; stroke: #8172b3; stroke-opacity: 0.5; stroke-linejoin: miter"/>
     <use xlink:href="#mcd502cf9fd" x="124.60125" y="116.126385" style="fill: #8172b3; fill-opacity: 0.5; stroke: #8172b3; stroke-opacity: 0.5; stroke-linejoin: miter"/>
     <use xlink:href="#mcd502cf9fd" x="132.572679" y="164.684265" style="fill: #8172b3; fill-opacity: 0.5; stroke: #8172b3; stroke-opacity: 0.5; stroke-linejoin: miter"/>
     <use xlink:href="#mcd502cf9fd" x="140.544107" y="199.271265" style="fill: #8172b3; fill-opacity: 0.5; stroke: #8172b3; stroke-opacity: 0.5; stroke-linejoin: miter"/>
     <use xlink:href="#mcd502cf9fd" x="148.515536" y="223.266705" style="fill: #8172b3; fill-opacity: 0.5; stroke: #8172b3; stroke-opacity: 0.5; stroke-linejoin: miter"/>
     <use xlink:href="#mcd502cf9fd" x="156.486964" y="239.324145" style="fill: #8172b3; fill-opacity: 0.5; stroke: #8172b3; stroke-opacity: 0.5; stroke-linejoin: miter"/>
     <use xlink:href="#mcd502cf9fd" x="164.458393" y="249.507465" style="fill: #8172b3; fill-opacity: 0.5; stroke: #8172b3; stroke-opacity: 0.5; stroke-linejoin: miter"/>
     <use xlink:href="#mcd502cf9fd" x="172.429821" y="255.426945" style="fill: #8172b3; fill-opacity: 0.5; stroke: #8172b3; stroke-opacity: 0.5; stroke-linejoin: miter"/>
     <use xlink:href="#mcd502cf9fd" x="180.40125" y="258.261945" style="fill: #8172b3; fill-opacity: 0.5; stroke: #8172b3; stroke-opacity: 0.5; stroke-linejoin: miter"/>
     <use xlink:href="#mcd502cf9fd" x="188.372679" y="258.942345" style="fill: #8172b3; fill-opacity: 0.5; stroke: #8172b3; stroke-opacity: 0.5; stroke-linejoin: miter"/>
     <use xlink:href="#mcd502cf9fd" x="196.344107" y="258.171225" style="fill: #8172b3; fill-opacity: 0.5; stroke: #8172b3; stroke-opacity: 0.5; stroke-linejoin: miter"/>
     <use xlink:href="#mcd502cf9fd" x="204.315536" y="256.447545" style="fill: #8172b3; fill-opacity: 0.5; stroke: #8172b3; stroke-opacity: 0.5; stroke-linejoin: miter"/>
     <use xlink:href="#mcd502cf9fd" x="212.286964" y="254.134185" style="fill: #8172b3; fill-opacity: 0.5; stroke: #8172b3; stroke-opacity: 0.5; stroke-linejoin: miter"/>
     <use xlink:href="#mcd502cf9fd" x="220.258393" y="251.480625" style="fill: #8172b3; fill-opacity: 0.5; stroke: #8172b3; stroke-opacity: 0.5; stroke-linejoin: miter"/>
     <use xlink:href="#mcd502cf9fd" x="228.229821" y="248.645625" style="fill: #8172b3; fill-opacity: 0.5; stroke: #8172b3; stroke-opacity: 0.5; stroke-linejoin: miter"/>
     <use xlink:href="#mcd502cf9fd" x="236.20125" y="245.787945" style="fill: #8172b3; fill-opacity: 0.5; stroke: #8172b3; stroke-opacity: 0.5; stroke-linejoin: miter"/>
     <use xlink:href="#mcd502cf9fd" x="244.172679" y="242.975625" style="fill: #8172b3; fill-opacity: 0.5; stroke: #8172b3; stroke-opacity: 0.5; stroke-linejoin: miter"/>
     <use xlink:href="#mcd502cf9fd" x="252.144107" y="240.299385" style="fill: #8172b3; fill-opacity: 0.5; stroke: #8172b3; stroke-opacity: 0.5; stroke-linejoin: miter"/>
     <use xlink:href="#mcd502cf9fd" x="260.115536" y="237.781905" style="fill: #8172b3; fill-opacity: 0.5; stroke: #8172b3; stroke-opacity: 0.5; stroke-linejoin: miter"/>
     <use xlink:href="#mcd502cf9fd" x="268.086964" y="235.468545" style="fill: #8172b3; fill-opacity: 0.5; stroke: #8172b3; stroke-opacity: 0.5; stroke-linejoin: miter"/>
     <use xlink:href="#mcd502cf9fd" x="276.058393" y="233.291265" style="fill: #8172b3; fill-opacity: 0.5; stroke: #8172b3; stroke-opacity: 0.5; stroke-linejoin: miter"/>
     <use xlink:href="#mcd502cf9fd" x="284.029821" y="231.272745" style="fill: #8172b3; fill-opacity: 0.5; stroke: #8172b3; stroke-opacity: 0.5; stroke-linejoin: miter"/>
     <use xlink:href="#mcd502cf9fd" x="292.00125" y="229.390305" style="fill: #8172b3; fill-opacity: 0.5; stroke: #8172b3; stroke-opacity: 0.5; stroke-linejoin: miter"/>
     <use xlink:href="#mcd502cf9fd" x="299.972679" y="227.666625" style="fill: #8172b3; fill-opacity: 0.5; stroke: #8172b3; stroke-opacity: 0.5; stroke-linejoin: miter"/>
     <use xlink:href="#mcd502cf9fd" x="307.944107" y="226.147065" style="fill: #8172b3; fill-opacity: 0.5; stroke: #8172b3; stroke-opacity: 0.5; stroke-linejoin: miter"/>
     <use xlink:href="#mcd502cf9fd" x="315.915536" y="224.740905" style="fill: #8172b3; fill-opacity: 0.5; stroke: #8172b3; stroke-opacity: 0.5; stroke-linejoin: miter"/>
     <use xlink:href="#mcd502cf9fd" x="323.886964" y="223.470825" style="fill: #8172b3; fill-opacity: 0.5; stroke: #8172b3; stroke-opacity: 0.5; stroke-linejoin: miter"/>
     <use xlink:href="#mcd502cf9fd" x="331.858393" y="222.336825" style="fill: #8172b3; fill-opacity: 0.5; stroke: #8172b3; stroke-opacity: 0.5; stroke-linejoin: miter"/>
     <use xlink:href="#mcd502cf9fd" x="339.829821" y="221.270865" style="fill: #8172b3; fill-opacity: 0.5; stroke: #8172b3; stroke-opacity: 0.5; stroke-linejoin: miter"/>
     <use xlink:href="#mcd502cf9fd" x="347.80125" y="220.272945" style="fill: #8172b3; fill-opacity: 0.5; stroke: #8172b3; stroke-opacity: 0.5; stroke-linejoin: miter"/>
     <use xlink:href="#mcd502cf9fd" x="355.772679" y="219.365745" style="fill: #8172b3; fill-opacity: 0.5; stroke: #8172b3; stroke-opacity: 0.5; stroke-linejoin: miter"/>
     <use xlink:href="#mcd502cf9fd" x="363.744107" y="218.549265" style="fill: #8172b3; fill-opacity: 0.5; stroke: #8172b3; stroke-opacity: 0.5; stroke-linejoin: miter"/>
     <use xlink:href="#mcd502cf9fd" x="371.715536" y="217.800825" style="fill: #8172b3; fill-opacity: 0.5; stroke: #8172b3; stroke-opacity: 0.5; stroke-linejoin: miter"/>
     <use xlink:href="#mcd502cf9fd" x="379.686964" y="217.120425" style="fill: #8172b3; fill-opacity: 0.5; stroke: #8172b3; stroke-opacity: 0.5; stroke-linejoin: miter"/>
     <use xlink:href="#mcd502cf9fd" x="387.658393" y="216.485385" style="fill: #8172b3; fill-opacity: 0.5; stroke: #8172b3; stroke-opacity: 0.5; stroke-linejoin: miter"/>
     <use xlink:href="#mcd502cf9fd" x="467.372679" y="212.471025" style="fill: #8172b3; fill-opacity: 0.5; stroke: #8172b3; stroke-opacity: 0.5; stroke-linejoin: miter"/>
     <use xlink:href="#mcd502cf9fd" x="547.086964" y="210.770025" style="fill: #8172b3; fill-opacity: 0.5; stroke: #8172b3; stroke-opacity: 0.5; stroke-linejoin: miter"/>
     <use xlink:href="#mcd502cf9fd" x="626.80125" y="209.817465" style="fill: #8172b3; fill-opacity: 0.5; stroke: #8172b3; stroke-opacity: 0.5; stroke-linejoin: miter"/>
     <use xlink:href="#mcd502cf9fd" x="706.515536" y="209.205105" style="fill: #8172b3; fill-opacity: 0.5; stroke: #8172b3; stroke-opacity: 0.5; stroke-linejoin: miter"/>
     <use xlink:href="#mcd502cf9fd" x="786.229821" y="208.955625" style="fill: #8172b3; fill-opacity: 0.5; stroke: #8172b3; stroke-opacity: 0.5; stroke-linejoin: miter"/>
     <use xlink:href="#mcd502cf9fd" x="865.944107" y="208.683465" style="fill: #8172b3; fill-opacity: 0.5; stroke: #8172b3; stroke-opacity: 0.5; stroke-linejoin: miter"/>
     <use xlink:href="#mcd502cf9fd" x="945.658393" y="208.660785" style="fill: #8172b3; fill-opacity: 0.5; stroke: #8172b3; stroke-opacity: 0.5; stroke-linejoin: miter"/>
     <use xlink:href="#mcd502cf9fd" x="1025.372679" y="208.547385" style="fill: #8172b3; fill-opacity: 0.5; stroke: #8172b3; stroke-opacity: 0.5; stroke-linejoin: miter"/>
     <use xlink:href="#mcd502cf9fd" x="1105.086964" y="208.411305" style="fill: #8172b3; fill-opacity: 0.5; stroke: #8172b3; stroke-opacity: 0.5; stroke-linejoin: miter"/>
    </g>
   </g>
   <g id="line2d_18">
    <path d="M 112.229415 -1 
L 116.629821 48.988589 
L 124.60125 115.434231 
L 132.572679 163.681268 
L 140.544107 198.445937 
L 148.515536 222.582996 
L 156.486964 238.55519 
L 164.458393 248.505452 
L 172.429821 254.094042 
L 180.40125 257.061605 
L 188.372679 258.179834 
L 196.344107 257.595541 
L 204.315536 255.726446 
L 212.286964 253.230534 
L 220.258393 250.458786 
L 228.229821 247.650181 
L 236.20125 244.885775 
L 244.172679 242.188172 
L 252.144107 239.653006 
L 260.115536 237.335416 
L 268.086964 235.249701 
L 276.058393 233.372289 
L 284.029821 231.611903 
L 292.00125 229.910045 
L 299.972679 228.236138 
L 307.944107 226.582074 
L 315.915536 224.947057 
L 323.886964 223.351453 
L 331.858393 221.84271 
L 339.829821 220.472805 
L 347.80125 219.288039 
L 355.772679 218.318043 
L 363.744107 217.556053 
L 371.715536 216.977175 
L 379.686964 216.541814 
L 387.658393 216.199257 
L 467.372679 211.588629 
L 547.086964 208.955625 
L 626.80125 208.955625 
L 640.006094 208.955625 
" clip-path="url(#p35e1efc86f)" style="fill: none; stroke: #8172b3; stroke-opacity: 0.8; stroke-width: 2; stroke-linecap: round"/>
   </g>
   <g id="line2d_19">
    <defs>
     <path id="m23aef992ad" d="M -3.5 3.5 
L 3.5 -3.5 
M -3.5 -3.5 
L 3.5 3.5 
" style="stroke: #1a1a1a; stroke-opacity: 0.5"/>
    </defs>
    <g clip-path="url(#p35e1efc86f)">
     <use xlink:href="#m23aef992ad" x="106.857567" y="-1" style="fill: #1a1a1a; fill-opacity: 0.5; stroke: #1a1a1a; stroke-opacity: 0.5"/>
     <use xlink:href="#m23aef992ad" x="108.658393" y="21.959025" style="fill: #1a1a1a; fill-opacity: 0.5; stroke: #1a1a1a; stroke-opacity: 0.5"/>
     <use xlink:href="#m23aef992ad" x="116.629821" y="97.347345" style="fill: #1a1a1a; fill-opacity: 0.5; stroke: #1a1a1a; stroke-opacity: 0.5"/>
     <use xlink:href="#m23aef992ad" x="124.60125" y="152.459745" style="fill: #1a1a1a; fill-opacity: 0.5; stroke: #1a1a1a; stroke-opacity: 0.5"/>
     <use xlink:href="#m23aef992ad" x="132.572679" y="191.968305" style="fill: #1a1a1a; fill-opacity: 0.5; stroke: #1a1a1a; stroke-opacity: 0.5"/>
     <use xlink:href="#m23aef992ad" x="140.544107" y="219.660585" style="fill: #1a1a1a; fill-opacity: 0.5; stroke: #1a1a1a; stroke-opacity: 0.5"/>
     <use xlink:href="#m23aef992ad" x="148.515536" y="238.394265" style="fill: #1a1a1a; fill-opacity: 0.5; stroke: #1a1a1a; stroke-opacity: 0.5"/>
     <use xlink:href="#m23aef992ad" x="156.486964" y="250.482705" style="fill: #1a1a1a; fill-opacity: 0.5; stroke: #1a1a1a; stroke-opacity: 0.5"/>
     <use xlink:href="#m23aef992ad" x="164.458393" y="257.717625" style="fill: #1a1a1a; fill-opacity: 0.5; stroke: #1a1a1a; stroke-opacity: 0.5"/>
     <use xlink:href="#m23aef992ad" x="172.429821" y="261.414465" style="fill: #1a1a1a; fill-opacity: 0.5; stroke: #1a1a1a; stroke-opacity: 0.5"/>
     <use xlink:href="#m23aef992ad" x="180.40125" y="262.639185" style="fill: #1a1a1a; fill-opacity: 0.5; stroke: #1a1a1a; stroke-opacity: 0.5"/>
     <use xlink:href="#m23aef992ad" x="188.372679" y="262.117545" style="fill: #1a1a1a; fill-opacity: 0.5; stroke: #1a1a1a; stroke-opacity: 0.5"/>
     <use xlink:href="#m23aef992ad" x="196.344107" y="260.461905" style="fill: #1a1a1a; fill-opacity: 0.5; stroke: #1a1a1a; stroke-opacity: 0.5"/>
     <use xlink:href="#m23aef992ad" x="204.315536" y="258.080505" style="fill: #1a1a1a; fill-opacity: 0.5; stroke: #1a1a1a; stroke-opacity: 0.5"/>
     <use xlink:href="#m23aef992ad" x="212.286964" y="255.313545" style="fill: #1a1a1a; fill-opacity: 0.5; stroke: #1a1a1a; stroke-opacity: 0.5"/>
     <use xlink:href="#m23aef992ad" x="220.258393" y="252.319785" style="fill: #1a1a1a; fill-opacity: 0.5; stroke: #1a1a1a; stroke-opacity: 0.5"/>
     <use xlink:href="#m23aef992ad" x="228.229821" y="249.280665" style="fill: #1a1a1a; fill-opacity: 0.5; stroke: #1a1a1a; stroke-opacity: 0.5"/>
     <use xlink:href="#m23aef992ad" x="236.20125" y="246.264225" style="fill: #1a1a1a; fill-opacity: 0.5; stroke: #1a1a1a; stroke-opacity: 0.5"/>
     <use xlink:href="#m23aef992ad" x="244.172679" y="243.383865" style="fill: #1a1a1a; fill-opacity: 0.5; stroke: #1a1a1a; stroke-opacity: 0.5"/>
     <use xlink:href="#m23aef992ad" x="252.144107" y="240.639585" style="fill: #1a1a1a; fill-opacity: 0.5; stroke: #1a1a1a; stroke-opacity: 0.5"/>
     <use xlink:href="#m23aef992ad" x="260.115536" y="238.054065" style="fill: #1a1a1a; fill-opacity: 0.5; stroke: #1a1a1a; stroke-opacity: 0.5"/>
     <use xlink:href="#m23aef992ad" x="268.086964" y="235.649985" style="fill: #1a1a1a; fill-opacity: 0.5; stroke: #1a1a1a; stroke-opacity: 0.5"/>
     <use xlink:href="#m23aef992ad" x="276.058393" y="233.427345" style="fill: #1a1a1a; fill-opacity: 0.5; stroke: #1a1a1a; stroke-opacity: 0.5"/>
     <use xlink:href="#m23aef992ad" x="284.029821" y="231.386145" style="fill: #1a1a1a; fill-opacity: 0.5; stroke: #1a1a1a; stroke-opacity: 0.5"/>
     <use xlink:href="#m23aef992ad" x="292.00125" y="229.503705" style="fill: #1a1a1a; fill-opacity: 0.5; stroke: #1a1a1a; stroke-opacity: 0.5"/>
     <use xlink:href="#m23aef992ad" x="299.972679" y="227.780025" style="fill: #1a1a1a; fill-opacity: 0.5; stroke: #1a1a1a; stroke-opacity: 0.5"/>
     <use xlink:href="#m23aef992ad" x="307.944107" y="226.215105" style="fill: #1a1a1a; fill-opacity: 0.5; stroke: #1a1a1a; stroke-opacity: 0.5"/>
     <use xlink:href="#m23aef992ad" x="315.915536" y="224.763585" style="fill: #1a1a1a; fill-opacity: 0.5; stroke: #1a1a1a; stroke-opacity: 0.5"/>
     <use xlink:href="#m23aef992ad" x="323.886964" y="223.448145" style="fill: #1a1a1a; fill-opacity: 0.5; stroke: #1a1a1a; stroke-opacity: 0.5"/>
     <use xlink:href="#m23aef992ad" x="331.858393" y="222.268785" style="fill: #1a1a1a; fill-opacity: 0.5; stroke: #1a1a1a; stroke-opacity: 0.5"/>
     <use xlink:href="#m23aef992ad" x="339.829821" y="221.180145" style="fill: #1a1a1a; fill-opacity: 0.5; stroke: #1a1a1a; stroke-opacity: 0.5"/>
     <use xlink:href="#m23aef992ad" x="347.80125" y="220.204905" style="fill: #1a1a1a; fill-opacity: 0.5; stroke: #1a1a1a; stroke-opacity: 0.5"/>
     <use xlink:href="#m23aef992ad" x="355.772679" y="219.297705" style="fill: #1a1a1a; fill-opacity: 0.5; stroke: #1a1a1a; stroke-opacity: 0.5"/>
     <use xlink:href="#m23aef992ad" x="363.744107" y="218.503905" style="fill: #1a1a1a; fill-opacity: 0.5; stroke: #1a1a1a; stroke-opacity: 0.5"/>
     <use xlink:href="#m23aef992ad" x="371.715536" y="217.755465" style="fill: #1a1a1a; fill-opacity: 0.5; stroke: #1a1a1a; stroke-opacity: 0.5"/>
     <use xlink:href="#m23aef992ad" x="379.686964" y="217.097745" style="fill: #1a1a1a; fill-opacity: 0.5; stroke: #1a1a1a; stroke-opacity: 0.5"/>
     <use xlink:href="#m23aef992ad" x="387.658393" y="216.485385" style="fill: #1a1a1a; fill-opacity: 0.5; stroke: #1a1a1a; stroke-opacity: 0.5"/>
     <use xlink:href="#m23aef992ad" x="467.372679" y="212.539065" style="fill: #1a1a1a; fill-opacity: 0.5; stroke: #1a1a1a; stroke-opacity: 0.5"/>
     <use xlink:href="#m23aef992ad" x="547.086964" y="210.679305" style="fill: #1a1a1a; fill-opacity: 0.5; stroke: #1a1a1a; stroke-opacity: 0.5"/>
     <use xlink:href="#m23aef992ad" x="626.80125" y="209.817465" style="fill: #1a1a1a; fill-opacity: 0.5; stroke: #1a1a1a; stroke-opacity: 0.5"/>
     <use xlink:href="#m23aef992ad" x="706.515536" y="209.250465" style="fill: #1a1a1a; fill-opacity: 0.5; stroke: #1a1a1a; stroke-opacity: 0.5"/>
     <use xlink:href="#m23aef992ad" x="786.229821" y="208.955625" style="fill: #1a1a1a; fill-opacity: 0.5; stroke: #1a1a1a; stroke-opacity: 0.5"/>
     <use xlink:href="#m23aef992ad" x="865.944107" y="208.774185" style="fill: #1a1a1a; fill-opacity: 0.5; stroke: #1a1a1a; stroke-opacity: 0.5"/>
     <use xlink:href="#m23aef992ad" x="945.658393" y="208.570065" style="fill: #1a1a1a; fill-opacity: 0.5; stroke: #1a1a1a; stroke-opacity: 0.5"/>
     <use xlink:href="#m23aef992ad" x="1025.372679" y="208.547385" style="fill: #1a1a1a; fill-opacity: 0.5; stroke: #1a1a1a; stroke-opacity: 0.5"/>
     <use xlink:href="#m23aef992ad" x="1105.086964" y="208.456665" style="fill: #1a1a1a; fill-opacity: 0.5; stroke: #1a1a1a; stroke-opacity: 0.5"/>
    </g>
   </g>
   <g id="line2d_20">
    <path d="M 108.772438 -1 
L 116.629821 79.977147 
L 124.60125 141.948849 
L 132.572679 187.599377 
L 140.544107 218.981798 
L 148.515536 239.072307 
L 156.486964 251.104522 
L 164.458393 257.711481 
L 172.429821 260.772074 
L 180.40125 261.644505 
L 188.372679 261.232252 
L 196.344107 259.911761 
L 204.315536 257.705164 
L 212.286964 254.96948 
L 220.258393 252.066803 
L 228.229821 249.075083 
L 236.20125 246.043419 
L 244.172679 243.069005 
L 252.144107 240.218554 
L 260.115536 237.542523 
L 268.086964 235.074469 
L 276.058393 232.826379 
L 284.029821 230.788343 
L 292.00125 228.932835 
L 299.972679 227.228577 
L 307.944107 225.637919 
L 315.915536 224.142708 
L 323.886964 222.737057 
L 331.858393 221.432569 
L 339.829821 220.254432 
L 347.80125 219.239906 
L 355.772679 218.413273 
L 363.744107 217.765841 
L 371.715536 217.263203 
L 379.686964 216.869249 
L 387.658393 216.528811 
L 467.372679 211.516421 
L 547.086964 208.955625 
L 626.80125 208.955625 
L 640.006094 208.955625 
" clip-path="url(#p35e1efc86f)" style="fill: none; stroke: #1a1a1a; stroke-opacity: 0.6; stroke-width: 2; stroke-linecap: round"/>
   </g>
   <g id="line2d_21">
    <defs>
     <path id="m0a46984c03" d="M 0 4 
C 1.060812 4 2.078319 3.578535 2.828427 2.828427 
C 3.578535 2.078319 4 1.060812 4 0 
C 4 -1.060812 3.578535 -2.078319 2.828427 -2.828427 
C 2.078319 -3.578535 1.060812 -4 0 -4 
C -1.060812 -4 -2.078319 -3.578535 -2.828427 -2.828427 
C -3.578535 -2.078319 -4 -1.060812 -4 0 
C -4 1.060812 -3.578535 2.078319 -2.828427 2.828427 
C -2.078319 3.578535 -1.060812 4 0 4 
z
" style="stroke: #bf4045; stroke-opacity: 0.5"/>
    </defs>
    <g clip-path="url(#p35e1efc86f)">
     <use xlink:href="#m0a46984c03" x="101.129886" y="-1" style="fill: #bf4045; fill-opacity: 0.5; stroke: #bf4045; stroke-opacity: 0.5"/>
     <use xlink:href="#m0a46984c03" x="108.658393" y="80.609505" style="fill: #bf4045; fill-opacity: 0.5; stroke: #bf4045; stroke-opacity: 0.5"/>
     <use xlink:href="#m0a46984c03" x="116.629821" y="143.206305" style="fill: #bf4045; fill-opacity: 0.5; stroke: #bf4045; stroke-opacity: 0.5"/>
     <use xlink:href="#m0a46984c03" x="124.60125" y="187.817865" style="fill: #bf4045; fill-opacity: 0.5; stroke: #bf4045; stroke-opacity: 0.5"/>
     <use xlink:href="#m0a46984c03" x="132.572679" y="218.912145" style="fill: #bf4045; fill-opacity: 0.5; stroke: #bf4045; stroke-opacity: 0.5"/>
     <use xlink:href="#m0a46984c03" x="140.544107" y="239.913825" style="fill: #bf4045; fill-opacity: 0.5; stroke: #bf4045; stroke-opacity: 0.5"/>
     <use xlink:href="#m0a46984c03" x="148.515536" y="253.476465" style="fill: #bf4045; fill-opacity: 0.5; stroke: #bf4045; stroke-opacity: 0.5"/>
     <use xlink:href="#m0a46984c03" x="156.486964" y="261.618585" style="fill: #bf4045; fill-opacity: 0.5; stroke: #bf4045; stroke-opacity: 0.5"/>
     <use xlink:href="#m0a46984c03" x="164.458393" y="265.905105" style="fill: #bf4045; fill-opacity: 0.5; stroke: #bf4045; stroke-opacity: 0.5"/>
     <use xlink:href="#m0a46984c03" x="172.429821" y="267.379305" style="fill: #bf4045; fill-opacity: 0.5; stroke: #bf4045; stroke-opacity: 0.5"/>
     <use xlink:href="#m0a46984c03" x="180.40125" y="266.971065" style="fill: #bf4045; fill-opacity: 0.5; stroke: #bf4045; stroke-opacity: 0.5"/>
     <use xlink:href="#m0a46984c03" x="188.372679" y="265.247385" style="fill: #bf4045; fill-opacity: 0.5; stroke: #bf4045; stroke-opacity: 0.5"/>
     <use xlink:href="#m0a46984c03" x="196.344107" y="262.729905" style="fill: #bf4045; fill-opacity: 0.5; stroke: #bf4045; stroke-opacity: 0.5"/>
     <use xlink:href="#m0a46984c03" x="204.315536" y="259.713465" style="fill: #bf4045; fill-opacity: 0.5; stroke: #bf4045; stroke-opacity: 0.5"/>
     <use xlink:href="#m0a46984c03" x="212.286964" y="256.447545" style="fill: #bf4045; fill-opacity: 0.5; stroke: #bf4045; stroke-opacity: 0.5"/>
     <use xlink:href="#m0a46984c03" x="220.258393" y="253.113585" style="fill: #bf4045; fill-opacity: 0.5; stroke: #bf4045; stroke-opacity: 0.5"/>
     <use xlink:href="#m0a46984c03" x="228.229821" y="249.824985" style="fill: #bf4045; fill-opacity: 0.5; stroke: #bf4045; stroke-opacity: 0.5"/>
     <use xlink:href="#m0a46984c03" x="236.20125" y="246.672465" style="fill: #bf4045; fill-opacity: 0.5; stroke: #bf4045; stroke-opacity: 0.5"/>
     <use xlink:href="#m0a46984c03" x="244.172679" y="243.633345" style="fill: #bf4045; fill-opacity: 0.5; stroke: #bf4045; stroke-opacity: 0.5"/>
     <use xlink:href="#m0a46984c03" x="252.144107" y="240.798345" style="fill: #bf4045; fill-opacity: 0.5; stroke: #bf4045; stroke-opacity: 0.5"/>
     <use xlink:href="#m0a46984c03" x="260.115536" y="238.190145" style="fill: #bf4045; fill-opacity: 0.5; stroke: #bf4045; stroke-opacity: 0.5"/>
     <use xlink:href="#m0a46984c03" x="268.086964" y="235.763385" style="fill: #bf4045; fill-opacity: 0.5; stroke: #bf4045; stroke-opacity: 0.5"/>
     <use xlink:href="#m0a46984c03" x="276.058393" y="233.495385" style="fill: #bf4045; fill-opacity: 0.5; stroke: #bf4045; stroke-opacity: 0.5"/>
     <use xlink:href="#m0a46984c03" x="284.029821" y="231.408825" style="fill: #bf4045; fill-opacity: 0.5; stroke: #bf4045; stroke-opacity: 0.5"/>
     <use xlink:href="#m0a46984c03" x="292.00125" y="229.481025" style="fill: #bf4045; fill-opacity: 0.5; stroke: #bf4045; stroke-opacity: 0.5"/>
     <use xlink:href="#m0a46984c03" x="299.972679" y="227.734665" style="fill: #bf4045; fill-opacity: 0.5; stroke: #bf4045; stroke-opacity: 0.5"/>
     <use xlink:href="#m0a46984c03" x="307.944107" y="226.124385" style="fill: #bf4045; fill-opacity: 0.5; stroke: #bf4045; stroke-opacity: 0.5"/>
     <use xlink:href="#m0a46984c03" x="315.915536" y="224.695545" style="fill: #bf4045; fill-opacity: 0.5; stroke: #bf4045; stroke-opacity: 0.5"/>
     <use xlink:href="#m0a46984c03" x="323.886964" y="223.402785" style="fill: #bf4045; fill-opacity: 0.5; stroke: #bf4045; stroke-opacity: 0.5"/>
     <use xlink:href="#m0a46984c03" x="331.858393" y="222.223425" style="fill: #bf4045; fill-opacity: 0.5; stroke: #bf4045; stroke-opacity: 0.5"/>
     <use xlink:href="#m0a46984c03" x="339.829821" y="221.134785" style="fill: #bf4045; fill-opacity: 0.5; stroke: #bf4045; stroke-opacity: 0.5"/>
     <use xlink:href="#m0a46984c03" x="347.80125" y="220.136865" style="fill: #bf4045; fill-opacity: 0.5; stroke: #bf4045; stroke-opacity: 0.5"/>
     <use xlink:href="#m0a46984c03" x="355.772679" y="219.229665" style="fill: #bf4045; fill-opacity: 0.5; stroke: #bf4045; stroke-opacity: 0.5"/>
     <use xlink:href="#m0a46984c03" x="363.744107" y="218.435865" style="fill: #bf4045; fill-opacity: 0.5; stroke: #bf4045; stroke-opacity: 0.5"/>
     <use xlink:href="#m0a46984c03" x="371.715536" y="217.710105" style="fill: #bf4045; fill-opacity: 0.5; stroke: #bf4045; stroke-opacity: 0.5"/>
     <use xlink:href="#m0a46984c03" x="379.686964" y="217.075065" style="fill: #bf4045; fill-opacity: 0.5; stroke: #bf4045; stroke-opacity: 0.5"/>
     <use xlink:href="#m0a46984c03" x="387.658393" y="216.485385" style="fill: #bf4045; fill-opacity: 0.5; stroke: #bf4045; stroke-opacity: 0.5"/>
     <use xlink:href="#m0a46984c03" x="467.372679" y="212.539065" style="fill: #bf4045; fill-opacity: 0.5; stroke: #bf4045; stroke-opacity: 0.5"/>
     <use xlink:href="#m0a46984c03" x="547.086964" y="210.633945" style="fill: #bf4045; fill-opacity: 0.5; stroke: #bf4045; stroke-opacity: 0.5"/>
     <use xlink:href="#m0a46984c03" x="626.80125" y="209.794785" style="fill: #bf4045; fill-opacity: 0.5; stroke: #bf4045; stroke-opacity: 0.5"/>
     <use xlink:href="#m0a46984c03" x="706.515536" y="209.159745" style="fill: #bf4045; fill-opacity: 0.5; stroke: #bf4045; stroke-opacity: 0.5"/>
     <use xlink:href="#m0a46984c03" x="786.229821" y="208.955625" style="fill: #bf4045; fill-opacity: 0.5; stroke: #bf4045; stroke-opacity: 0.5"/>
     <use xlink:href="#m0a46984c03" x="865.944107" y="208.774185" style="fill: #bf4045; fill-opacity: 0.5; stroke: #bf4045; stroke-opacity: 0.5"/>
     <use xlink:href="#m0a46984c03" x="945.658393" y="208.524705" style="fill: #bf4045; fill-opacity: 0.5; stroke: #bf4045; stroke-opacity: 0.5"/>
     <use xlink:href="#m0a46984c03" x="1025.372679" y="208.524705" style="fill: #bf4045; fill-opacity: 0.5; stroke: #bf4045; stroke-opacity: 0.5"/>
     <use xlink:href="#m0a46984c03" x="1105.086964" y="208.343265" style="fill: #bf4045; fill-opacity: 0.5; stroke: #bf4045; stroke-opacity: 0.5"/>
    </g>
   </g>
   <g id="line2d_22">
    <path d="M 101.179093 -1 
L 108.658393 80.200167 
L 116.629821 142.510977 
L 124.60125 186.818225 
L 132.572679 217.906233 
L 140.544107 239.055223 
L 148.515536 252.563363 
L 156.486964 260.377657 
L 164.458393 264.378772 
L 172.429821 266.026849 
L 180.40125 266.137635 
L 188.372679 264.830396 
L 196.344107 262.289664 
L 204.315536 259.323234 
L 212.286964 256.569843 
L 220.258393 253.535708 
L 228.229821 250.279888 
L 236.20125 246.952127 
L 244.172679 243.675202 
L 252.144107 240.508726 
L 260.115536 237.511584 
L 268.086964 234.736485 
L 276.058393 232.223053 
L 284.029821 229.998136 
L 292.00125 228.058608 
L 299.972679 226.378876 
L 307.944107 224.922142 
L 315.915536 223.612033 
L 323.886964 222.390752 
L 331.858393 221.252068 
L 339.829821 220.209237 
L 347.80125 219.288699 
L 355.772679 218.517626 
L 363.744107 217.884677 
L 371.715536 217.376468 
L 379.686964 216.974069 
L 387.658393 216.645108 
L 467.372679 211.366518 
L 547.086964 208.955625 
L 626.80125 208.955625 
L 640.006094 208.955625 
" clip-path="url(#p35e1efc86f)" style="fill: none; stroke: #bf4045; stroke-opacity: 0.8; stroke-width: 2; stroke-linecap: round"/>
   </g>
   <g id="patch_3">
    <path d="M 68.80125 276.995625 
L 68.80125 27.515625 
" style="fill: none; stroke: #262626; stroke-width: 0.8; stroke-linejoin: miter; stroke-linecap: square"/>
   </g>
   <g id="patch_4">
    <path d="M 626.80125 276.995625 
L 626.80125 27.515625 
" style="fill: none; stroke: #262626; stroke-width: 0.8; stroke-linejoin: miter; stroke-linecap: square"/>
   </g>
   <g id="patch_5">
    <path d="M 68.80125 276.995625 
L 626.80125 276.995625 
" style="fill: none; stroke: #262626; stroke-width: 0.8; stroke-linejoin: miter; stroke-linecap: square"/>
   </g>
   <g id="patch_6">
    <path d="M 68.80125 27.515625 
L 626.80125 27.515625 
" style="fill: none; stroke: #262626; stroke-width: 0.8; stroke-linejoin: miter; stroke-linecap: square"/>
   </g>
   <g id="text_17">
    <!-- Gr/$h$-BN heterostructure -->
    <g style="fill: #262626" transform="translate(240.30125 21.515625) scale(0.2 -0.2)">
     <defs>
      <path id="ArialMT-47" d="M 2638 1797 
L 2638 2334 
L 4578 2338 
L 4578 638 
Q 4131 281 3656 101 
Q 3181 -78 2681 -78 
Q 2006 -78 1454 211 
Q 903 500 622 1047 
Q 341 1594 341 2269 
Q 341 2938 620 3517 
Q 900 4097 1425 4378 
Q 1950 4659 2634 4659 
Q 3131 4659 3532 4498 
Q 3934 4338 4162 4050 
Q 4391 3763 4509 3300 
L 3963 3150 
Q 3859 3500 3706 3700 
Q 3553 3900 3268 4020 
Q 2984 4141 2638 4141 
Q 2222 4141 1919 4014 
Q 1616 3888 1430 3681 
Q 1244 3475 1141 3228 
Q 966 2803 966 2306 
Q 966 1694 1177 1281 
Q 1388 869 1791 669 
Q 2194 469 2647 469 
Q 3041 469 3416 620 
Q 3791 772 3984 944 
L 3984 1797 
L 2638 1797 
z
" transform="scale(0.015625)"/>
      <path id="DejaVuSans-Oblique-68" d="M 3566 2113 
L 3156 0 
L 2578 0 
L 2988 2091 
Q 3016 2238 3031 2350 
Q 3047 2463 3047 2528 
Q 3047 2791 2881 2937 
Q 2716 3084 2419 3084 
Q 1956 3084 1617 2771 
Q 1278 2459 1178 1941 
L 800 0 
L 225 0 
L 1172 4863 
L 1747 4863 
L 1375 2950 
Q 1594 3244 1934 3414 
Q 2275 3584 2650 3584 
Q 3113 3584 3367 3334 
Q 3622 3084 3622 2631 
Q 3622 2519 3608 2391 
Q 3594 2263 3566 2113 
z
" transform="scale(0.015625)"/>
      <path id="ArialMT-2d" d="M 203 1375 
L 203 1941 
L 1931 1941 
L 1931 1375 
L 203 1375 
z
" transform="scale(0.015625)"/>
      <path id="ArialMT-42" d="M 469 0 
L 469 4581 
L 2188 4581 
Q 2713 4581 3030 4442 
Q 3347 4303 3526 4014 
Q 3706 3725 3706 3409 
Q 3706 3116 3547 2856 
Q 3388 2597 3066 2438 
Q 3481 2316 3704 2022 
Q 3928 1728 3928 1328 
Q 3928 1006 3792 729 
Q 3656 453 3456 303 
Q 3256 153 2954 76 
Q 2653 0 2216 0 
L 469 0 
z
M 1075 2656 
L 2066 2656 
Q 2469 2656 2644 2709 
Q 2875 2778 2992 2937 
Q 3109 3097 3109 3338 
Q 3109 3566 3000 3739 
Q 2891 3913 2687 3977 
Q 2484 4041 1991 4041 
L 1075 4041 
L 1075 2656 
z
M 1075 541 
L 2216 541 
Q 2509 541 2628 563 
Q 2838 600 2978 687 
Q 3119 775 3209 942 
Q 3300 1109 3300 1328 
Q 3300 1584 3169 1773 
Q 3038 1963 2805 2039 
Q 2572 2116 2134 2116 
L 1075 2116 
L 1075 541 
z
" transform="scale(0.015625)"/>
      <path id="ArialMT-4e" d="M 488 0 
L 488 4581 
L 1109 4581 
L 3516 984 
L 3516 4581 
L 4097 4581 
L 4097 0 
L 3475 0 
L 1069 3600 
L 1069 0 
L 488 0 
z
" transform="scale(0.015625)"/>
      <path id="ArialMT-68" d="M 422 0 
L 422 4581 
L 984 4581 
L 984 2938 
Q 1378 3394 1978 3394 
Q 2347 3394 2619 3248 
Q 2891 3103 3008 2847 
Q 3125 2591 3125 2103 
L 3125 0 
L 2563 0 
L 2563 2103 
Q 2563 2525 2380 2717 
Q 2197 2909 1863 2909 
Q 1613 2909 1392 2779 
Q 1172 2650 1078 2428 
Q 984 2206 984 1816 
L 984 0 
L 422 0 
z
" transform="scale(0.015625)"/>
      <path id="ArialMT-75" d="M 2597 0 
L 2597 488 
Q 2209 -75 1544 -75 
Q 1250 -75 995 37 
Q 741 150 617 320 
Q 494 491 444 738 
Q 409 903 409 1263 
L 409 3319 
L 972 3319 
L 972 1478 
Q 972 1038 1006 884 
Q 1059 663 1231 536 
Q 1403 409 1656 409 
Q 1909 409 2131 539 
Q 2353 669 2445 892 
Q 2538 1116 2538 1541 
L 2538 3319 
L 3100 3319 
L 3100 0 
L 2597 0 
z
" transform="scale(0.015625)"/>
     </defs>
     <use xlink:href="#ArialMT-47" transform="translate(0 0.015625)"/>
     <use xlink:href="#ArialMT-72" transform="translate(77.783203 0.015625)"/>
     <use xlink:href="#ArialMT-2f" transform="translate(111.083984 0.015625)"/>
     <use xlink:href="#DejaVuSans-Oblique-68" transform="translate(138.867188 0.015625)"/>
     <use xlink:href="#ArialMT-2d" transform="translate(202.246094 0.015625)"/>
     <use xlink:href="#ArialMT-42" transform="translate(235.546875 0.015625)"/>
     <use xlink:href="#ArialMT-4e" transform="translate(302.246094 0.015625)"/>
     <use xlink:href="#ArialMT-20" transform="translate(374.462891 0.015625)"/>
     <use xlink:href="#ArialMT-68" transform="translate(402.246094 0.015625)"/>
     <use xlink:href="#ArialMT-65" transform="translate(457.861328 0.015625)"/>
     <use xlink:href="#ArialMT-74" transform="translate(513.476562 0.015625)"/>
     <use xlink:href="#ArialMT-65" transform="translate(541.259766 0.015625)"/>
     <use xlink:href="#ArialMT-72" transform="translate(596.875 0.015625)"/>
     <use xlink:href="#ArialMT-6f" transform="translate(630.175781 0.015625)"/>
     <use xlink:href="#ArialMT-73" transform="translate(685.791016 0.015625)"/>
     <use xlink:href="#ArialMT-74" transform="translate(735.791016 0.015625)"/>
     <use xlink:href="#ArialMT-72" transform="translate(763.574219 0.015625)"/>
     <use xlink:href="#ArialMT-75" transform="translate(796.875 0.015625)"/>
     <use xlink:href="#ArialMT-63" transform="translate(852.490234 0.015625)"/>
     <use xlink:href="#ArialMT-74" transform="translate(902.490234 0.015625)"/>
     <use xlink:href="#ArialMT-75" transform="translate(930.273438 0.015625)"/>
     <use xlink:href="#ArialMT-72" transform="translate(985.888672 0.015625)"/>
     <use xlink:href="#ArialMT-65" transform="translate(1019.189453 0.015625)"/>
    </g>
   </g>
   <g id="legend_1">
    <g id="line2d_23">
     <g>
      <use xlink:href="#md246a366d4" x="426.778437" y="45.407187" style="fill: #55a868; fill-opacity: 0.5; stroke: #55a868; stroke-opacity: 0.5; stroke-linejoin: miter"/>
     </g>
    </g>
    <g id="text_18">
     <!-- PBE+MBD (AA stacking) -->
     <g style="fill: #262626" transform="translate(451.978437 50.307187) scale(0.14 -0.14)">
      <defs>
       <path id="ArialMT-50" d="M 494 0 
L 494 4581 
L 2222 4581 
Q 2678 4581 2919 4538 
Q 3256 4481 3484 4323 
Q 3713 4166 3852 3881 
Q 3991 3597 3991 3256 
Q 3991 2672 3619 2267 
Q 3247 1863 2275 1863 
L 1100 1863 
L 1100 0 
L 494 0 
z
M 1100 2403 
L 2284 2403 
Q 2872 2403 3119 2622 
Q 3366 2841 3366 3238 
Q 3366 3525 3220 3729 
Q 3075 3934 2838 4000 
Q 2684 4041 2272 4041 
L 1100 4041 
L 1100 2403 
z
" transform="scale(0.015625)"/>
       <path id="ArialMT-2b" d="M 1603 741 
L 1603 1997 
L 356 1997 
L 356 2522 
L 1603 2522 
L 1603 3769 
L 2134 3769 
L 2134 2522 
L 3381 2522 
L 3381 1997 
L 2134 1997 
L 2134 741 
L 1603 741 
z
" transform="scale(0.015625)"/>
       <path id="ArialMT-4d" d="M 475 0 
L 475 4581 
L 1388 4581 
L 2472 1338 
Q 2622 884 2691 659 
Q 2769 909 2934 1394 
L 4031 4581 
L 4847 4581 
L 4847 0 
L 4263 0 
L 4263 3834 
L 2931 0 
L 2384 0 
L 1059 3900 
L 1059 0 
L 475 0 
z
" transform="scale(0.015625)"/>
       <path id="ArialMT-44" d="M 494 0 
L 494 4581 
L 2072 4581 
Q 2606 4581 2888 4516 
Q 3281 4425 3559 4188 
Q 3922 3881 4101 3404 
Q 4281 2928 4281 2316 
Q 4281 1794 4159 1391 
Q 4038 988 3847 723 
Q 3656 459 3429 307 
Q 3203 156 2883 78 
Q 2563 0 2147 0 
L 494 0 
z
M 1100 541 
L 2078 541 
Q 2531 541 2789 625 
Q 3047 709 3200 863 
Q 3416 1078 3536 1442 
Q 3656 1806 3656 2325 
Q 3656 3044 3420 3430 
Q 3184 3816 2847 3947 
Q 2603 4041 2063 4041 
L 1100 4041 
L 1100 541 
z
" transform="scale(0.015625)"/>
       <path id="ArialMT-41" d="M -9 0 
L 1750 4581 
L 2403 4581 
L 4278 0 
L 3588 0 
L 3053 1388 
L 1138 1388 
L 634 0 
L -9 0 
z
M 1313 1881 
L 2866 1881 
L 2388 3150 
Q 2169 3728 2063 4100 
Q 1975 3659 1816 3225 
L 1313 1881 
z
" transform="scale(0.015625)"/>
       <path id="ArialMT-6b" d="M 425 0 
L 425 4581 
L 988 4581 
L 988 1969 
L 2319 3319 
L 3047 3319 
L 1778 2088 
L 3175 0 
L 2481 0 
L 1384 1697 
L 988 1316 
L 988 0 
L 425 0 
z
" transform="scale(0.015625)"/>
      </defs>
      <use xlink:href="#ArialMT-50"/>
      <use xlink:href="#ArialMT-42" x="66.699219"/>
      <use xlink:href="#ArialMT-45" x="133.398438"/>
      <use xlink:href="#ArialMT-2b" x="200.097656"/>
      <use xlink:href="#ArialMT-4d" x="258.496094"/>
      <use xlink:href="#ArialMT-42" x="341.796875"/>
      <use xlink:href="#ArialMT-44" x="408.496094"/>
      <use xlink:href="#ArialMT-20" x="480.712891"/>
      <use xlink:href="#ArialMT-28" x="508.496094"/>
      <use xlink:href="#ArialMT-41" x="541.796875"/>
      <use xlink:href="#ArialMT-41" x="608.496094"/>
      <use xlink:href="#ArialMT-20" x="669.695312"/>
      <use xlink:href="#ArialMT-73" x="697.478516"/>
      <use xlink:href="#ArialMT-74" x="747.478516"/>
      <use xlink:href="#ArialMT-61" x="775.261719"/>
      <use xlink:href="#ArialMT-63" x="830.876953"/>
      <use xlink:href="#ArialMT-6b" x="880.876953"/>
      <use xlink:href="#ArialMT-69" x="930.876953"/>
      <use xlink:href="#ArialMT-6e" x="953.09375"/>
      <use xlink:href="#ArialMT-67" x="1008.708984"/>
      <use xlink:href="#ArialMT-29" x="1064.324219"/>
     </g>
    </g>
    <g id="line2d_24">
     <path d="M 412.778437 65.374687 
L 426.778437 65.374687 
L 440.778437 65.374687 
" style="fill: none; stroke: #55a868; stroke-opacity: 0.8; stroke-width: 2; stroke-linecap: round"/>
    </g>
    <g id="text_19">
     <!-- NEP -->
     <g style="fill: #262626" transform="translate(451.978437 70.274687) scale(0.14 -0.14)">
      <use xlink:href="#ArialMT-4e"/>
      <use xlink:href="#ArialMT-45" x="72.216797"/>
      <use xlink:href="#ArialMT-50" x="138.916016"/>
     </g>
    </g>
    <g id="line2d_25">
     <g>
      <use xlink:href="#mcd502cf9fd" x="426.778437" y="85.34875" style="fill: #8172b3; fill-opacity: 0.5; stroke: #8172b3; stroke-opacity: 0.5; stroke-linejoin: miter"/>
     </g>
    </g>
    <g id="text_20">
     <!-- PBE+MBD (AB stacking) -->
     <g style="fill: #262626" transform="translate(451.978437 90.24875) scale(0.14 -0.14)">
      <use xlink:href="#ArialMT-50"/>
      <use xlink:href="#ArialMT-42" x="66.699219"/>
      <use xlink:href="#ArialMT-45" x="133.398438"/>
      <use xlink:href="#ArialMT-2b" x="200.097656"/>
      <use xlink:href="#ArialMT-4d" x="258.496094"/>
      <use xlink:href="#ArialMT-42" x="341.796875"/>
      <use xlink:href="#ArialMT-44" x="408.496094"/>
      <use xlink:href="#ArialMT-20" x="480.712891"/>
      <use xlink:href="#ArialMT-28" x="508.496094"/>
      <use xlink:href="#ArialMT-41" x="541.796875"/>
      <use xlink:href="#ArialMT-42" x="608.496094"/>
      <use xlink:href="#ArialMT-20" x="675.195312"/>
      <use xlink:href="#ArialMT-73" x="702.978516"/>
      <use xlink:href="#ArialMT-74" x="752.978516"/>
      <use xlink:href="#ArialMT-61" x="780.761719"/>
      <use xlink:href="#ArialMT-63" x="836.376953"/>
      <use xlink:href="#ArialMT-6b" x="886.376953"/>
      <use xlink:href="#ArialMT-69" x="936.376953"/>
      <use xlink:href="#ArialMT-6e" x="958.59375"/>
      <use xlink:href="#ArialMT-67" x="1014.208984"/>
      <use xlink:href="#ArialMT-29" x="1069.824219"/>
     </g>
    </g>
    <g id="line2d_26">
     <path d="M 412.778437 105.31625 
L 426.778437 105.31625 
L 440.778437 105.31625 
" style="fill: none; stroke: #8172b3; stroke-opacity: 0.8; stroke-width: 2; stroke-linecap: round"/>
    </g>
    <g id="text_21">
     <!-- NEP -->
     <g style="fill: #262626" transform="translate(451.978437 110.21625) scale(0.14 -0.14)">
      <use xlink:href="#ArialMT-4e"/>
      <use xlink:href="#ArialMT-45" x="72.216797"/>
      <use xlink:href="#ArialMT-50" x="138.916016"/>
     </g>
    </g>
    <g id="line2d_27">
     <g>
      <use xlink:href="#m23aef992ad" x="426.778437" y="125.290312" style="fill: #1a1a1a; fill-opacity: 0.5; stroke: #1a1a1a; stroke-opacity: 0.5"/>
     </g>
    </g>
    <g id="text_22">
     <!-- PBE+MBD (DW stacking) -->
     <g style="fill: #262626" transform="translate(451.978437 130.190312) scale(0.14 -0.14)">
      <defs>
       <path id="ArialMT-57" d="M 1294 0 
L 78 4581 
L 700 4581 
L 1397 1578 
Q 1509 1106 1591 641 
Q 1766 1375 1797 1488 
L 2669 4581 
L 3400 4581 
L 4056 2263 
Q 4303 1400 4413 641 
Q 4500 1075 4641 1638 
L 5359 4581 
L 5969 4581 
L 4713 0 
L 4128 0 
L 3163 3491 
Q 3041 3928 3019 4028 
Q 2947 3713 2884 3491 
L 1913 0 
L 1294 0 
z
" transform="scale(0.015625)"/>
      </defs>
      <use xlink:href="#ArialMT-50"/>
      <use xlink:href="#ArialMT-42" x="66.699219"/>
      <use xlink:href="#ArialMT-45" x="133.398438"/>
      <use xlink:href="#ArialMT-2b" x="200.097656"/>
      <use xlink:href="#ArialMT-4d" x="258.496094"/>
      <use xlink:href="#ArialMT-42" x="341.796875"/>
      <use xlink:href="#ArialMT-44" x="408.496094"/>
      <use xlink:href="#ArialMT-20" x="480.712891"/>
      <use xlink:href="#ArialMT-28" x="508.496094"/>
      <use xlink:href="#ArialMT-44" x="541.796875"/>
      <use xlink:href="#ArialMT-57" x="614.013672"/>
      <use xlink:href="#ArialMT-20" x="708.398438"/>
      <use xlink:href="#ArialMT-73" x="736.181641"/>
      <use xlink:href="#ArialMT-74" x="786.181641"/>
      <use xlink:href="#ArialMT-61" x="813.964844"/>
      <use xlink:href="#ArialMT-63" x="869.580078"/>
      <use xlink:href="#ArialMT-6b" x="919.580078"/>
      <use xlink:href="#ArialMT-69" x="969.580078"/>
      <use xlink:href="#ArialMT-6e" x="991.796875"/>
      <use xlink:href="#ArialMT-67" x="1047.412109"/>
      <use xlink:href="#ArialMT-29" x="1103.027344"/>
     </g>
    </g>
    <g id="line2d_28">
     <path d="M 412.778437 145.257812 
L 426.778437 145.257812 
L 440.778437 145.257812 
" style="fill: none; stroke: #1a1a1a; stroke-opacity: 0.6; stroke-width: 2; stroke-linecap: round"/>
    </g>
    <g id="text_23">
     <!-- NEP -->
     <g style="fill: #262626" transform="translate(451.978437 150.157812) scale(0.14 -0.14)">
      <use xlink:href="#ArialMT-4e"/>
      <use xlink:href="#ArialMT-45" x="72.216797"/>
      <use xlink:href="#ArialMT-50" x="138.916016"/>
     </g>
    </g>
    <g id="line2d_29">
     <g>
      <use xlink:href="#m0a46984c03" x="426.778437" y="165.231875" style="fill: #bf4045; fill-opacity: 0.5; stroke: #bf4045; stroke-opacity: 0.5"/>
     </g>
    </g>
    <g id="text_24">
     <!-- PBE+MBD (ABp stacking) -->
     <g style="fill: #262626" transform="translate(451.978437 170.131875) scale(0.14 -0.14)">
      <defs>
       <path id="ArialMT-70" d="M 422 -1272 
L 422 3319 
L 934 3319 
L 934 2888 
Q 1116 3141 1344 3267 
Q 1572 3394 1897 3394 
Q 2322 3394 2647 3175 
Q 2972 2956 3137 2557 
Q 3303 2159 3303 1684 
Q 3303 1175 3120 767 
Q 2938 359 2589 142 
Q 2241 -75 1856 -75 
Q 1575 -75 1351 44 
Q 1128 163 984 344 
L 984 -1272 
L 422 -1272 
z
M 931 1641 
Q 931 1000 1190 694 
Q 1450 388 1819 388 
Q 2194 388 2461 705 
Q 2728 1022 2728 1688 
Q 2728 2322 2467 2637 
Q 2206 2953 1844 2953 
Q 1484 2953 1207 2617 
Q 931 2281 931 1641 
z
" transform="scale(0.015625)"/>
      </defs>
      <use xlink:href="#ArialMT-50"/>
      <use xlink:href="#ArialMT-42" x="66.699219"/>
      <use xlink:href="#ArialMT-45" x="133.398438"/>
      <use xlink:href="#ArialMT-2b" x="200.097656"/>
      <use xlink:href="#ArialMT-4d" x="258.496094"/>
      <use xlink:href="#ArialMT-42" x="341.796875"/>
      <use xlink:href="#ArialMT-44" x="408.496094"/>
      <use xlink:href="#ArialMT-20" x="480.712891"/>
      <use xlink:href="#ArialMT-28" x="508.496094"/>
      <use xlink:href="#ArialMT-41" x="541.796875"/>
      <use xlink:href="#ArialMT-42" x="608.496094"/>
      <use xlink:href="#ArialMT-70" x="675.195312"/>
      <use xlink:href="#ArialMT-20" x="730.810547"/>
      <use xlink:href="#ArialMT-73" x="758.59375"/>
      <use xlink:href="#ArialMT-74" x="808.59375"/>
      <use xlink:href="#ArialMT-61" x="836.376953"/>
      <use xlink:href="#ArialMT-63" x="891.992188"/>
      <use xlink:href="#ArialMT-6b" x="941.992188"/>
      <use xlink:href="#ArialMT-69" x="991.992188"/>
      <use xlink:href="#ArialMT-6e" x="1014.208984"/>
      <use xlink:href="#ArialMT-67" x="1069.824219"/>
      <use xlink:href="#ArialMT-29" x="1125.439453"/>
     </g>
    </g>
    <g id="line2d_30">
     <path d="M 412.778437 185.199375 
L 426.778437 185.199375 
L 440.778437 185.199375 
" style="fill: none; stroke: #bf4045; stroke-opacity: 0.8; stroke-width: 2; stroke-linecap: round"/>
    </g>
    <g id="text_25">
     <!-- NEP -->
     <g style="fill: #262626" transform="translate(451.978437 190.099375) scale(0.14 -0.14)">
      <use xlink:href="#ArialMT-4e"/>
      <use xlink:href="#ArialMT-45" x="72.216797"/>
      <use xlink:href="#ArialMT-50" x="138.916016"/>
     </g>
    </g>
   </g>
  </g>
 </g>
 <defs>
  <clipPath id="p35e1efc86f">
   <rect x="68.80125" y="27.515625" width="558" height="249.48"/>
  </clipPath>
 </defs>
</svg>
