<?xml version="1.0" encoding="utf-8" standalone="no"?>
<!DOCTYPE svg PUBLIC "-//W3C//DTD SVG 1.1//EN"
  "http://www.w3.org/Graphics/SVG/1.1/DTD/svg11.dtd">
<svg xmlns:xlink="http://www.w3.org/1999/xlink" width="345.442422pt" height="626.975625pt" viewBox="0 0 345.442422 626.975625" xmlns="http://www.w3.org/2000/svg" version="1.1">
 <metadata>
  <rdf:RDF xmlns:dc="http://purl.org/dc/elements/1.1/" xmlns:cc="http://creativecommons.org/ns#" xmlns:rdf="http://www.w3.org/1999/02/22-rdf-syntax-ns#">
   <cc:Work>
    <dc:type rdf:resource="http://purl.org/dc/dcmitype/StillImage"/>
    <dc:date>2024-04-07T16:11:05.829601</dc:date>
    <dc:format>image/svg+xml</dc:format>
    <dc:creator>
     <cc:Agent>
      <dc:title>Matplotlib v3.7.2, https://matplotlib.org/</dc:title>
     </cc:Agent>
    </dc:creator>
   </cc:Work>
  </rdf:RDF>
 </metadata>
 <defs>
  <style type="text/css">*{stroke-linejoin: round; stroke-linecap: butt}</style>
 </defs>
 <g id="figure_1">
  <g id="patch_1">
   <path d="M 0 626.975625 
L 345.442422 626.975625 
L 345.442422 0 
L 0 0 
z
" style="fill: #ffffff"/>
  </g>
  <g id="axes_1">
   <g id="patch_2">
    <path d="M 55.627812 578.336719 
L 334.627813 578.336719 
L 334.627813 23.936719 
L 55.627812 23.936719 
z
" style="fill: #ffffff"/>
   </g>
   <g id="matplotlib.axis_1">
    <g id="xtick_1">
     <g id="line2d_1">
      <defs>
       <path id="m3a10767488" d="M 0 0 
L 0 4.8 
" style="stroke: #262626; stroke-width: 0.65"/>
      </defs>
      <g>
       <use xlink:href="#m3a10767488" x="55.627812" y="578.336719" style="fill: #262626; stroke: #262626; stroke-width: 0.65"/>
      </g>
     </g>
     <g id="text_1">
      <!-- 2 -->
      <g style="fill: #262626" transform="translate(52.013203 595.941875) scale(0.13 -0.13)">
       <defs>
        <path id="ArialMT-32" d="M 3222 541 
L 3222 0 
L 194 0 
Q 188 203 259 391 
Q 375 700 629 1000 
Q 884 1300 1366 1694 
Q 2113 2306 2375 2664 
Q 2638 3022 2638 3341 
Q 2638 3675 2398 3904 
Q 2159 4134 1775 4134 
Q 1369 4134 1125 3890 
Q 881 3647 878 3216 
L 300 3275 
Q 359 3922 746 4261 
Q 1134 4600 1788 4600 
Q 2447 4600 2831 4234 
Q 3216 3869 3216 3328 
Q 3216 3053 3103 2787 
Q 2991 2522 2730 2228 
Q 2469 1934 1863 1422 
Q 1356 997 1212 845 
Q 1069 694 975 541 
L 3222 541 
z
" transform="scale(0.015625)"/>
       </defs>
       <use xlink:href="#ArialMT-32"/>
      </g>
     </g>
    </g>
    <g id="xtick_2">
     <g id="line2d_2">
      <g>
       <use xlink:href="#m3a10767488" x="95.484955" y="578.336719" style="fill: #262626; stroke: #262626; stroke-width: 0.65"/>
      </g>
     </g>
     <g id="text_2">
      <!-- 3 -->
      <g style="fill: #262626" transform="translate(91.870346 595.941875) scale(0.13 -0.13)">
       <defs>
        <path id="ArialMT-33" d="M 269 1209 
L 831 1284 
Q 928 806 1161 595 
Q 1394 384 1728 384 
Q 2125 384 2398 659 
Q 2672 934 2672 1341 
Q 2672 1728 2419 1979 
Q 2166 2231 1775 2231 
Q 1616 2231 1378 2169 
L 1441 2663 
Q 1497 2656 1531 2656 
Q 1891 2656 2178 2843 
Q 2466 3031 2466 3422 
Q 2466 3731 2256 3934 
Q 2047 4138 1716 4138 
Q 1388 4138 1169 3931 
Q 950 3725 888 3313 
L 325 3413 
Q 428 3978 793 4289 
Q 1159 4600 1703 4600 
Q 2078 4600 2393 4439 
Q 2709 4278 2876 4000 
Q 3044 3722 3044 3409 
Q 3044 3113 2884 2869 
Q 2725 2625 2413 2481 
Q 2819 2388 3044 2092 
Q 3269 1797 3269 1353 
Q 3269 753 2831 336 
Q 2394 -81 1725 -81 
Q 1122 -81 723 278 
Q 325 638 269 1209 
z
" transform="scale(0.015625)"/>
       </defs>
       <use xlink:href="#ArialMT-33"/>
      </g>
     </g>
    </g>
    <g id="xtick_3">
     <g id="line2d_3">
      <g>
       <use xlink:href="#m3a10767488" x="135.342098" y="578.336719" style="fill: #262626; stroke: #262626; stroke-width: 0.65"/>
      </g>
     </g>
     <g id="text_3">
      <!-- 4 -->
      <g style="fill: #262626" transform="translate(131.727489 595.941875) scale(0.13 -0.13)">
       <defs>
        <path id="ArialMT-34" d="M 2069 0 
L 2069 1097 
L 81 1097 
L 81 1613 
L 2172 4581 
L 2631 4581 
L 2631 1613 
L 3250 1613 
L 3250 1097 
L 2631 1097 
L 2631 0 
L 2069 0 
z
M 2069 1613 
L 2069 3678 
L 634 1613 
L 2069 1613 
z
" transform="scale(0.015625)"/>
       </defs>
       <use xlink:href="#ArialMT-34"/>
      </g>
     </g>
    </g>
    <g id="xtick_4">
     <g id="line2d_4">
      <g>
       <use xlink:href="#m3a10767488" x="175.199241" y="578.336719" style="fill: #262626; stroke: #262626; stroke-width: 0.65"/>
      </g>
     </g>
     <g id="text_4">
      <!-- 5 -->
      <g style="fill: #262626" transform="translate(171.584632 595.941875) scale(0.13 -0.13)">
       <defs>
        <path id="ArialMT-35" d="M 266 1200 
L 856 1250 
Q 922 819 1161 601 
Q 1400 384 1738 384 
Q 2144 384 2425 690 
Q 2706 997 2706 1503 
Q 2706 1984 2436 2262 
Q 2166 2541 1728 2541 
Q 1456 2541 1237 2417 
Q 1019 2294 894 2097 
L 366 2166 
L 809 4519 
L 3088 4519 
L 3088 3981 
L 1259 3981 
L 1013 2750 
Q 1425 3038 1878 3038 
Q 2478 3038 2890 2622 
Q 3303 2206 3303 1553 
Q 3303 931 2941 478 
Q 2500 -78 1738 -78 
Q 1113 -78 717 272 
Q 322 622 266 1200 
z
" transform="scale(0.015625)"/>
       </defs>
       <use xlink:href="#ArialMT-35"/>
      </g>
     </g>
    </g>
    <g id="xtick_5">
     <g id="line2d_5">
      <g>
       <use xlink:href="#m3a10767488" x="215.056384" y="578.336719" style="fill: #262626; stroke: #262626; stroke-width: 0.65"/>
      </g>
     </g>
     <g id="text_5">
      <!-- 6 -->
      <g style="fill: #262626" transform="translate(211.441775 595.941875) scale(0.13 -0.13)">
       <defs>
        <path id="ArialMT-36" d="M 3184 3459 
L 2625 3416 
Q 2550 3747 2413 3897 
Q 2184 4138 1850 4138 
Q 1581 4138 1378 3988 
Q 1113 3794 959 3422 
Q 806 3050 800 2363 
Q 1003 2672 1297 2822 
Q 1591 2972 1913 2972 
Q 2475 2972 2870 2558 
Q 3266 2144 3266 1488 
Q 3266 1056 3080 686 
Q 2894 316 2569 119 
Q 2244 -78 1831 -78 
Q 1128 -78 684 439 
Q 241 956 241 2144 
Q 241 3472 731 4075 
Q 1159 4600 1884 4600 
Q 2425 4600 2770 4297 
Q 3116 3994 3184 3459 
z
M 888 1484 
Q 888 1194 1011 928 
Q 1134 663 1356 523 
Q 1578 384 1822 384 
Q 2178 384 2434 671 
Q 2691 959 2691 1453 
Q 2691 1928 2437 2201 
Q 2184 2475 1800 2475 
Q 1419 2475 1153 2201 
Q 888 1928 888 1484 
z
" transform="scale(0.015625)"/>
       </defs>
       <use xlink:href="#ArialMT-36"/>
      </g>
     </g>
    </g>
    <g id="xtick_6">
     <g id="line2d_6">
      <g>
       <use xlink:href="#m3a10767488" x="254.913527" y="578.336719" style="fill: #262626; stroke: #262626; stroke-width: 0.65"/>
      </g>
     </g>
     <g id="text_6">
      <!-- 7 -->
      <g style="fill: #262626" transform="translate(251.298917 595.941875) scale(0.13 -0.13)">
       <defs>
        <path id="ArialMT-37" d="M 303 3981 
L 303 4522 
L 3269 4522 
L 3269 4084 
Q 2831 3619 2401 2847 
Q 1972 2075 1738 1259 
Q 1569 684 1522 0 
L 944 0 
Q 953 541 1156 1306 
Q 1359 2072 1739 2783 
Q 2119 3494 2547 3981 
L 303 3981 
z
" transform="scale(0.015625)"/>
       </defs>
       <use xlink:href="#ArialMT-37"/>
      </g>
     </g>
    </g>
    <g id="xtick_7">
     <g id="line2d_7">
      <g>
       <use xlink:href="#m3a10767488" x="294.77067" y="578.336719" style="fill: #262626; stroke: #262626; stroke-width: 0.65"/>
      </g>
     </g>
     <g id="text_7">
      <!-- 8 -->
      <g style="fill: #262626" transform="translate(291.15606 595.941875) scale(0.13 -0.13)">
       <defs>
        <path id="ArialMT-38" d="M 1131 2484 
Q 781 2613 612 2850 
Q 444 3088 444 3419 
Q 444 3919 803 4259 
Q 1163 4600 1759 4600 
Q 2359 4600 2725 4251 
Q 3091 3903 3091 3403 
Q 3091 3084 2923 2848 
Q 2756 2613 2416 2484 
Q 2838 2347 3058 2040 
Q 3278 1734 3278 1309 
Q 3278 722 2862 322 
Q 2447 -78 1769 -78 
Q 1091 -78 675 323 
Q 259 725 259 1325 
Q 259 1772 486 2073 
Q 713 2375 1131 2484 
z
M 1019 3438 
Q 1019 3113 1228 2906 
Q 1438 2700 1772 2700 
Q 2097 2700 2305 2904 
Q 2513 3109 2513 3406 
Q 2513 3716 2298 3927 
Q 2084 4138 1766 4138 
Q 1444 4138 1231 3931 
Q 1019 3725 1019 3438 
z
M 838 1322 
Q 838 1081 952 856 
Q 1066 631 1291 507 
Q 1516 384 1775 384 
Q 2178 384 2440 643 
Q 2703 903 2703 1303 
Q 2703 1709 2433 1975 
Q 2163 2241 1756 2241 
Q 1359 2241 1098 1978 
Q 838 1716 838 1322 
z
" transform="scale(0.015625)"/>
       </defs>
       <use xlink:href="#ArialMT-38"/>
      </g>
     </g>
    </g>
    <g id="xtick_8">
     <g id="line2d_8">
      <g>
       <use xlink:href="#m3a10767488" x="334.627812" y="578.336719" style="fill: #262626; stroke: #262626; stroke-width: 0.65"/>
      </g>
     </g>
     <g id="text_8">
      <!-- 9 -->
      <g style="fill: #262626" transform="translate(331.013203 595.941875) scale(0.13 -0.13)">
       <defs>
        <path id="ArialMT-39" d="M 350 1059 
L 891 1109 
Q 959 728 1153 556 
Q 1347 384 1650 384 
Q 1909 384 2104 503 
Q 2300 622 2425 820 
Q 2550 1019 2634 1356 
Q 2719 1694 2719 2044 
Q 2719 2081 2716 2156 
Q 2547 1888 2255 1720 
Q 1963 1553 1622 1553 
Q 1053 1553 659 1965 
Q 266 2378 266 3053 
Q 266 3750 677 4175 
Q 1088 4600 1706 4600 
Q 2153 4600 2523 4359 
Q 2894 4119 3086 3673 
Q 3278 3228 3278 2384 
Q 3278 1506 3087 986 
Q 2897 466 2520 194 
Q 2144 -78 1638 -78 
Q 1100 -78 759 220 
Q 419 519 350 1059 
z
M 2653 3081 
Q 2653 3566 2395 3850 
Q 2138 4134 1775 4134 
Q 1400 4134 1122 3828 
Q 844 3522 844 3034 
Q 844 2597 1108 2323 
Q 1372 2050 1759 2050 
Q 2150 2050 2401 2323 
Q 2653 2597 2653 3081 
z
" transform="scale(0.015625)"/>
       </defs>
       <use xlink:href="#ArialMT-39"/>
      </g>
     </g>
    </g>
    <g id="text_9">
     <!-- Interlayer distance ($\mathrm{\AA}$) -->
     <g style="fill: #262626" transform="translate(121.627813 616.475625) scale(0.15 -0.15)">
      <defs>
       <path id="ArialMT-49" d="M 597 0 
L 597 4581 
L 1203 4581 
L 1203 0 
L 597 0 
z
" transform="scale(0.015625)"/>
       <path id="ArialMT-6e" d="M 422 0 
L 422 3319 
L 928 3319 
L 928 2847 
Q 1294 3394 1984 3394 
Q 2284 3394 2536 3286 
Q 2788 3178 2913 3003 
Q 3038 2828 3088 2588 
Q 3119 2431 3119 2041 
L 3119 0 
L 2556 0 
L 2556 2019 
Q 2556 2363 2490 2533 
Q 2425 2703 2258 2804 
Q 2091 2906 1866 2906 
Q 1506 2906 1245 2678 
Q 984 2450 984 1813 
L 984 0 
L 422 0 
z
" transform="scale(0.015625)"/>
       <path id="ArialMT-74" d="M 1650 503 
L 1731 6 
Q 1494 -44 1306 -44 
Q 1000 -44 831 53 
Q 663 150 594 308 
Q 525 466 525 972 
L 525 2881 
L 113 2881 
L 113 3319 
L 525 3319 
L 525 4141 
L 1084 4478 
L 1084 3319 
L 1650 3319 
L 1650 2881 
L 1084 2881 
L 1084 941 
Q 1084 700 1114 631 
Q 1144 563 1211 522 
Q 1278 481 1403 481 
Q 1497 481 1650 503 
z
" transform="scale(0.015625)"/>
       <path id="ArialMT-65" d="M 2694 1069 
L 3275 997 
Q 3138 488 2766 206 
Q 2394 -75 1816 -75 
Q 1088 -75 661 373 
Q 234 822 234 1631 
Q 234 2469 665 2931 
Q 1097 3394 1784 3394 
Q 2450 3394 2872 2941 
Q 3294 2488 3294 1666 
Q 3294 1616 3291 1516 
L 816 1516 
Q 847 969 1125 678 
Q 1403 388 1819 388 
Q 2128 388 2347 550 
Q 2566 713 2694 1069 
z
M 847 1978 
L 2700 1978 
Q 2663 2397 2488 2606 
Q 2219 2931 1791 2931 
Q 1403 2931 1139 2672 
Q 875 2413 847 1978 
z
" transform="scale(0.015625)"/>
       <path id="ArialMT-72" d="M 416 0 
L 416 3319 
L 922 3319 
L 922 2816 
Q 1116 3169 1280 3281 
Q 1444 3394 1641 3394 
Q 1925 3394 2219 3213 
L 2025 2691 
Q 1819 2813 1613 2813 
Q 1428 2813 1281 2702 
Q 1134 2591 1072 2394 
Q 978 2094 978 1738 
L 978 0 
L 416 0 
z
" transform="scale(0.015625)"/>
       <path id="ArialMT-6c" d="M 409 0 
L 409 4581 
L 972 4581 
L 972 0 
L 409 0 
z
" transform="scale(0.015625)"/>
       <path id="ArialMT-61" d="M 2588 409 
Q 2275 144 1986 34 
Q 1697 -75 1366 -75 
Q 819 -75 525 192 
Q 231 459 231 875 
Q 231 1119 342 1320 
Q 453 1522 633 1644 
Q 813 1766 1038 1828 
Q 1203 1872 1538 1913 
Q 2219 1994 2541 2106 
Q 2544 2222 2544 2253 
Q 2544 2597 2384 2738 
Q 2169 2928 1744 2928 
Q 1347 2928 1158 2789 
Q 969 2650 878 2297 
L 328 2372 
Q 403 2725 575 2942 
Q 747 3159 1072 3276 
Q 1397 3394 1825 3394 
Q 2250 3394 2515 3294 
Q 2781 3194 2906 3042 
Q 3031 2891 3081 2659 
Q 3109 2516 3109 2141 
L 3109 1391 
Q 3109 606 3145 398 
Q 3181 191 3288 0 
L 2700 0 
Q 2613 175 2588 409 
z
M 2541 1666 
Q 2234 1541 1622 1453 
Q 1275 1403 1131 1340 
Q 988 1278 909 1158 
Q 831 1038 831 891 
Q 831 666 1001 516 
Q 1172 366 1500 366 
Q 1825 366 2078 508 
Q 2331 650 2450 897 
Q 2541 1088 2541 1459 
L 2541 1666 
z
" transform="scale(0.015625)"/>
       <path id="ArialMT-79" d="M 397 -1278 
L 334 -750 
Q 519 -800 656 -800 
Q 844 -800 956 -737 
Q 1069 -675 1141 -563 
Q 1194 -478 1313 -144 
Q 1328 -97 1363 -6 
L 103 3319 
L 709 3319 
L 1400 1397 
Q 1534 1031 1641 628 
Q 1738 1016 1872 1384 
L 2581 3319 
L 3144 3319 
L 1881 -56 
Q 1678 -603 1566 -809 
Q 1416 -1088 1222 -1217 
Q 1028 -1347 759 -1347 
Q 597 -1347 397 -1278 
z
" transform="scale(0.015625)"/>
       <path id="ArialMT-20" transform="scale(0.015625)"/>
       <path id="ArialMT-64" d="M 2575 0 
L 2575 419 
Q 2259 -75 1647 -75 
Q 1250 -75 917 144 
Q 584 363 401 755 
Q 219 1147 219 1656 
Q 219 2153 384 2558 
Q 550 2963 881 3178 
Q 1213 3394 1622 3394 
Q 1922 3394 2156 3267 
Q 2391 3141 2538 2938 
L 2538 4581 
L 3097 4581 
L 3097 0 
L 2575 0 
z
M 797 1656 
Q 797 1019 1065 703 
Q 1334 388 1700 388 
Q 2069 388 2326 689 
Q 2584 991 2584 1609 
Q 2584 2291 2321 2609 
Q 2059 2928 1675 2928 
Q 1300 2928 1048 2622 
Q 797 2316 797 1656 
z
" transform="scale(0.015625)"/>
       <path id="ArialMT-69" d="M 425 3934 
L 425 4581 
L 988 4581 
L 988 3934 
L 425 3934 
z
M 425 0 
L 425 3319 
L 988 3319 
L 988 0 
L 425 0 
z
" transform="scale(0.015625)"/>
       <path id="ArialMT-73" d="M 197 991 
L 753 1078 
Q 800 744 1014 566 
Q 1228 388 1613 388 
Q 2000 388 2187 545 
Q 2375 703 2375 916 
Q 2375 1106 2209 1216 
Q 2094 1291 1634 1406 
Q 1016 1563 777 1677 
Q 538 1791 414 1992 
Q 291 2194 291 2438 
Q 291 2659 392 2848 
Q 494 3038 669 3163 
Q 800 3259 1026 3326 
Q 1253 3394 1513 3394 
Q 1903 3394 2198 3281 
Q 2494 3169 2634 2976 
Q 2775 2784 2828 2463 
L 2278 2388 
Q 2241 2644 2061 2787 
Q 1881 2931 1553 2931 
Q 1166 2931 1000 2803 
Q 834 2675 834 2503 
Q 834 2394 903 2306 
Q 972 2216 1119 2156 
Q 1203 2125 1616 2013 
Q 2213 1853 2448 1751 
Q 2684 1650 2818 1456 
Q 2953 1263 2953 975 
Q 2953 694 2789 445 
Q 2625 197 2315 61 
Q 2006 -75 1616 -75 
Q 969 -75 630 194 
Q 291 463 197 991 
z
" transform="scale(0.015625)"/>
       <path id="ArialMT-63" d="M 2588 1216 
L 3141 1144 
Q 3050 572 2676 248 
Q 2303 -75 1759 -75 
Q 1078 -75 664 370 
Q 250 816 250 1647 
Q 250 2184 428 2587 
Q 606 2991 970 3192 
Q 1334 3394 1763 3394 
Q 2303 3394 2647 3120 
Q 2991 2847 3088 2344 
L 2541 2259 
Q 2463 2594 2264 2762 
Q 2066 2931 1784 2931 
Q 1359 2931 1093 2626 
Q 828 2322 828 1663 
Q 828 994 1084 691 
Q 1341 388 1753 388 
Q 2084 388 2306 591 
Q 2528 794 2588 1216 
z
" transform="scale(0.015625)"/>
       <path id="ArialMT-28" d="M 1497 -1347 
Q 1031 -759 709 28 
Q 388 816 388 1659 
Q 388 2403 628 3084 
Q 909 3875 1497 4659 
L 1900 4659 
Q 1522 4009 1400 3731 
Q 1209 3300 1100 2831 
Q 966 2247 966 1656 
Q 966 153 1900 -1347 
L 1497 -1347 
z
" transform="scale(0.015625)"/>
       <path id="DejaVuSans-c5" d="M 2663 5081 
Q 2663 5278 2523 5417 
Q 2384 5556 2188 5556 
Q 1988 5556 1852 5420 
Q 1716 5284 1716 5081 
Q 1716 4884 1853 4746 
Q 1991 4609 2188 4609 
Q 2384 4609 2523 4746 
Q 2663 4884 2663 5081 
z
M 2188 4044 
L 1338 1722 
L 3041 1722 
L 2188 4044 
z
M 1716 4366 
Q 1525 4494 1428 4673 
Q 1331 4853 1331 5081 
Q 1331 5441 1579 5691 
Q 1828 5941 2188 5941 
Q 2544 5941 2795 5689 
Q 3047 5438 3047 5081 
Q 3047 4863 2948 4678 
Q 2850 4494 2663 4366 
L 4325 0 
L 3669 0 
L 3244 1197 
L 1141 1197 
L 716 0 
L 50 0 
L 1716 4366 
z
" transform="scale(0.015625)"/>
       <path id="ArialMT-29" d="M 791 -1347 
L 388 -1347 
Q 1322 153 1322 1656 
Q 1322 2244 1188 2822 
Q 1081 3291 891 3722 
Q 769 4003 388 4659 
L 791 4659 
Q 1378 3875 1659 3084 
Q 1900 2403 1900 1659 
Q 1900 816 1576 28 
Q 1253 -759 791 -1347 
z
" transform="scale(0.015625)"/>
      </defs>
      <use xlink:href="#ArialMT-49" transform="translate(0 0.171875)"/>
      <use xlink:href="#ArialMT-6e" transform="translate(27.783203 0.171875)"/>
      <use xlink:href="#ArialMT-74" transform="translate(83.398438 0.171875)"/>
      <use xlink:href="#ArialMT-65" transform="translate(111.181641 0.171875)"/>
      <use xlink:href="#ArialMT-72" transform="translate(166.796875 0.171875)"/>
      <use xlink:href="#ArialMT-6c" transform="translate(200.097656 0.171875)"/>
      <use xlink:href="#ArialMT-61" transform="translate(222.314453 0.171875)"/>
      <use xlink:href="#ArialMT-79" transform="translate(277.929688 0.171875)"/>
      <use xlink:href="#ArialMT-65" transform="translate(327.929688 0.171875)"/>
      <use xlink:href="#ArialMT-72" transform="translate(383.544922 0.171875)"/>
      <use xlink:href="#ArialMT-20" transform="translate(416.845703 0.171875)"/>
      <use xlink:href="#ArialMT-64" transform="translate(444.628906 0.171875)"/>
      <use xlink:href="#ArialMT-69" transform="translate(500.244141 0.171875)"/>
      <use xlink:href="#ArialMT-73" transform="translate(522.460938 0.171875)"/>
      <use xlink:href="#ArialMT-74" transform="translate(572.460938 0.171875)"/>
      <use xlink:href="#ArialMT-61" transform="translate(600.244141 0.171875)"/>
      <use xlink:href="#ArialMT-6e" transform="translate(655.859375 0.171875)"/>
      <use xlink:href="#ArialMT-63" transform="translate(711.474609 0.171875)"/>
      <use xlink:href="#ArialMT-65" transform="translate(761.474609 0.171875)"/>
      <use xlink:href="#ArialMT-20" transform="translate(817.089844 0.171875)"/>
      <use xlink:href="#ArialMT-28" transform="translate(844.873047 0.171875)"/>
      <use xlink:href="#DejaVuSans-c5" transform="translate(878.173828 0.171875)"/>
      <use xlink:href="#ArialMT-29" transform="translate(946.582031 0.171875)"/>
     </g>
    </g>
   </g>
   <g id="matplotlib.axis_2">
    <g id="ytick_1">
     <g id="line2d_9">
      <defs>
       <path id="m61418f4a9e" d="M 0 0 
L -4.8 0 
" style="stroke: #262626; stroke-width: 0.65"/>
      </defs>
      <g>
       <use xlink:href="#m61418f4a9e" x="55.627812" y="527.936719" style="fill: #262626; stroke: #262626; stroke-width: 0.65"/>
      </g>
     </g>
     <g id="text_10">
      <!-- −20 -->
      <g style="fill: #262626" transform="translate(25.276562 532.589297) scale(0.13 -0.13)">
       <defs>
        <path id="ArialMT-2212" d="M 3381 1997 
L 356 1997 
L 356 2522 
L 3381 2522 
L 3381 1997 
z
" transform="scale(0.015625)"/>
        <path id="ArialMT-30" d="M 266 2259 
Q 266 3072 433 3567 
Q 600 4063 929 4331 
Q 1259 4600 1759 4600 
Q 2128 4600 2406 4451 
Q 2684 4303 2865 4023 
Q 3047 3744 3150 3342 
Q 3253 2941 3253 2259 
Q 3253 1453 3087 958 
Q 2922 463 2592 192 
Q 2263 -78 1759 -78 
Q 1097 -78 719 397 
Q 266 969 266 2259 
z
M 844 2259 
Q 844 1131 1108 757 
Q 1372 384 1759 384 
Q 2147 384 2411 759 
Q 2675 1134 2675 2259 
Q 2675 3391 2411 3762 
Q 2147 4134 1753 4134 
Q 1366 4134 1134 3806 
Q 844 3388 844 2259 
z
" transform="scale(0.015625)"/>
       </defs>
       <use xlink:href="#ArialMT-2212"/>
       <use xlink:href="#ArialMT-32" x="58.398438"/>
       <use xlink:href="#ArialMT-30" x="114.013672"/>
      </g>
     </g>
    </g>
    <g id="ytick_2">
     <g id="line2d_10">
      <g>
       <use xlink:href="#m61418f4a9e" x="55.627812" y="427.136719" style="fill: #262626; stroke: #262626; stroke-width: 0.65"/>
      </g>
     </g>
     <g id="text_11">
      <!-- 0 -->
      <g style="fill: #262626" transform="translate(40.098594 431.789297) scale(0.13 -0.13)">
       <use xlink:href="#ArialMT-30"/>
      </g>
     </g>
    </g>
    <g id="ytick_3">
     <g id="line2d_11">
      <g>
       <use xlink:href="#m61418f4a9e" x="55.627812" y="326.336719" style="fill: #262626; stroke: #262626; stroke-width: 0.65"/>
      </g>
     </g>
     <g id="text_12">
      <!-- 20 -->
      <g style="fill: #262626" transform="translate(32.869375 330.989297) scale(0.13 -0.13)">
       <use xlink:href="#ArialMT-32"/>
       <use xlink:href="#ArialMT-30" x="55.615234"/>
      </g>
     </g>
    </g>
    <g id="ytick_4">
     <g id="line2d_12">
      <g>
       <use xlink:href="#m61418f4a9e" x="55.627812" y="225.536719" style="fill: #262626; stroke: #262626; stroke-width: 0.65"/>
      </g>
     </g>
     <g id="text_13">
      <!-- 40 -->
      <g style="fill: #262626" transform="translate(32.869375 230.189297) scale(0.13 -0.13)">
       <use xlink:href="#ArialMT-34"/>
       <use xlink:href="#ArialMT-30" x="55.615234"/>
      </g>
     </g>
    </g>
    <g id="ytick_5">
     <g id="line2d_13">
      <g>
       <use xlink:href="#m61418f4a9e" x="55.627812" y="124.736719" style="fill: #262626; stroke: #262626; stroke-width: 0.65"/>
      </g>
     </g>
     <g id="text_14">
      <!-- 60 -->
      <g style="fill: #262626" transform="translate(32.869375 129.389297) scale(0.13 -0.13)">
       <use xlink:href="#ArialMT-36"/>
       <use xlink:href="#ArialMT-30" x="55.615234"/>
      </g>
     </g>
    </g>
    <g id="ytick_6">
     <g id="line2d_14">
      <g>
       <use xlink:href="#m61418f4a9e" x="55.627812" y="23.936719" style="fill: #262626; stroke: #262626; stroke-width: 0.65"/>
      </g>
     </g>
     <g id="text_15">
      <!-- 80 -->
      <g style="fill: #262626" transform="translate(32.869375 28.589297) scale(0.13 -0.13)">
       <use xlink:href="#ArialMT-38"/>
       <use xlink:href="#ArialMT-30" x="55.615234"/>
      </g>
     </g>
    </g>
    <g id="text_16">
     <!-- Energy (meV/atom) -->
     <g style="fill: #262626" transform="translate(18.119531 366.153516) rotate(-90) scale(0.15 -0.15)">
      <defs>
       <path id="ArialMT-45" d="M 506 0 
L 506 4581 
L 3819 4581 
L 3819 4041 
L 1113 4041 
L 1113 2638 
L 3647 2638 
L 3647 2100 
L 1113 2100 
L 1113 541 
L 3925 541 
L 3925 0 
L 506 0 
z
" transform="scale(0.015625)"/>
       <path id="ArialMT-67" d="M 319 -275 
L 866 -356 
Q 900 -609 1056 -725 
Q 1266 -881 1628 -881 
Q 2019 -881 2231 -725 
Q 2444 -569 2519 -288 
Q 2563 -116 2559 434 
Q 2191 0 1641 0 
Q 956 0 581 494 
Q 206 988 206 1678 
Q 206 2153 378 2554 
Q 550 2956 876 3175 
Q 1203 3394 1644 3394 
Q 2231 3394 2613 2919 
L 2613 3319 
L 3131 3319 
L 3131 450 
Q 3131 -325 2973 -648 
Q 2816 -972 2473 -1159 
Q 2131 -1347 1631 -1347 
Q 1038 -1347 672 -1080 
Q 306 -813 319 -275 
z
M 784 1719 
Q 784 1066 1043 766 
Q 1303 466 1694 466 
Q 2081 466 2343 764 
Q 2606 1063 2606 1700 
Q 2606 2309 2336 2618 
Q 2066 2928 1684 2928 
Q 1309 2928 1046 2623 
Q 784 2319 784 1719 
z
" transform="scale(0.015625)"/>
       <path id="ArialMT-6d" d="M 422 0 
L 422 3319 
L 925 3319 
L 925 2853 
Q 1081 3097 1340 3245 
Q 1600 3394 1931 3394 
Q 2300 3394 2536 3241 
Q 2772 3088 2869 2813 
Q 3263 3394 3894 3394 
Q 4388 3394 4653 3120 
Q 4919 2847 4919 2278 
L 4919 0 
L 4359 0 
L 4359 2091 
Q 4359 2428 4304 2576 
Q 4250 2725 4106 2815 
Q 3963 2906 3769 2906 
Q 3419 2906 3187 2673 
Q 2956 2441 2956 1928 
L 2956 0 
L 2394 0 
L 2394 2156 
Q 2394 2531 2256 2718 
Q 2119 2906 1806 2906 
Q 1569 2906 1367 2781 
Q 1166 2656 1075 2415 
Q 984 2175 984 1722 
L 984 0 
L 422 0 
z
" transform="scale(0.015625)"/>
       <path id="ArialMT-56" d="M 1803 0 
L 28 4581 
L 684 4581 
L 1875 1253 
Q 2019 853 2116 503 
Q 2222 878 2363 1253 
L 3600 4581 
L 4219 4581 
L 2425 0 
L 1803 0 
z
" transform="scale(0.015625)"/>
       <path id="ArialMT-2f" d="M 0 -78 
L 1328 4659 
L 1778 4659 
L 453 -78 
L 0 -78 
z
" transform="scale(0.015625)"/>
       <path id="ArialMT-6f" d="M 213 1659 
Q 213 2581 725 3025 
Q 1153 3394 1769 3394 
Q 2453 3394 2887 2945 
Q 3322 2497 3322 1706 
Q 3322 1066 3130 698 
Q 2938 331 2570 128 
Q 2203 -75 1769 -75 
Q 1072 -75 642 372 
Q 213 819 213 1659 
z
M 791 1659 
Q 791 1022 1069 705 
Q 1347 388 1769 388 
Q 2188 388 2466 706 
Q 2744 1025 2744 1678 
Q 2744 2294 2464 2611 
Q 2184 2928 1769 2928 
Q 1347 2928 1069 2612 
Q 791 2297 791 1659 
z
" transform="scale(0.015625)"/>
      </defs>
      <use xlink:href="#ArialMT-45"/>
      <use xlink:href="#ArialMT-6e" x="66.699219"/>
      <use xlink:href="#ArialMT-65" x="122.314453"/>
      <use xlink:href="#ArialMT-72" x="177.929688"/>
      <use xlink:href="#ArialMT-67" x="211.230469"/>
      <use xlink:href="#ArialMT-79" x="266.845703"/>
      <use xlink:href="#ArialMT-20" x="316.845703"/>
      <use xlink:href="#ArialMT-28" x="344.628906"/>
      <use xlink:href="#ArialMT-6d" x="377.929688"/>
      <use xlink:href="#ArialMT-65" x="461.230469"/>
      <use xlink:href="#ArialMT-56" x="516.845703"/>
      <use xlink:href="#ArialMT-2f" x="583.544922"/>
      <use xlink:href="#ArialMT-61" x="611.328125"/>
      <use xlink:href="#ArialMT-74" x="666.943359"/>
      <use xlink:href="#ArialMT-6f" x="694.726562"/>
      <use xlink:href="#ArialMT-6d" x="750.341797"/>
      <use xlink:href="#ArialMT-29" x="833.642578"/>
     </g>
    </g>
   </g>
   <g id="line2d_15">
    <defs>
     <path id="m1b05e709c6" d="M 0 -3.5 
L -3.5 3.5 
L 3.5 3.5 
z
" style="stroke: #8172b3; stroke-opacity: 0.5; stroke-linejoin: miter"/>
    </defs>
    <g clip-path="url(#p7d2b7c75d9)">
     <use xlink:href="#m1b05e709c6" x="83.30325" y="-1" style="fill: #8172b3; fill-opacity: 0.5; stroke: #8172b3; stroke-opacity: 0.5; stroke-linejoin: miter"/>
     <use xlink:href="#m1b05e709c6" x="83.527813" y="10.429519" style="fill: #8172b3; fill-opacity: 0.5; stroke: #8172b3; stroke-opacity: 0.5; stroke-linejoin: miter"/>
     <use xlink:href="#m1b05e709c6" x="87.513527" y="175.943119" style="fill: #8172b3; fill-opacity: 0.5; stroke: #8172b3; stroke-opacity: 0.5; stroke-linejoin: miter"/>
     <use xlink:href="#m1b05e709c6" x="91.499241" y="293.879119" style="fill: #8172b3; fill-opacity: 0.5; stroke: #8172b3; stroke-opacity: 0.5; stroke-linejoin: miter"/>
     <use xlink:href="#m1b05e709c6" x="95.484955" y="375.527119" style="fill: #8172b3; fill-opacity: 0.5; stroke: #8172b3; stroke-opacity: 0.5; stroke-linejoin: miter"/>
     <use xlink:href="#m1b05e709c6" x="99.47067" y="430.412719" style="fill: #8172b3; fill-opacity: 0.5; stroke: #8172b3; stroke-opacity: 0.5; stroke-linejoin: miter"/>
     <use xlink:href="#m1b05e709c6" x="103.456384" y="465.944719" style="fill: #8172b3; fill-opacity: 0.5; stroke: #8172b3; stroke-opacity: 0.5; stroke-linejoin: miter"/>
     <use xlink:href="#m1b05e709c6" x="107.442098" y="491.951119" style="fill: #8172b3; fill-opacity: 0.5; stroke: #8172b3; stroke-opacity: 0.5; stroke-linejoin: miter"/>
     <use xlink:href="#m1b05e709c6" x="111.427812" y="508.028719" style="fill: #8172b3; fill-opacity: 0.5; stroke: #8172b3; stroke-opacity: 0.5; stroke-linejoin: miter"/>
     <use xlink:href="#m1b05e709c6" x="115.413527" y="516.495919" style="fill: #8172b3; fill-opacity: 0.5; stroke: #8172b3; stroke-opacity: 0.5; stroke-linejoin: miter"/>
     <use xlink:href="#m1b05e709c6" x="119.399241" y="519.721519" style="fill: #8172b3; fill-opacity: 0.5; stroke: #8172b3; stroke-opacity: 0.5; stroke-linejoin: miter"/>
     <use xlink:href="#m1b05e709c6" x="123.384955" y="519.469519" style="fill: #8172b3; fill-opacity: 0.5; stroke: #8172b3; stroke-opacity: 0.5; stroke-linejoin: miter"/>
     <use xlink:href="#m1b05e709c6" x="127.37067" y="516.899119" style="fill: #8172b3; fill-opacity: 0.5; stroke: #8172b3; stroke-opacity: 0.5; stroke-linejoin: miter"/>
     <use xlink:href="#m1b05e709c6" x="131.356384" y="512.867119" style="fill: #8172b3; fill-opacity: 0.5; stroke: #8172b3; stroke-opacity: 0.5; stroke-linejoin: miter"/>
     <use xlink:href="#m1b05e709c6" x="135.342098" y="508.028719" style="fill: #8172b3; fill-opacity: 0.5; stroke: #8172b3; stroke-opacity: 0.5; stroke-linejoin: miter"/>
     <use xlink:href="#m1b05e709c6" x="139.327812" y="502.837519" style="fill: #8172b3; fill-opacity: 0.5; stroke: #8172b3; stroke-opacity: 0.5; stroke-linejoin: miter"/>
     <use xlink:href="#m1b05e709c6" x="143.313527" y="497.545519" style="fill: #8172b3; fill-opacity: 0.5; stroke: #8172b3; stroke-opacity: 0.5; stroke-linejoin: miter"/>
     <use xlink:href="#m1b05e709c6" x="147.299241" y="492.303919" style="fill: #8172b3; fill-opacity: 0.5; stroke: #8172b3; stroke-opacity: 0.5; stroke-linejoin: miter"/>
     <use xlink:href="#m1b05e709c6" x="151.284955" y="487.314319" style="fill: #8172b3; fill-opacity: 0.5; stroke: #8172b3; stroke-opacity: 0.5; stroke-linejoin: miter"/>
     <use xlink:href="#m1b05e709c6" x="155.27067" y="482.627119" style="fill: #8172b3; fill-opacity: 0.5; stroke: #8172b3; stroke-opacity: 0.5; stroke-linejoin: miter"/>
     <use xlink:href="#m1b05e709c6" x="159.256384" y="478.191919" style="fill: #8172b3; fill-opacity: 0.5; stroke: #8172b3; stroke-opacity: 0.5; stroke-linejoin: miter"/>
     <use xlink:href="#m1b05e709c6" x="163.242098" y="474.109519" style="fill: #8172b3; fill-opacity: 0.5; stroke: #8172b3; stroke-opacity: 0.5; stroke-linejoin: miter"/>
     <use xlink:href="#m1b05e709c6" x="167.227812" y="470.279119" style="fill: #8172b3; fill-opacity: 0.5; stroke: #8172b3; stroke-opacity: 0.5; stroke-linejoin: miter"/>
     <use xlink:href="#m1b05e709c6" x="171.213527" y="466.751119" style="fill: #8172b3; fill-opacity: 0.5; stroke: #8172b3; stroke-opacity: 0.5; stroke-linejoin: miter"/>
     <use xlink:href="#m1b05e709c6" x="175.199241" y="463.525519" style="fill: #8172b3; fill-opacity: 0.5; stroke: #8172b3; stroke-opacity: 0.5; stroke-linejoin: miter"/>
     <use xlink:href="#m1b05e709c6" x="179.184955" y="460.551919" style="fill: #8172b3; fill-opacity: 0.5; stroke: #8172b3; stroke-opacity: 0.5; stroke-linejoin: miter"/>
     <use xlink:href="#m1b05e709c6" x="183.17067" y="457.830319" style="fill: #8172b3; fill-opacity: 0.5; stroke: #8172b3; stroke-opacity: 0.5; stroke-linejoin: miter"/>
     <use xlink:href="#m1b05e709c6" x="187.156384" y="455.360719" style="fill: #8172b3; fill-opacity: 0.5; stroke: #8172b3; stroke-opacity: 0.5; stroke-linejoin: miter"/>
     <use xlink:href="#m1b05e709c6" x="191.142098" y="453.042319" style="fill: #8172b3; fill-opacity: 0.5; stroke: #8172b3; stroke-opacity: 0.5; stroke-linejoin: miter"/>
     <use xlink:href="#m1b05e709c6" x="195.127812" y="450.925519" style="fill: #8172b3; fill-opacity: 0.5; stroke: #8172b3; stroke-opacity: 0.5; stroke-linejoin: miter"/>
     <use xlink:href="#m1b05e709c6" x="199.113527" y="449.010319" style="fill: #8172b3; fill-opacity: 0.5; stroke: #8172b3; stroke-opacity: 0.5; stroke-linejoin: miter"/>
     <use xlink:href="#m1b05e709c6" x="203.099241" y="447.246319" style="fill: #8172b3; fill-opacity: 0.5; stroke: #8172b3; stroke-opacity: 0.5; stroke-linejoin: miter"/>
     <use xlink:href="#m1b05e709c6" x="207.084955" y="445.683919" style="fill: #8172b3; fill-opacity: 0.5; stroke: #8172b3; stroke-opacity: 0.5; stroke-linejoin: miter"/>
     <use xlink:href="#m1b05e709c6" x="211.07067" y="444.222319" style="fill: #8172b3; fill-opacity: 0.5; stroke: #8172b3; stroke-opacity: 0.5; stroke-linejoin: miter"/>
     <use xlink:href="#m1b05e709c6" x="215.056384" y="442.962319" style="fill: #8172b3; fill-opacity: 0.5; stroke: #8172b3; stroke-opacity: 0.5; stroke-linejoin: miter"/>
     <use xlink:href="#m1b05e709c6" x="254.913527" y="434.898319" style="fill: #8172b3; fill-opacity: 0.5; stroke: #8172b3; stroke-opacity: 0.5; stroke-linejoin: miter"/>
     <use xlink:href="#m1b05e709c6" x="294.77067" y="431.168719" style="fill: #8172b3; fill-opacity: 0.5; stroke: #8172b3; stroke-opacity: 0.5; stroke-linejoin: miter"/>
     <use xlink:href="#m1b05e709c6" x="334.627812" y="428.951119" style="fill: #8172b3; fill-opacity: 0.5; stroke: #8172b3; stroke-opacity: 0.5; stroke-linejoin: miter"/>
     <use xlink:href="#m1b05e709c6" x="374.484955" y="428.195119" style="fill: #8172b3; fill-opacity: 0.5; stroke: #8172b3; stroke-opacity: 0.5; stroke-linejoin: miter"/>
     <use xlink:href="#m1b05e709c6" x="414.342098" y="427.136719" style="fill: #8172b3; fill-opacity: 0.5; stroke: #8172b3; stroke-opacity: 0.5; stroke-linejoin: miter"/>
     <use xlink:href="#m1b05e709c6" x="454.199241" y="426.884719" style="fill: #8172b3; fill-opacity: 0.5; stroke: #8172b3; stroke-opacity: 0.5; stroke-linejoin: miter"/>
     <use xlink:href="#m1b05e709c6" x="494.056384" y="426.632719" style="fill: #8172b3; fill-opacity: 0.5; stroke: #8172b3; stroke-opacity: 0.5; stroke-linejoin: miter"/>
     <use xlink:href="#m1b05e709c6" x="533.913527" y="426.229519" style="fill: #8172b3; fill-opacity: 0.5; stroke: #8172b3; stroke-opacity: 0.5; stroke-linejoin: miter"/>
     <use xlink:href="#m1b05e709c6" x="573.77067" y="426.431119" style="fill: #8172b3; fill-opacity: 0.5; stroke: #8172b3; stroke-opacity: 0.5; stroke-linejoin: miter"/>
    </g>
   </g>
   <g id="line2d_16">
    <path d="M 83.241595 -1 
L 83.527813 13.737792 
L 87.513527 172.31182 
L 91.499241 292.960424 
L 95.484955 377.40396 
L 99.47067 433.925265 
L 103.456384 474.627882 
L 107.442098 500.844028 
L 111.427812 515.415254 
L 115.413527 520.531773 
L 119.399241 519.266216 
L 123.384955 516.063617 
L 127.37067 513.82395 
L 131.356384 510.632988 
L 135.342098 506.264861 
L 139.327812 501.095845 
L 143.313527 496.054905 
L 147.299241 491.334776 
L 151.284955 486.883964 
L 155.27067 482.56734 
L 159.256384 478.319644 
L 163.242098 474.200839 
L 167.227812 470.331252 
L 171.213527 466.76915 
L 175.199241 463.454494 
L 179.184955 460.244308 
L 183.17067 456.976641 
L 187.156384 453.598786 
L 191.142098 450.211849 
L 195.127812 447.021636 
L 199.113527 444.246579 
L 203.099241 442.020546 
L 207.084955 440.346158 
L 211.07067 439.183651 
L 215.056384 438.455049 
L 254.913527 433.890687 
L 294.77067 427.136719 
L 334.627812 427.136719 
L 346.442422 427.136719 
" clip-path="url(#p7d2b7c75d9)" style="fill: none; stroke: #8172b3; stroke-opacity: 0.8; stroke-width: 2; stroke-linecap: round"/>
   </g>
   <g id="line2d_17">
    <defs>
     <path id="m35d7dc0616" d="M 0 4.949747 
L 4.949747 0 
L 0 -4.949747 
L -4.949747 0 
z
" style="stroke: #55a868; stroke-opacity: 0.5; stroke-linejoin: miter"/>
    </defs>
    <g clip-path="url(#p7d2b7c75d9)">
     <use xlink:href="#m35d7dc0616" x="76.036968" y="-1" style="fill: #55a868; fill-opacity: 0.5; stroke: #55a868; stroke-opacity: 0.5; stroke-linejoin: miter"/>
     <use xlink:href="#m35d7dc0616" x="79.542098" y="154.573519" style="fill: #55a868; fill-opacity: 0.5; stroke: #55a868; stroke-opacity: 0.5; stroke-linejoin: miter"/>
     <use xlink:href="#m35d7dc0616" x="83.527813" y="283.345519" style="fill: #55a868; fill-opacity: 0.5; stroke: #55a868; stroke-opacity: 0.5; stroke-linejoin: miter"/>
     <use xlink:href="#m35d7dc0616" x="87.513527" y="375.375919" style="fill: #55a868; fill-opacity: 0.5; stroke: #55a868; stroke-opacity: 0.5; stroke-linejoin: miter"/>
     <use xlink:href="#m35d7dc0616" x="91.499241" y="439.635919" style="fill: #55a868; fill-opacity: 0.5; stroke: #55a868; stroke-opacity: 0.5; stroke-linejoin: miter"/>
     <use xlink:href="#m35d7dc0616" x="95.484955" y="483.181519" style="fill: #55a868; fill-opacity: 0.5; stroke: #55a868; stroke-opacity: 0.5; stroke-linejoin: miter"/>
     <use xlink:href="#m35d7dc0616" x="99.47067" y="511.304719" style="fill: #55a868; fill-opacity: 0.5; stroke: #55a868; stroke-opacity: 0.5; stroke-linejoin: miter"/>
     <use xlink:href="#m35d7dc0616" x="103.456384" y="528.138319" style="fill: #55a868; fill-opacity: 0.5; stroke: #55a868; stroke-opacity: 0.5; stroke-linejoin: miter"/>
     <use xlink:href="#m35d7dc0616" x="107.442098" y="536.907919" style="fill: #55a868; fill-opacity: 0.5; stroke: #55a868; stroke-opacity: 0.5; stroke-linejoin: miter"/>
     <use xlink:href="#m35d7dc0616" x="111.427812" y="539.982319" style="fill: #55a868; fill-opacity: 0.5; stroke: #55a868; stroke-opacity: 0.5; stroke-linejoin: miter"/>
     <use xlink:href="#m35d7dc0616" x="115.413527" y="539.125519" style="fill: #55a868; fill-opacity: 0.5; stroke: #55a868; stroke-opacity: 0.5; stroke-linejoin: miter"/>
     <use xlink:href="#m35d7dc0616" x="119.399241" y="535.748719" style="fill: #55a868; fill-opacity: 0.5; stroke: #55a868; stroke-opacity: 0.5; stroke-linejoin: miter"/>
     <use xlink:href="#m35d7dc0616" x="123.384955" y="530.708719" style="fill: #55a868; fill-opacity: 0.5; stroke: #55a868; stroke-opacity: 0.5; stroke-linejoin: miter"/>
     <use xlink:href="#m35d7dc0616" x="127.37067" y="524.811919" style="fill: #55a868; fill-opacity: 0.5; stroke: #55a868; stroke-opacity: 0.5; stroke-linejoin: miter"/>
     <use xlink:href="#m35d7dc0616" x="131.356384" y="518.411119" style="fill: #55a868; fill-opacity: 0.5; stroke: #55a868; stroke-opacity: 0.5; stroke-linejoin: miter"/>
     <use xlink:href="#m35d7dc0616" x="135.342098" y="511.909519" style="fill: #55a868; fill-opacity: 0.5; stroke: #55a868; stroke-opacity: 0.5; stroke-linejoin: miter"/>
     <use xlink:href="#m35d7dc0616" x="139.327812" y="505.559119" style="fill: #55a868; fill-opacity: 0.5; stroke: #55a868; stroke-opacity: 0.5; stroke-linejoin: miter"/>
     <use xlink:href="#m35d7dc0616" x="143.313527" y="499.410319" style="fill: #55a868; fill-opacity: 0.5; stroke: #55a868; stroke-opacity: 0.5; stroke-linejoin: miter"/>
     <use xlink:href="#m35d7dc0616" x="147.299241" y="493.614319" style="fill: #55a868; fill-opacity: 0.5; stroke: #55a868; stroke-opacity: 0.5; stroke-linejoin: miter"/>
     <use xlink:href="#m35d7dc0616" x="151.284955" y="488.221519" style="fill: #55a868; fill-opacity: 0.5; stroke: #55a868; stroke-opacity: 0.5; stroke-linejoin: miter"/>
     <use xlink:href="#m35d7dc0616" x="155.27067" y="483.231919" style="fill: #55a868; fill-opacity: 0.5; stroke: #55a868; stroke-opacity: 0.5; stroke-linejoin: miter"/>
     <use xlink:href="#m35d7dc0616" x="159.256384" y="478.645519" style="fill: #55a868; fill-opacity: 0.5; stroke: #55a868; stroke-opacity: 0.5; stroke-linejoin: miter"/>
     <use xlink:href="#m35d7dc0616" x="163.242098" y="474.411919" style="fill: #55a868; fill-opacity: 0.5; stroke: #55a868; stroke-opacity: 0.5; stroke-linejoin: miter"/>
     <use xlink:href="#m35d7dc0616" x="167.227812" y="470.480719" style="fill: #55a868; fill-opacity: 0.5; stroke: #55a868; stroke-opacity: 0.5; stroke-linejoin: miter"/>
     <use xlink:href="#m35d7dc0616" x="171.213527" y="466.902319" style="fill: #55a868; fill-opacity: 0.5; stroke: #55a868; stroke-opacity: 0.5; stroke-linejoin: miter"/>
     <use xlink:href="#m35d7dc0616" x="175.199241" y="463.575919" style="fill: #55a868; fill-opacity: 0.5; stroke: #55a868; stroke-opacity: 0.5; stroke-linejoin: miter"/>
     <use xlink:href="#m35d7dc0616" x="179.184955" y="460.602319" style="fill: #55a868; fill-opacity: 0.5; stroke: #55a868; stroke-opacity: 0.5; stroke-linejoin: miter"/>
     <use xlink:href="#m35d7dc0616" x="183.17067" y="457.880719" style="fill: #55a868; fill-opacity: 0.5; stroke: #55a868; stroke-opacity: 0.5; stroke-linejoin: miter"/>
     <use xlink:href="#m35d7dc0616" x="187.156384" y="455.360719" style="fill: #55a868; fill-opacity: 0.5; stroke: #55a868; stroke-opacity: 0.5; stroke-linejoin: miter"/>
     <use xlink:href="#m35d7dc0616" x="191.142098" y="453.042319" style="fill: #55a868; fill-opacity: 0.5; stroke: #55a868; stroke-opacity: 0.5; stroke-linejoin: miter"/>
     <use xlink:href="#m35d7dc0616" x="195.127812" y="450.925519" style="fill: #55a868; fill-opacity: 0.5; stroke: #55a868; stroke-opacity: 0.5; stroke-linejoin: miter"/>
     <use xlink:href="#m35d7dc0616" x="199.113527" y="449.010319" style="fill: #55a868; fill-opacity: 0.5; stroke: #55a868; stroke-opacity: 0.5; stroke-linejoin: miter"/>
     <use xlink:href="#m35d7dc0616" x="203.099241" y="447.246319" style="fill: #55a868; fill-opacity: 0.5; stroke: #55a868; stroke-opacity: 0.5; stroke-linejoin: miter"/>
     <use xlink:href="#m35d7dc0616" x="207.084955" y="445.683919" style="fill: #55a868; fill-opacity: 0.5; stroke: #55a868; stroke-opacity: 0.5; stroke-linejoin: miter"/>
     <use xlink:href="#m35d7dc0616" x="211.07067" y="444.222319" style="fill: #55a868; fill-opacity: 0.5; stroke: #55a868; stroke-opacity: 0.5; stroke-linejoin: miter"/>
     <use xlink:href="#m35d7dc0616" x="215.056384" y="442.962319" style="fill: #55a868; fill-opacity: 0.5; stroke: #55a868; stroke-opacity: 0.5; stroke-linejoin: miter"/>
     <use xlink:href="#m35d7dc0616" x="254.913527" y="434.898319" style="fill: #55a868; fill-opacity: 0.5; stroke: #55a868; stroke-opacity: 0.5; stroke-linejoin: miter"/>
     <use xlink:href="#m35d7dc0616" x="294.77067" y="431.118319" style="fill: #55a868; fill-opacity: 0.5; stroke: #55a868; stroke-opacity: 0.5; stroke-linejoin: miter"/>
     <use xlink:href="#m35d7dc0616" x="334.627812" y="428.951119" style="fill: #55a868; fill-opacity: 0.5; stroke: #55a868; stroke-opacity: 0.5; stroke-linejoin: miter"/>
     <use xlink:href="#m35d7dc0616" x="374.484955" y="428.195119" style="fill: #55a868; fill-opacity: 0.5; stroke: #55a868; stroke-opacity: 0.5; stroke-linejoin: miter"/>
     <use xlink:href="#m35d7dc0616" x="414.342098" y="427.136719" style="fill: #55a868; fill-opacity: 0.5; stroke: #55a868; stroke-opacity: 0.5; stroke-linejoin: miter"/>
     <use xlink:href="#m35d7dc0616" x="454.199241" y="426.884719" style="fill: #55a868; fill-opacity: 0.5; stroke: #55a868; stroke-opacity: 0.5; stroke-linejoin: miter"/>
     <use xlink:href="#m35d7dc0616" x="494.056384" y="426.632719" style="fill: #55a868; fill-opacity: 0.5; stroke: #55a868; stroke-opacity: 0.5; stroke-linejoin: miter"/>
     <use xlink:href="#m35d7dc0616" x="533.913527" y="426.229519" style="fill: #55a868; fill-opacity: 0.5; stroke: #55a868; stroke-opacity: 0.5; stroke-linejoin: miter"/>
     <use xlink:href="#m35d7dc0616" x="573.77067" y="426.431119" style="fill: #55a868; fill-opacity: 0.5; stroke: #55a868; stroke-opacity: 0.5; stroke-linejoin: miter"/>
    </g>
   </g>
   <g id="line2d_18">
    <path d="M 76.093938 -1 
L 79.542098 152.303904 
L 83.527813 280.579655 
L 87.513527 372.848821 
L 91.499241 437.984222 
L 95.484955 478.770509 
L 99.47067 503.516201 
L 103.456384 520.599289 
L 107.442098 531.584375 
L 111.427812 537.313741 
L 115.413527 537.820022 
L 119.399241 533.781388 
L 123.384955 528.254183 
L 127.37067 523.768377 
L 131.356384 518.0442 
L 135.342098 511.166545 
L 139.327812 503.726133 
L 143.313527 496.552812 
L 147.299241 490.011989 
L 151.284955 484.226342 
L 155.27067 479.168235 
L 159.256384 474.763756 
L 163.242098 470.943102 
L 167.227812 467.622387 
L 171.213527 464.659197 
L 175.199241 461.856007 
L 179.184955 459.019263 
L 183.17067 455.991018 
L 187.156384 452.767149 
L 191.142098 449.508823 
L 195.127812 446.464382 
L 199.113527 443.869216 
L 203.099241 441.847333 
L 207.084955 440.369491 
L 211.07067 439.385765 
L 215.056384 438.813101 
L 254.913527 433.635984 
L 294.77067 427.136719 
L 334.627812 427.136719 
L 346.442422 427.136719 
" clip-path="url(#p7d2b7c75d9)" style="fill: none; stroke: #55a868; stroke-opacity: 0.8; stroke-width: 2; stroke-linecap: round"/>
   </g>
   <g id="patch_3">
    <path d="M 55.627812 578.336719 
L 55.627812 23.936719 
" style="fill: none; stroke: #262626; stroke-width: 0.65; stroke-linejoin: miter; stroke-linecap: square"/>
   </g>
   <g id="patch_4">
    <path d="M 334.627813 578.336719 
L 334.627813 23.936719 
" style="fill: none; stroke: #262626; stroke-width: 0.65; stroke-linejoin: miter; stroke-linecap: square"/>
   </g>
   <g id="patch_5">
    <path d="M 55.627812 578.336719 
L 334.627812 578.336719 
" style="fill: none; stroke: #262626; stroke-width: 0.65; stroke-linejoin: miter; stroke-linecap: square"/>
   </g>
   <g id="patch_6">
    <path d="M 55.627812 23.936719 
L 334.627812 23.936719 
" style="fill: none; stroke: #262626; stroke-width: 0.65; stroke-linejoin: miter; stroke-linecap: square"/>
   </g>
   <g id="text_17">
    <!-- Bilayer graphene -->
    <g style="fill: #262626" transform="translate(138.427813 17.936719) scale(0.15 -0.15)">
     <defs>
      <path id="ArialMT-42" d="M 469 0 
L 469 4581 
L 2188 4581 
Q 2713 4581 3030 4442 
Q 3347 4303 3526 4014 
Q 3706 3725 3706 3409 
Q 3706 3116 3547 2856 
Q 3388 2597 3066 2438 
Q 3481 2316 3704 2022 
Q 3928 1728 3928 1328 
Q 3928 1006 3792 729 
Q 3656 453 3456 303 
Q 3256 153 2954 76 
Q 2653 0 2216 0 
L 469 0 
z
M 1075 2656 
L 2066 2656 
Q 2469 2656 2644 2709 
Q 2875 2778 2992 2937 
Q 3109 3097 3109 3338 
Q 3109 3566 3000 3739 
Q 2891 3913 2687 3977 
Q 2484 4041 1991 4041 
L 1075 4041 
L 1075 2656 
z
M 1075 541 
L 2216 541 
Q 2509 541 2628 563 
Q 2838 600 2978 687 
Q 3119 775 3209 942 
Q 3300 1109 3300 1328 
Q 3300 1584 3169 1773 
Q 3038 1963 2805 2039 
Q 2572 2116 2134 2116 
L 1075 2116 
L 1075 541 
z
" transform="scale(0.015625)"/>
      <path id="ArialMT-70" d="M 422 -1272 
L 422 3319 
L 934 3319 
L 934 2888 
Q 1116 3141 1344 3267 
Q 1572 3394 1897 3394 
Q 2322 3394 2647 3175 
Q 2972 2956 3137 2557 
Q 3303 2159 3303 1684 
Q 3303 1175 3120 767 
Q 2938 359 2589 142 
Q 2241 -75 1856 -75 
Q 1575 -75 1351 44 
Q 1128 163 984 344 
L 984 -1272 
L 422 -1272 
z
M 931 1641 
Q 931 1000 1190 694 
Q 1450 388 1819 388 
Q 2194 388 2461 705 
Q 2728 1022 2728 1688 
Q 2728 2322 2467 2637 
Q 2206 2953 1844 2953 
Q 1484 2953 1207 2617 
Q 931 2281 931 1641 
z
" transform="scale(0.015625)"/>
      <path id="ArialMT-68" d="M 422 0 
L 422 4581 
L 984 4581 
L 984 2938 
Q 1378 3394 1978 3394 
Q 2347 3394 2619 3248 
Q 2891 3103 3008 2847 
Q 3125 2591 3125 2103 
L 3125 0 
L 2563 0 
L 2563 2103 
Q 2563 2525 2380 2717 
Q 2197 2909 1863 2909 
Q 1613 2909 1392 2779 
Q 1172 2650 1078 2428 
Q 984 2206 984 1816 
L 984 0 
L 422 0 
z
" transform="scale(0.015625)"/>
     </defs>
     <use xlink:href="#ArialMT-42"/>
     <use xlink:href="#ArialMT-69" x="66.699219"/>
     <use xlink:href="#ArialMT-6c" x="88.916016"/>
     <use xlink:href="#ArialMT-61" x="111.132812"/>
     <use xlink:href="#ArialMT-79" x="166.748047"/>
     <use xlink:href="#ArialMT-65" x="216.748047"/>
     <use xlink:href="#ArialMT-72" x="272.363281"/>
     <use xlink:href="#ArialMT-20" x="305.664062"/>
     <use xlink:href="#ArialMT-67" x="333.447266"/>
     <use xlink:href="#ArialMT-72" x="389.0625"/>
     <use xlink:href="#ArialMT-61" x="422.363281"/>
     <use xlink:href="#ArialMT-70" x="477.978516"/>
     <use xlink:href="#ArialMT-68" x="533.59375"/>
     <use xlink:href="#ArialMT-65" x="589.208984"/>
     <use xlink:href="#ArialMT-6e" x="644.824219"/>
     <use xlink:href="#ArialMT-65" x="700.439453"/>
    </g>
   </g>
   <g id="legend_1">
    <g id="line2d_19">
     <g>
      <use xlink:href="#m1b05e709c6" x="156.121563" y="40.550312" style="fill: #8172b3; fill-opacity: 0.5; stroke: #8172b3; stroke-opacity: 0.5; stroke-linejoin: miter"/>
     </g>
    </g>
    <g id="text_18">
     <!-- PBE+MBD (AA stacking) -->
     <g style="fill: #262626" transform="translate(179.521563 45.100312) scale(0.13 -0.13)">
      <defs>
       <path id="ArialMT-50" d="M 494 0 
L 494 4581 
L 2222 4581 
Q 2678 4581 2919 4538 
Q 3256 4481 3484 4323 
Q 3713 4166 3852 3881 
Q 3991 3597 3991 3256 
Q 3991 2672 3619 2267 
Q 3247 1863 2275 1863 
L 1100 1863 
L 1100 0 
L 494 0 
z
M 1100 2403 
L 2284 2403 
Q 2872 2403 3119 2622 
Q 3366 2841 3366 3238 
Q 3366 3525 3220 3729 
Q 3075 3934 2838 4000 
Q 2684 4041 2272 4041 
L 1100 4041 
L 1100 2403 
z
" transform="scale(0.015625)"/>
       <path id="ArialMT-2b" d="M 1603 741 
L 1603 1997 
L 356 1997 
L 356 2522 
L 1603 2522 
L 1603 3769 
L 2134 3769 
L 2134 2522 
L 3381 2522 
L 3381 1997 
L 2134 1997 
L 2134 741 
L 1603 741 
z
" transform="scale(0.015625)"/>
       <path id="ArialMT-4d" d="M 475 0 
L 475 4581 
L 1388 4581 
L 2472 1338 
Q 2622 884 2691 659 
Q 2769 909 2934 1394 
L 4031 4581 
L 4847 4581 
L 4847 0 
L 4263 0 
L 4263 3834 
L 2931 0 
L 2384 0 
L 1059 3900 
L 1059 0 
L 475 0 
z
" transform="scale(0.015625)"/>
       <path id="ArialMT-44" d="M 494 0 
L 494 4581 
L 2072 4581 
Q 2606 4581 2888 4516 
Q 3281 4425 3559 4188 
Q 3922 3881 4101 3404 
Q 4281 2928 4281 2316 
Q 4281 1794 4159 1391 
Q 4038 988 3847 723 
Q 3656 459 3429 307 
Q 3203 156 2883 78 
Q 2563 0 2147 0 
L 494 0 
z
M 1100 541 
L 2078 541 
Q 2531 541 2789 625 
Q 3047 709 3200 863 
Q 3416 1078 3536 1442 
Q 3656 1806 3656 2325 
Q 3656 3044 3420 3430 
Q 3184 3816 2847 3947 
Q 2603 4041 2063 4041 
L 1100 4041 
L 1100 541 
z
" transform="scale(0.015625)"/>
       <path id="ArialMT-41" d="M -9 0 
L 1750 4581 
L 2403 4581 
L 4278 0 
L 3588 0 
L 3053 1388 
L 1138 1388 
L 634 0 
L -9 0 
z
M 1313 1881 
L 2866 1881 
L 2388 3150 
Q 2169 3728 2063 4100 
Q 1975 3659 1816 3225 
L 1313 1881 
z
" transform="scale(0.015625)"/>
       <path id="ArialMT-6b" d="M 425 0 
L 425 4581 
L 988 4581 
L 988 1969 
L 2319 3319 
L 3047 3319 
L 1778 2088 
L 3175 0 
L 2481 0 
L 1384 1697 
L 988 1316 
L 988 0 
L 425 0 
z
" transform="scale(0.015625)"/>
      </defs>
      <use xlink:href="#ArialMT-50"/>
      <use xlink:href="#ArialMT-42" x="66.699219"/>
      <use xlink:href="#ArialMT-45" x="133.398438"/>
      <use xlink:href="#ArialMT-2b" x="200.097656"/>
      <use xlink:href="#ArialMT-4d" x="258.496094"/>
      <use xlink:href="#ArialMT-42" x="341.796875"/>
      <use xlink:href="#ArialMT-44" x="408.496094"/>
      <use xlink:href="#ArialMT-20" x="480.712891"/>
      <use xlink:href="#ArialMT-28" x="508.496094"/>
      <use xlink:href="#ArialMT-41" x="541.796875"/>
      <use xlink:href="#ArialMT-41" x="608.496094"/>
      <use xlink:href="#ArialMT-20" x="669.695312"/>
      <use xlink:href="#ArialMT-73" x="697.478516"/>
      <use xlink:href="#ArialMT-74" x="747.478516"/>
      <use xlink:href="#ArialMT-61" x="775.261719"/>
      <use xlink:href="#ArialMT-63" x="830.876953"/>
      <use xlink:href="#ArialMT-6b" x="880.876953"/>
      <use xlink:href="#ArialMT-69" x="930.876953"/>
      <use xlink:href="#ArialMT-6e" x="953.09375"/>
      <use xlink:href="#ArialMT-67" x="1008.708984"/>
      <use xlink:href="#ArialMT-29" x="1064.324219"/>
     </g>
    </g>
    <g id="line2d_20">
     <path d="M 143.121563 59.091562 
L 156.121563 59.091562 
L 169.121563 59.091562 
" style="fill: none; stroke: #8172b3; stroke-opacity: 0.8; stroke-width: 2; stroke-linecap: round"/>
    </g>
    <g id="text_19">
     <!-- NEP -->
     <g style="fill: #262626" transform="translate(179.521563 63.641562) scale(0.13 -0.13)">
      <defs>
       <path id="ArialMT-4e" d="M 488 0 
L 488 4581 
L 1109 4581 
L 3516 984 
L 3516 4581 
L 4097 4581 
L 4097 0 
L 3475 0 
L 1069 3600 
L 1069 0 
L 488 0 
z
" transform="scale(0.015625)"/>
      </defs>
      <use xlink:href="#ArialMT-4e"/>
      <use xlink:href="#ArialMT-45" x="72.216797"/>
      <use xlink:href="#ArialMT-50" x="138.916016"/>
     </g>
    </g>
    <g id="line2d_21">
     <g>
      <use xlink:href="#m35d7dc0616" x="156.121563" y="77.638906" style="fill: #55a868; fill-opacity: 0.5; stroke: #55a868; stroke-opacity: 0.5; stroke-linejoin: miter"/>
     </g>
    </g>
    <g id="text_20">
     <!-- PBE+MBD (AB stacking) -->
     <g style="fill: #262626" transform="translate(179.521563 82.188906) scale(0.13 -0.13)">
      <use xlink:href="#ArialMT-50"/>
      <use xlink:href="#ArialMT-42" x="66.699219"/>
      <use xlink:href="#ArialMT-45" x="133.398438"/>
      <use xlink:href="#ArialMT-2b" x="200.097656"/>
      <use xlink:href="#ArialMT-4d" x="258.496094"/>
      <use xlink:href="#ArialMT-42" x="341.796875"/>
      <use xlink:href="#ArialMT-44" x="408.496094"/>
      <use xlink:href="#ArialMT-20" x="480.712891"/>
      <use xlink:href="#ArialMT-28" x="508.496094"/>
      <use xlink:href="#ArialMT-41" x="541.796875"/>
      <use xlink:href="#ArialMT-42" x="608.496094"/>
      <use xlink:href="#ArialMT-20" x="675.195312"/>
      <use xlink:href="#ArialMT-73" x="702.978516"/>
      <use xlink:href="#ArialMT-74" x="752.978516"/>
      <use xlink:href="#ArialMT-61" x="780.761719"/>
      <use xlink:href="#ArialMT-63" x="836.376953"/>
      <use xlink:href="#ArialMT-6b" x="886.376953"/>
      <use xlink:href="#ArialMT-69" x="936.376953"/>
      <use xlink:href="#ArialMT-6e" x="958.59375"/>
      <use xlink:href="#ArialMT-67" x="1014.208984"/>
      <use xlink:href="#ArialMT-29" x="1069.824219"/>
     </g>
    </g>
    <g id="line2d_22">
     <path d="M 143.121563 96.180156 
L 156.121563 96.180156 
L 169.121563 96.180156 
" style="fill: none; stroke: #55a868; stroke-opacity: 0.8; stroke-width: 2; stroke-linecap: round"/>
    </g>
    <g id="text_21">
     <!-- NEP -->
     <g style="fill: #262626" transform="translate(179.521563 100.730156) scale(0.13 -0.13)">
      <use xlink:href="#ArialMT-4e"/>
      <use xlink:href="#ArialMT-45" x="72.216797"/>
      <use xlink:href="#ArialMT-50" x="138.916016"/>
     </g>
    </g>
   </g>
  </g>
 </g>
 <defs>
  <clipPath id="p7d2b7c75d9">
   <rect x="55.627812" y="23.936719" width="279" height="554.4"/>
  </clipPath>
 </defs>
</svg>
